%TF.GenerationSoftware,KiCad,Pcbnew,(6.0.1)*%
%TF.CreationDate,2023-04-18T18:32:32-04:00*%
%TF.ProjectId,Payload_PCB_v3.1,5061796c-6f61-4645-9f50-43425f76332e,rev?*%
%TF.SameCoordinates,Original*%
%TF.FileFunction,Soldermask,Top*%
%TF.FilePolarity,Negative*%
%FSLAX46Y46*%
G04 Gerber Fmt 4.6, Leading zero omitted, Abs format (unit mm)*
G04 Created by KiCad (PCBNEW (6.0.1)) date 2023-04-18 18:32:32*
%MOMM*%
%LPD*%
G01*
G04 APERTURE LIST*
G04 Aperture macros list*
%AMRoundRect*
0 Rectangle with rounded corners*
0 $1 Rounding radius*
0 $2 $3 $4 $5 $6 $7 $8 $9 X,Y pos of 4 corners*
0 Add a 4 corners polygon primitive as box body*
4,1,4,$2,$3,$4,$5,$6,$7,$8,$9,$2,$3,0*
0 Add four circle primitives for the rounded corners*
1,1,$1+$1,$2,$3*
1,1,$1+$1,$4,$5*
1,1,$1+$1,$6,$7*
1,1,$1+$1,$8,$9*
0 Add four rect primitives between the rounded corners*
20,1,$1+$1,$2,$3,$4,$5,0*
20,1,$1+$1,$4,$5,$6,$7,0*
20,1,$1+$1,$6,$7,$8,$9,0*
20,1,$1+$1,$8,$9,$2,$3,0*%
G04 Aperture macros list end*
%ADD10R,2.000000X2.000000*%
%ADD11C,2.000000*%
%ADD12R,1.500000X1.500000*%
%ADD13RoundRect,0.250000X-0.650000X0.412500X-0.650000X-0.412500X0.650000X-0.412500X0.650000X0.412500X0*%
%ADD14RoundRect,0.100000X0.100000X-0.637500X0.100000X0.637500X-0.100000X0.637500X-0.100000X-0.637500X0*%
%ADD15RoundRect,0.250000X-0.450000X0.350000X-0.450000X-0.350000X0.450000X-0.350000X0.450000X0.350000X0*%
%ADD16R,1.700000X1.700000*%
%ADD17O,1.700000X1.700000*%
%ADD18R,0.400000X1.350000*%
%ADD19R,1.500000X1.900000*%
%ADD20O,1.200000X1.900000*%
%ADD21C,1.450000*%
%ADD22R,1.200000X1.900000*%
%ADD23RoundRect,0.250000X0.650000X-0.412500X0.650000X0.412500X-0.650000X0.412500X-0.650000X-0.412500X0*%
%ADD24C,1.803400*%
%ADD25RoundRect,0.250000X0.450000X-0.325000X0.450000X0.325000X-0.450000X0.325000X-0.450000X-0.325000X0*%
%ADD26C,2.780000*%
%ADD27RoundRect,0.250000X0.412500X0.650000X-0.412500X0.650000X-0.412500X-0.650000X0.412500X-0.650000X0*%
%ADD28RoundRect,0.250000X-0.350000X-0.450000X0.350000X-0.450000X0.350000X0.450000X-0.350000X0.450000X0*%
%ADD29RoundRect,0.250000X0.450000X-0.350000X0.450000X0.350000X-0.450000X0.350000X-0.450000X-0.350000X0*%
%ADD30RoundRect,0.250000X-0.412500X-0.650000X0.412500X-0.650000X0.412500X0.650000X-0.412500X0.650000X0*%
%ADD31R,1.000000X1.000000*%
%ADD32C,3.000000*%
%ADD33RoundRect,0.250001X1.599999X-1.099999X1.599999X1.099999X-1.599999X1.099999X-1.599999X-1.099999X0*%
%ADD34O,3.700000X2.700000*%
%ADD35R,2.717800X1.219200*%
%ADD36RoundRect,0.162500X-1.012500X-0.162500X1.012500X-0.162500X1.012500X0.162500X-1.012500X0.162500X0*%
%ADD37RoundRect,0.250000X-0.650000X-1.550000X0.650000X-1.550000X0.650000X1.550000X-0.650000X1.550000X0*%
%ADD38O,1.800000X3.600000*%
%ADD39RoundRect,0.250000X0.350000X0.450000X-0.350000X0.450000X-0.350000X-0.450000X0.350000X-0.450000X0*%
%ADD40RoundRect,0.100000X-0.100000X0.637500X-0.100000X-0.637500X0.100000X-0.637500X0.100000X0.637500X0*%
%ADD41RoundRect,0.150000X0.150000X-0.825000X0.150000X0.825000X-0.150000X0.825000X-0.150000X-0.825000X0*%
%ADD42C,4.000000*%
%ADD43R,1.600000X1.600000*%
%ADD44C,1.600000*%
%ADD45R,2.200000X1.200000*%
%ADD46R,6.400000X5.800000*%
%ADD47R,1.448000X1.448000*%
%ADD48C,1.448000*%
%ADD49RoundRect,0.250000X-0.450000X0.325000X-0.450000X-0.325000X0.450000X-0.325000X0.450000X0.325000X0*%
%ADD50RoundRect,0.150000X-0.587500X-0.150000X0.587500X-0.150000X0.587500X0.150000X-0.587500X0.150000X0*%
%ADD51RoundRect,0.150000X0.150000X-0.587500X0.150000X0.587500X-0.150000X0.587500X-0.150000X-0.587500X0*%
%ADD52C,5.600000*%
%ADD53R,1.500000X0.600000*%
%ADD54R,1.508000X1.508000*%
%ADD55C,1.508000*%
%ADD56R,2.100000X1.200000*%
%ADD57R,1.473200X0.355600*%
%ADD58R,3.200400X3.200400*%
%ADD59RoundRect,0.237500X0.237500X-0.300000X0.237500X0.300000X-0.237500X0.300000X-0.237500X-0.300000X0*%
%ADD60R,1.219200X2.717800*%
%ADD61RoundRect,0.237500X-0.237500X0.300000X-0.237500X-0.300000X0.237500X-0.300000X0.237500X0.300000X0*%
%ADD62R,1.200000X0.900000*%
%ADD63C,1.524000*%
%ADD64R,3.150000X1.524000*%
%ADD65RoundRect,0.150000X0.150000X-0.875000X0.150000X0.875000X-0.150000X0.875000X-0.150000X-0.875000X0*%
%ADD66R,3.500000X1.700000*%
%ADD67R,1.700000X3.500000*%
%ADD68R,0.650000X1.560000*%
%ADD69C,3.500000*%
%ADD70R,2.000000X4.500000*%
%ADD71R,0.600000X1.500000*%
%ADD72RoundRect,0.150000X0.587500X0.150000X-0.587500X0.150000X-0.587500X-0.150000X0.587500X-0.150000X0*%
G04 APERTURE END LIST*
D10*
%TO.C,C6*%
X131236323Y-148336000D03*
D11*
X136236323Y-148336000D03*
%TD*%
D12*
%TO.C,TP22*%
X124714000Y-153416000D03*
%TD*%
D13*
%TO.C,C19*%
X151638000Y-130328500D03*
X151638000Y-133453500D03*
%TD*%
D12*
%TO.C,TP10*%
X88138000Y-90424000D03*
%TD*%
D14*
%TO.C,U16*%
X135729000Y-58869500D03*
X136379000Y-58869500D03*
X137029000Y-58869500D03*
X137679000Y-58869500D03*
X138329000Y-58869500D03*
X138979000Y-58869500D03*
X139629000Y-58869500D03*
X140279000Y-58869500D03*
X140929000Y-58869500D03*
X141579000Y-58869500D03*
X142229000Y-58869500D03*
X142879000Y-58869500D03*
X143529000Y-58869500D03*
X144179000Y-58869500D03*
X144179000Y-53144500D03*
X143529000Y-53144500D03*
X142879000Y-53144500D03*
X142229000Y-53144500D03*
X141579000Y-53144500D03*
X140929000Y-53144500D03*
X140279000Y-53144500D03*
X139629000Y-53144500D03*
X138979000Y-53144500D03*
X138329000Y-53144500D03*
X137679000Y-53144500D03*
X137029000Y-53144500D03*
X136379000Y-53144500D03*
X135729000Y-53144500D03*
%TD*%
D15*
%TO.C,R13*%
X104775000Y-127778000D03*
X104775000Y-129778000D03*
%TD*%
D16*
%TO.C,J9*%
X172989000Y-101834000D03*
D17*
X172989000Y-104374000D03*
X175529000Y-101834000D03*
X175529000Y-104374000D03*
X178069000Y-101834000D03*
X178069000Y-104374000D03*
X180609000Y-101834000D03*
X180609000Y-104374000D03*
X183149000Y-101834000D03*
X183149000Y-104374000D03*
X185689000Y-101834000D03*
X185689000Y-104374000D03*
X188229000Y-101834000D03*
X188229000Y-104374000D03*
X190769000Y-101834000D03*
X190769000Y-104374000D03*
%TD*%
D18*
%TO.C,J18*%
X132304000Y-157287500D03*
X132954000Y-157287500D03*
X133604000Y-157287500D03*
X134254000Y-157287500D03*
X134904000Y-157287500D03*
D19*
X134604000Y-159987500D03*
D20*
X130104000Y-159987500D03*
D21*
X131104000Y-157287500D03*
D22*
X130704000Y-159987500D03*
D21*
X136104000Y-157287500D03*
D22*
X136504000Y-159987500D03*
D19*
X132604000Y-159987500D03*
D20*
X137104000Y-159987500D03*
%TD*%
D15*
%TO.C,R25*%
X187706000Y-91964000D03*
X187706000Y-93964000D03*
%TD*%
D12*
%TO.C,TP13*%
X99822000Y-90424000D03*
%TD*%
%TO.C,TP33*%
X86360000Y-108966000D03*
%TD*%
%TO.C,TP12*%
X97028000Y-90424000D03*
%TD*%
D13*
%TO.C,C26*%
X182626000Y-91655500D03*
X182626000Y-94780500D03*
%TD*%
%TO.C,C29*%
X162814000Y-110959500D03*
X162814000Y-114084500D03*
%TD*%
D23*
%TO.C,C13*%
X78740000Y-87922500D03*
X78740000Y-84797500D03*
%TD*%
D24*
%TO.C,J14*%
X180903124Y-148501901D03*
X180903124Y-156701900D03*
X185903124Y-148501901D03*
X185903124Y-156701900D03*
%TD*%
D25*
%TO.C,D6*%
X80518000Y-158539000D03*
X80518000Y-156489000D03*
%TD*%
D26*
%TO.C,F1*%
X90544000Y-136730000D03*
X90544000Y-140130000D03*
X100464000Y-136730000D03*
X100464000Y-140130000D03*
%TD*%
D27*
%TO.C,C12*%
X72682500Y-67818000D03*
X69557500Y-67818000D03*
%TD*%
D12*
%TO.C,TP49*%
X209804000Y-37084000D03*
%TD*%
D28*
%TO.C,R3*%
X121428000Y-149606000D03*
X123428000Y-149606000D03*
%TD*%
D12*
%TO.C,TP46*%
X94488000Y-121920000D03*
%TD*%
D29*
%TO.C,R18*%
X70104000Y-154178000D03*
X70104000Y-152178000D03*
%TD*%
D30*
%TO.C,C17*%
X104304700Y-132588000D03*
X107429700Y-132588000D03*
%TD*%
D12*
%TO.C,TP15*%
X97409000Y-106172000D03*
%TD*%
D31*
%TO.C,TP26*%
X100584000Y-124714000D03*
%TD*%
D27*
%TO.C,C7*%
X72682500Y-87884000D03*
X69557500Y-87884000D03*
%TD*%
D15*
%TO.C,R11*%
X91440000Y-127762000D03*
X91440000Y-129762000D03*
%TD*%
D12*
%TO.C,TP23*%
X106172000Y-60833000D03*
%TD*%
D32*
%TO.C,J2*%
X66106000Y-122936000D03*
X66106000Y-101936000D03*
D33*
X73406000Y-122936000D03*
D34*
X73406000Y-118736000D03*
X73406000Y-114536000D03*
X73406000Y-110336000D03*
X73406000Y-106136000D03*
X73406000Y-101936000D03*
X78906000Y-122936000D03*
X78906000Y-118736000D03*
X78906000Y-114536000D03*
X78906000Y-110336000D03*
X78906000Y-106136000D03*
X78906000Y-101936000D03*
%TD*%
D35*
%TO.C,C5*%
X68897500Y-38608000D03*
X64706500Y-38608000D03*
%TD*%
D28*
%TO.C,R15*%
X75835000Y-154194000D03*
X77835000Y-154194000D03*
%TD*%
D36*
%TO.C,U19*%
X146779000Y-152019000D03*
X146779000Y-154559000D03*
X146779000Y-157099000D03*
X146779000Y-159639000D03*
X155829000Y-159639000D03*
X155829000Y-157099000D03*
X155829000Y-154559000D03*
X155829000Y-152019000D03*
%TD*%
D37*
%TO.C,J8*%
X87200000Y-115450000D03*
D38*
X90700000Y-115450000D03*
X94200000Y-115450000D03*
X97700000Y-115450000D03*
%TD*%
D39*
%TO.C,R23*%
X166354000Y-40132000D03*
X164354000Y-40132000D03*
%TD*%
D30*
%TO.C,C18*%
X109333900Y-132588000D03*
X112458900Y-132588000D03*
%TD*%
D29*
%TO.C,R8*%
X94996000Y-129778000D03*
X94996000Y-127778000D03*
%TD*%
D27*
%TO.C,C8*%
X72682500Y-85090000D03*
X69557500Y-85090000D03*
%TD*%
D40*
%TO.C,U7*%
X158769000Y-75115500D03*
X158119000Y-75115500D03*
X157469000Y-75115500D03*
X156819000Y-75115500D03*
X156169000Y-75115500D03*
X155519000Y-75115500D03*
X154869000Y-75115500D03*
X154219000Y-75115500D03*
X153569000Y-75115500D03*
X152919000Y-75115500D03*
X152269000Y-75115500D03*
X151619000Y-75115500D03*
X151619000Y-80840500D03*
X152269000Y-80840500D03*
X152919000Y-80840500D03*
X153569000Y-80840500D03*
X154219000Y-80840500D03*
X154869000Y-80840500D03*
X155519000Y-80840500D03*
X156169000Y-80840500D03*
X156819000Y-80840500D03*
X157469000Y-80840500D03*
X158119000Y-80840500D03*
X158769000Y-80840500D03*
%TD*%
D12*
%TO.C,TP52*%
X161544000Y-158750000D03*
%TD*%
D13*
%TO.C,C33*%
X170942000Y-146646500D03*
X170942000Y-149771500D03*
%TD*%
D12*
%TO.C,TP39*%
X85344000Y-74422000D03*
%TD*%
%TO.C,TP38*%
X165227000Y-49530000D03*
%TD*%
D25*
%TO.C,D8*%
X67056000Y-158539000D03*
X67056000Y-156489000D03*
%TD*%
D12*
%TO.C,TP36*%
X94488000Y-124714000D03*
%TD*%
D41*
%TO.C,U22*%
X151765000Y-118299000D03*
X153035000Y-118299000D03*
X154305000Y-118299000D03*
X155575000Y-118299000D03*
X155575000Y-113349000D03*
X154305000Y-113349000D03*
X153035000Y-113349000D03*
X151765000Y-113349000D03*
%TD*%
D42*
%TO.C,J11*%
X208558331Y-91263000D03*
X208558331Y-138363000D03*
D43*
X209978331Y-131433000D03*
D44*
X209978331Y-128663000D03*
X209978331Y-125893000D03*
X209978331Y-123123000D03*
X209978331Y-120353000D03*
X209978331Y-117583000D03*
X209978331Y-114813000D03*
X209978331Y-112043000D03*
X209978331Y-109273000D03*
X209978331Y-106503000D03*
X209978331Y-103733000D03*
X209978331Y-100963000D03*
X209978331Y-98193000D03*
X207138331Y-130048000D03*
X207138331Y-127278000D03*
X207138331Y-124508000D03*
X207138331Y-121738000D03*
X207138331Y-118968000D03*
X207138331Y-116198000D03*
X207138331Y-113428000D03*
X207138331Y-110658000D03*
X207138331Y-107888000D03*
X207138331Y-105118000D03*
X207138331Y-102348000D03*
X207138331Y-99578000D03*
%TD*%
D45*
%TO.C,Q3*%
X115198000Y-159506000D03*
D46*
X108898000Y-157226000D03*
D45*
X115198000Y-154946000D03*
%TD*%
D30*
%TO.C,C15*%
X94234000Y-132588000D03*
X97359000Y-132588000D03*
%TD*%
D12*
%TO.C,TP27*%
X97409000Y-108966000D03*
%TD*%
D47*
%TO.C,U12*%
X77978000Y-47612000D03*
D48*
X80518000Y-47612000D03*
X83058000Y-47612000D03*
%TD*%
D49*
%TO.C,D16*%
X210312000Y-151883000D03*
X210312000Y-153933000D03*
%TD*%
D12*
%TO.C,TP9*%
X99822000Y-74422000D03*
%TD*%
D15*
%TO.C,R1*%
X162814000Y-76978000D03*
X162814000Y-78978000D03*
%TD*%
D50*
%TO.C,Q4*%
X200611500Y-36134000D03*
X200611500Y-38034000D03*
X202486500Y-37084000D03*
%TD*%
D15*
%TO.C,R14*%
X111379000Y-127762000D03*
X111379000Y-129762000D03*
%TD*%
D30*
%TO.C,C27*%
X146519500Y-144018000D03*
X149644500Y-144018000D03*
%TD*%
D41*
%TO.C,U13*%
X141224000Y-134366000D03*
X142494000Y-134366000D03*
X143764000Y-134366000D03*
X145034000Y-134366000D03*
X146304000Y-134366000D03*
X147574000Y-134366000D03*
X148844000Y-134366000D03*
X148844000Y-129416000D03*
X147574000Y-129416000D03*
X146304000Y-129416000D03*
X145034000Y-129416000D03*
X143764000Y-129416000D03*
X142494000Y-129416000D03*
X141224000Y-129416000D03*
%TD*%
D23*
%TO.C,C22*%
X205994000Y-45504500D03*
X205994000Y-42379500D03*
%TD*%
D31*
%TO.C,TP3*%
X100584000Y-106172000D03*
%TD*%
D12*
%TO.C,TP54*%
X143891000Y-158750000D03*
%TD*%
D26*
%TO.C,F2*%
X90544000Y-146128000D03*
X90544000Y-149528000D03*
X100464000Y-146128000D03*
X100464000Y-149528000D03*
%TD*%
D29*
%TO.C,R5*%
X88265000Y-129762000D03*
X88265000Y-127762000D03*
%TD*%
D51*
%TO.C,D11*%
X127493000Y-129715500D03*
X129393000Y-129715500D03*
X128443000Y-127840500D03*
%TD*%
D47*
%TO.C,U9*%
X77978000Y-38976000D03*
D48*
X80518000Y-38976000D03*
X83058000Y-38976000D03*
%TD*%
D52*
%TO.C,H1*%
X68326000Y-51689000D03*
%TD*%
D53*
%TO.C,U15*%
X153238000Y-56896000D03*
X153238000Y-58166000D03*
X153238000Y-59436000D03*
X153238000Y-60706000D03*
X153238000Y-61976000D03*
X153238000Y-63246000D03*
X153238000Y-64516000D03*
X153238000Y-65786000D03*
X153238000Y-67056000D03*
X153238000Y-68326000D03*
X162738000Y-68326000D03*
X162738000Y-67056000D03*
X162738000Y-65786000D03*
X162738000Y-64516000D03*
X162738000Y-63246000D03*
X162738000Y-61976000D03*
X162738000Y-60706000D03*
X162738000Y-59436000D03*
X162738000Y-58166000D03*
X162738000Y-56896000D03*
%TD*%
D10*
%TO.C,C25*%
X98806000Y-52369323D03*
D11*
X98806000Y-57369323D03*
%TD*%
D39*
%TO.C,R22*%
X166354000Y-36576000D03*
X164354000Y-36576000D03*
%TD*%
D35*
%TO.C,C10*%
X68897500Y-45212000D03*
X64706500Y-45212000D03*
%TD*%
D54*
%TO.C,U21*%
X166878000Y-144086000D03*
D55*
X169418000Y-144086000D03*
X171958000Y-144086000D03*
X174498000Y-144086000D03*
%TD*%
D15*
%TO.C,R27*%
X171196000Y-152670000D03*
X171196000Y-154670000D03*
%TD*%
D29*
%TO.C,R17*%
X73152000Y-154178000D03*
X73152000Y-152178000D03*
%TD*%
D45*
%TO.C,Q1*%
X115198000Y-140710000D03*
D46*
X108898000Y-138430000D03*
D45*
X115198000Y-136150000D03*
%TD*%
D12*
%TO.C,TP56*%
X198755000Y-141732000D03*
%TD*%
%TO.C,TP48*%
X209804000Y-39751000D03*
%TD*%
D39*
%TO.C,R21*%
X82534000Y-152146000D03*
X80534000Y-152146000D03*
%TD*%
D12*
%TO.C,TP32*%
X111760000Y-60833000D03*
%TD*%
D15*
%TO.C,R26*%
X174752000Y-152670000D03*
X174752000Y-154670000D03*
%TD*%
D49*
%TO.C,D15*%
X213106000Y-151883000D03*
X213106000Y-153933000D03*
%TD*%
D56*
%TO.C,U6*%
X126446000Y-107433000D03*
X129746000Y-109973000D03*
X126446000Y-112513000D03*
X129746000Y-115053000D03*
X126446000Y-117593000D03*
X129746000Y-120133000D03*
X126446000Y-122673000D03*
X138966000Y-122629000D03*
X142266000Y-120089000D03*
X138966000Y-117549000D03*
X142266000Y-115009000D03*
X138966000Y-112469000D03*
X142266000Y-109929000D03*
X138966000Y-107389000D03*
%TD*%
D57*
%TO.C,U17*%
X172085000Y-90943001D03*
X172085000Y-91592999D03*
X172085000Y-92243001D03*
X172085000Y-92892999D03*
X172085000Y-93542998D03*
X172085000Y-94192999D03*
X172085000Y-94842998D03*
X172085000Y-95492999D03*
X177927000Y-95492999D03*
X177927000Y-94843001D03*
X177927000Y-94192999D03*
X177927000Y-93543001D03*
X177927000Y-92893002D03*
X177927000Y-92243001D03*
X177927000Y-91593002D03*
X177927000Y-90943001D03*
D58*
X175006000Y-93218000D03*
%TD*%
D59*
%TO.C,C30*%
X186690000Y-112368500D03*
X186690000Y-110643500D03*
%TD*%
D16*
%TO.C,J16*%
X167132000Y-159136000D03*
D17*
X167132000Y-156596000D03*
%TD*%
D52*
%TO.C,H2*%
X206248000Y-51689000D03*
%TD*%
D12*
%TO.C,TP34*%
X94488000Y-108966000D03*
%TD*%
D13*
%TO.C,C32*%
X157734000Y-140931500D03*
X157734000Y-144056500D03*
%TD*%
D28*
%TO.C,R16*%
X80534000Y-154178000D03*
X82534000Y-154178000D03*
%TD*%
D12*
%TO.C,TP50*%
X167894000Y-110998000D03*
%TD*%
%TO.C,TP35*%
X86360000Y-124714000D03*
%TD*%
D60*
%TO.C,C20*%
X201295000Y-41846500D03*
X201295000Y-46037500D03*
%TD*%
D12*
%TO.C,TP51*%
X167894000Y-120650000D03*
%TD*%
D31*
%TO.C,TP4*%
X100584000Y-121920000D03*
%TD*%
D61*
%TO.C,C31*%
X186690000Y-119279500D03*
X186690000Y-121004500D03*
%TD*%
D62*
%TO.C,D3*%
X118364000Y-155576000D03*
X118364000Y-158876000D03*
%TD*%
D15*
%TO.C,R12*%
X98171000Y-127778000D03*
X98171000Y-129778000D03*
%TD*%
D27*
%TO.C,C23*%
X159550500Y-53467000D03*
X156425500Y-53467000D03*
%TD*%
D25*
%TO.C,D18*%
X171196000Y-158648000D03*
X171196000Y-156598000D03*
%TD*%
D45*
%TO.C,Q2*%
X115198000Y-150108000D03*
D46*
X108898000Y-147828000D03*
D45*
X115198000Y-145548000D03*
%TD*%
D56*
%TO.C,U1*%
X106330000Y-64518000D03*
X103030000Y-67058000D03*
X106330000Y-69598000D03*
X103030000Y-72138000D03*
X106330000Y-74678000D03*
X103030000Y-77218000D03*
X106330000Y-79758000D03*
X103030000Y-82298000D03*
X118198000Y-82296000D03*
X121498000Y-79756000D03*
X118198000Y-77216000D03*
X121498000Y-74676000D03*
X118198000Y-72136000D03*
X121498000Y-69596000D03*
X118198000Y-67056000D03*
X121498000Y-64516000D03*
%TD*%
D12*
%TO.C,TP55*%
X193802000Y-141732000D03*
%TD*%
D40*
%TO.C,U8*%
X158769000Y-86799500D03*
X158119000Y-86799500D03*
X157469000Y-86799500D03*
X156819000Y-86799500D03*
X156169000Y-86799500D03*
X155519000Y-86799500D03*
X154869000Y-86799500D03*
X154219000Y-86799500D03*
X153569000Y-86799500D03*
X152919000Y-86799500D03*
X152269000Y-86799500D03*
X151619000Y-86799500D03*
X151619000Y-92524500D03*
X152269000Y-92524500D03*
X152919000Y-92524500D03*
X153569000Y-92524500D03*
X154219000Y-92524500D03*
X154869000Y-92524500D03*
X155519000Y-92524500D03*
X156169000Y-92524500D03*
X156819000Y-92524500D03*
X157469000Y-92524500D03*
X158119000Y-92524500D03*
X158769000Y-92524500D03*
%TD*%
D37*
%TO.C,J5*%
X87200000Y-67450000D03*
D38*
X90700000Y-67450000D03*
X94200000Y-67450000D03*
X97700000Y-67450000D03*
%TD*%
D27*
%TO.C,C11*%
X72682500Y-71120000D03*
X69557500Y-71120000D03*
%TD*%
D15*
%TO.C,R7*%
X162814000Y-88646000D03*
X162814000Y-90646000D03*
%TD*%
D25*
%TO.C,D7*%
X70104000Y-158530000D03*
X70104000Y-156480000D03*
%TD*%
D31*
%TO.C,TP2*%
X103632000Y-61087000D03*
%TD*%
D37*
%TO.C,J7*%
X87200000Y-99450000D03*
D38*
X90700000Y-99450000D03*
X94200000Y-99450000D03*
X97700000Y-99450000D03*
%TD*%
D56*
%TO.C,U5*%
X104602000Y-107433000D03*
X107902000Y-109973000D03*
X104602000Y-112513000D03*
X107902000Y-115053000D03*
X104602000Y-117593000D03*
X107902000Y-120133000D03*
X104602000Y-122673000D03*
X117122000Y-122629000D03*
X120422000Y-120089000D03*
X117122000Y-117549000D03*
X120422000Y-115009000D03*
X117122000Y-112469000D03*
X120422000Y-109929000D03*
X117122000Y-107389000D03*
%TD*%
D12*
%TO.C,TP5*%
X75184000Y-59182000D03*
%TD*%
D29*
%TO.C,R6*%
X101600000Y-129778000D03*
X101600000Y-127778000D03*
%TD*%
D12*
%TO.C,TP21*%
X124714000Y-144018000D03*
%TD*%
D51*
%TO.C,D12*%
X133993000Y-129715500D03*
X135893000Y-129715500D03*
X134943000Y-127840500D03*
%TD*%
D63*
%TO.C,J13*%
X161705748Y-155521500D03*
D64*
X162505747Y-155521500D03*
X162505747Y-152981500D03*
D63*
X161705748Y-152981500D03*
D64*
X162505747Y-150441500D03*
D63*
X161705748Y-150441500D03*
D64*
X162505747Y-147901500D03*
D63*
X161705748Y-147901500D03*
X161705748Y-145361500D03*
D64*
X162505747Y-145361500D03*
X162505747Y-142821500D03*
D63*
X161705748Y-142821500D03*
D64*
X142905751Y-142821500D03*
D63*
X143705749Y-142821500D03*
D64*
X142905751Y-145361500D03*
D63*
X143705749Y-145361500D03*
D64*
X142905751Y-147901500D03*
D63*
X143705749Y-147901500D03*
X143705749Y-150441500D03*
D64*
X142905751Y-150441500D03*
D63*
X143705749Y-152981500D03*
D64*
X142905751Y-152981500D03*
D63*
X143705749Y-155521500D03*
D64*
X142905751Y-155521500D03*
%TD*%
D65*
%TO.C,U23*%
X171958000Y-120474000D03*
X173228000Y-120474000D03*
X174498000Y-120474000D03*
X175768000Y-120474000D03*
X177038000Y-120474000D03*
X178308000Y-120474000D03*
X179578000Y-120474000D03*
X180848000Y-120474000D03*
X182118000Y-120474000D03*
X182118000Y-111174000D03*
X180848000Y-111174000D03*
X179578000Y-111174000D03*
X178308000Y-111174000D03*
X177038000Y-111174000D03*
X175768000Y-111174000D03*
X174498000Y-111174000D03*
X173228000Y-111174000D03*
X171958000Y-111174000D03*
%TD*%
D31*
%TO.C,TP25*%
X100584000Y-108966000D03*
%TD*%
D12*
%TO.C,TP28*%
X97409000Y-124714000D03*
%TD*%
D32*
%TO.C,J3*%
X76962000Y-144780000D03*
X79121000Y-148209000D03*
X81280000Y-144780000D03*
%TD*%
D26*
%TO.C,F3*%
X90544000Y-158926000D03*
X90544000Y-155526000D03*
X100464000Y-158926000D03*
X100464000Y-155526000D03*
%TD*%
D12*
%TO.C,TP14*%
X89281000Y-106172000D03*
%TD*%
D23*
%TO.C,C21*%
X131826000Y-57442500D03*
X131826000Y-54317500D03*
%TD*%
D15*
%TO.C,R10*%
X162941000Y-101870000D03*
X162941000Y-103870000D03*
%TD*%
D40*
%TO.C,U10*%
X158769000Y-100007500D03*
X158119000Y-100007500D03*
X157469000Y-100007500D03*
X156819000Y-100007500D03*
X156169000Y-100007500D03*
X155519000Y-100007500D03*
X154869000Y-100007500D03*
X154219000Y-100007500D03*
X153569000Y-100007500D03*
X152919000Y-100007500D03*
X152269000Y-100007500D03*
X151619000Y-100007500D03*
X151619000Y-105732500D03*
X152269000Y-105732500D03*
X152919000Y-105732500D03*
X153569000Y-105732500D03*
X154219000Y-105732500D03*
X154869000Y-105732500D03*
X155519000Y-105732500D03*
X156169000Y-105732500D03*
X156819000Y-105732500D03*
X157469000Y-105732500D03*
X158119000Y-105732500D03*
X158769000Y-105732500D03*
%TD*%
D66*
%TO.C,U14*%
X172074000Y-36576000D03*
D17*
X172974000Y-36576000D03*
X172974000Y-39116000D03*
D66*
X172074000Y-39116000D03*
D16*
X172974000Y-41656000D03*
D66*
X172074000Y-41656000D03*
X172074000Y-44196000D03*
D17*
X172974000Y-44196000D03*
D66*
X172074000Y-46736000D03*
D17*
X172974000Y-46736000D03*
X172974000Y-49276000D03*
D66*
X172074000Y-49276000D03*
X172074000Y-51816000D03*
D17*
X172974000Y-51816000D03*
D66*
X172074000Y-54356000D03*
D16*
X172974000Y-54356000D03*
D17*
X172974000Y-56896000D03*
D66*
X172074000Y-56896000D03*
X172074000Y-59436000D03*
D17*
X172974000Y-59436000D03*
D66*
X172074000Y-61976000D03*
D17*
X172974000Y-61976000D03*
X172974000Y-64516000D03*
D66*
X172074000Y-64516000D03*
D16*
X172974000Y-67056000D03*
D66*
X172074000Y-67056000D03*
D17*
X172974000Y-69596000D03*
D66*
X172074000Y-69596000D03*
X172074000Y-72136000D03*
D17*
X172974000Y-72136000D03*
D66*
X172074000Y-74676000D03*
D17*
X172974000Y-74676000D03*
X172974000Y-77216000D03*
D66*
X172074000Y-77216000D03*
D16*
X172974000Y-79756000D03*
D66*
X172074000Y-79756000D03*
D17*
X172974000Y-82296000D03*
D66*
X172074000Y-82296000D03*
X172074000Y-84836000D03*
D17*
X172974000Y-84836000D03*
D66*
X191654000Y-84836000D03*
D17*
X190754000Y-84836000D03*
X190754000Y-82296000D03*
D66*
X191654000Y-82296000D03*
X191654000Y-79756000D03*
D16*
X190754000Y-79756000D03*
D17*
X190754000Y-77216000D03*
D66*
X191654000Y-77216000D03*
X191654000Y-74676000D03*
D17*
X190754000Y-74676000D03*
X190754000Y-72136000D03*
D66*
X191654000Y-72136000D03*
D17*
X190754000Y-69596000D03*
D66*
X191654000Y-69596000D03*
D16*
X190754000Y-67056000D03*
D66*
X191654000Y-67056000D03*
X191654000Y-64516000D03*
D17*
X190754000Y-64516000D03*
X190754000Y-61976000D03*
D66*
X191654000Y-61976000D03*
X191654000Y-59436000D03*
D17*
X190754000Y-59436000D03*
D66*
X191654000Y-56896000D03*
D17*
X190754000Y-56896000D03*
D16*
X190754000Y-54356000D03*
D66*
X191654000Y-54356000D03*
D17*
X190754000Y-51816000D03*
D66*
X191654000Y-51816000D03*
X191654000Y-49276000D03*
D17*
X190754000Y-49276000D03*
X190754000Y-46736000D03*
D66*
X191654000Y-46736000D03*
X191654000Y-44196000D03*
D17*
X190754000Y-44196000D03*
D66*
X191654000Y-41656000D03*
D16*
X190754000Y-41656000D03*
D66*
X191654000Y-39116000D03*
D17*
X190754000Y-39116000D03*
D66*
X191654000Y-36576000D03*
D17*
X190754000Y-36576000D03*
D67*
X179324000Y-85506000D03*
D17*
X179324000Y-84606000D03*
D67*
X181864000Y-85506000D03*
D16*
X181864000Y-84606000D03*
D67*
X184404000Y-85506000D03*
D17*
X184404000Y-84606000D03*
%TD*%
D29*
%TO.C,R19*%
X67056000Y-154178000D03*
X67056000Y-152178000D03*
%TD*%
D23*
%TO.C,C2*%
X90932000Y-58204500D03*
X90932000Y-55079500D03*
%TD*%
D52*
%TO.C,H4*%
X206248000Y-145669000D03*
%TD*%
%TO.C,H3*%
X68326000Y-145669000D03*
%TD*%
D29*
%TO.C,R24*%
X147066000Y-56880000D03*
X147066000Y-54880000D03*
%TD*%
D68*
%TO.C,U20*%
X149032000Y-146732000D03*
X148082000Y-146732000D03*
X147132000Y-146732000D03*
X147132000Y-149432000D03*
X149032000Y-149432000D03*
%TD*%
D32*
%TO.C,U11*%
X63500000Y-91694000D03*
X71120000Y-91694000D03*
X78740000Y-91694000D03*
D69*
X78740000Y-63754000D03*
D32*
X74930000Y-63728600D03*
X71120000Y-63754000D03*
X67310000Y-63754000D03*
D69*
X63500000Y-63754000D03*
%TD*%
D29*
%TO.C,R9*%
X108204000Y-129762000D03*
X108204000Y-127762000D03*
%TD*%
D51*
%TO.C,D9*%
X114493000Y-129715500D03*
X116393000Y-129715500D03*
X115443000Y-127840500D03*
%TD*%
D12*
%TO.C,TP29*%
X71882000Y-59182000D03*
%TD*%
D56*
%TO.C,U4*%
X126446000Y-87113000D03*
X129746000Y-89653000D03*
X126446000Y-92193000D03*
X129746000Y-94733000D03*
X126446000Y-97273000D03*
X129746000Y-99813000D03*
X126446000Y-102353000D03*
X138966000Y-102309000D03*
X142266000Y-99769000D03*
X138966000Y-97229000D03*
X142266000Y-94689000D03*
X138966000Y-92149000D03*
X142266000Y-89609000D03*
X138966000Y-87069000D03*
%TD*%
D32*
%TO.C,J1*%
X66079000Y-139328000D03*
X66079000Y-130928000D03*
D33*
X73379000Y-139328000D03*
D34*
X73379000Y-135128000D03*
X73379000Y-130928000D03*
X78879000Y-139328000D03*
X78879000Y-135128000D03*
X78879000Y-130928000D03*
%TD*%
D12*
%TO.C,TP6*%
X88138000Y-74422000D03*
%TD*%
D10*
%TO.C,C9*%
X131236323Y-136906000D03*
D11*
X136236323Y-136906000D03*
%TD*%
D62*
%TO.C,D1*%
X118325500Y-137415000D03*
X118325500Y-140715000D03*
%TD*%
D56*
%TO.C,U3*%
X104602000Y-87113000D03*
X107902000Y-89653000D03*
X104602000Y-92193000D03*
X107902000Y-94733000D03*
X104602000Y-97273000D03*
X107902000Y-99813000D03*
X104602000Y-102353000D03*
X117122000Y-102309000D03*
X120422000Y-99769000D03*
X117122000Y-97229000D03*
X120422000Y-94689000D03*
X117122000Y-92149000D03*
X120422000Y-89609000D03*
X117122000Y-87069000D03*
%TD*%
D28*
%TO.C,R2*%
X121682000Y-140970000D03*
X123682000Y-140970000D03*
%TD*%
D42*
%TO.C,J12*%
X158458000Y-41806000D03*
X94958000Y-41806000D03*
D43*
X151638000Y-40386000D03*
D44*
X148868000Y-40386000D03*
X146098000Y-40386000D03*
X143328000Y-40386000D03*
X140558000Y-40386000D03*
X137788000Y-40386000D03*
X135018000Y-40386000D03*
X132248000Y-40386000D03*
X129478000Y-40386000D03*
X126708000Y-40386000D03*
X123938000Y-40386000D03*
X121168000Y-40386000D03*
X118398000Y-40386000D03*
X115628000Y-40386000D03*
X112858000Y-40386000D03*
X110088000Y-40386000D03*
X107318000Y-40386000D03*
X104548000Y-40386000D03*
X101778000Y-40386000D03*
X150253000Y-43226000D03*
X147483000Y-43226000D03*
X144713000Y-43226000D03*
X141943000Y-43226000D03*
X139173000Y-43226000D03*
X136403000Y-43226000D03*
X133633000Y-43226000D03*
X130863000Y-43226000D03*
X128093000Y-43226000D03*
X125323000Y-43226000D03*
X122553000Y-43226000D03*
X119783000Y-43226000D03*
X117013000Y-43226000D03*
X114243000Y-43226000D03*
X111473000Y-43226000D03*
X108703000Y-43226000D03*
X105933000Y-43226000D03*
X103163000Y-43226000D03*
%TD*%
D12*
%TO.C,TP41*%
X85344000Y-90424000D03*
%TD*%
D29*
%TO.C,R4*%
X121158000Y-158734000D03*
X121158000Y-156734000D03*
%TD*%
D12*
%TO.C,TP1*%
X62992000Y-152400000D03*
%TD*%
%TO.C,TP18*%
X89281000Y-108966000D03*
%TD*%
D29*
%TO.C,R30*%
X167894000Y-116824000D03*
X167894000Y-114824000D03*
%TD*%
D12*
%TO.C,TP37*%
X165227000Y-45720000D03*
%TD*%
%TO.C,TP11*%
X90932000Y-90424000D03*
%TD*%
D51*
%TO.C,D10*%
X120993000Y-129715500D03*
X122893000Y-129715500D03*
X121943000Y-127840500D03*
%TD*%
D39*
%TO.C,R20*%
X77835000Y-152162000D03*
X75835000Y-152162000D03*
%TD*%
D27*
%TO.C,C1*%
X124117500Y-136144000D03*
X120992500Y-136144000D03*
%TD*%
D25*
%TO.C,D5*%
X73152000Y-158530000D03*
X73152000Y-156480000D03*
%TD*%
D13*
%TO.C,C24*%
X112776000Y-54317500D03*
X112776000Y-57442500D03*
%TD*%
D24*
%TO.C,J15*%
X193857124Y-148501901D03*
X193857124Y-156701900D03*
X198857124Y-148501901D03*
X198857124Y-156701900D03*
%TD*%
D31*
%TO.C,TP24*%
X114300000Y-61087000D03*
%TD*%
D12*
%TO.C,TP43*%
X86360000Y-106172000D03*
%TD*%
%TO.C,TP17*%
X97409000Y-121920000D03*
%TD*%
D37*
%TO.C,J6*%
X87200000Y-83450000D03*
D38*
X90700000Y-83450000D03*
X94200000Y-83450000D03*
X97700000Y-83450000D03*
%TD*%
D12*
%TO.C,TP42*%
X94234000Y-90424000D03*
%TD*%
D49*
%TO.C,D14*%
X207518000Y-151883000D03*
X207518000Y-153933000D03*
%TD*%
D62*
%TO.C,D2*%
X118364000Y-146178000D03*
X118364000Y-149478000D03*
%TD*%
D25*
%TO.C,D17*%
X174752000Y-158641000D03*
X174752000Y-156591000D03*
%TD*%
D13*
%TO.C,C14*%
X154178000Y-140931500D03*
X154178000Y-144056500D03*
%TD*%
%TO.C,C36*%
X174498000Y-146646500D03*
X174498000Y-149771500D03*
%TD*%
D12*
%TO.C,TP16*%
X89281000Y-121920000D03*
%TD*%
D30*
%TO.C,C16*%
X99275500Y-132588000D03*
X102400500Y-132588000D03*
%TD*%
D16*
%TO.C,J4*%
X83302000Y-55327000D03*
D17*
X85842000Y-55327000D03*
X83302000Y-57867000D03*
X85842000Y-57867000D03*
%TD*%
D12*
%TO.C,TP31*%
X68580000Y-59182000D03*
%TD*%
D39*
%TO.C,R28*%
X168132000Y-153162000D03*
X166132000Y-153162000D03*
%TD*%
D70*
%TO.C,Y1*%
X193040000Y-120074000D03*
X193040000Y-111574000D03*
%TD*%
D49*
%TO.C,D13*%
X204724000Y-151883000D03*
X204724000Y-153933000D03*
%TD*%
D12*
%TO.C,TP30*%
X108966000Y-60833000D03*
%TD*%
%TO.C,TP40*%
X94234000Y-74422000D03*
%TD*%
%TO.C,TP8*%
X97028000Y-74422000D03*
%TD*%
D71*
%TO.C,U18*%
X116713000Y-60630000D03*
X117983000Y-60630000D03*
X119253000Y-60630000D03*
X120523000Y-60630000D03*
X121793000Y-60630000D03*
X123063000Y-60630000D03*
X124333000Y-60630000D03*
X125603000Y-60630000D03*
X126873000Y-60630000D03*
X128143000Y-60630000D03*
X128143000Y-51130000D03*
X126873000Y-51130000D03*
X125603000Y-51130000D03*
X124333000Y-51130000D03*
X123063000Y-51130000D03*
X121793000Y-51130000D03*
X120523000Y-51130000D03*
X119253000Y-51130000D03*
X117983000Y-51130000D03*
X116713000Y-51130000D03*
%TD*%
D42*
%TO.C,J10*%
X208558331Y-83884000D03*
X208558331Y-58884000D03*
D43*
X209978331Y-76924000D03*
D44*
X209978331Y-74154000D03*
X209978331Y-71384000D03*
X209978331Y-68614000D03*
X209978331Y-65844000D03*
X207138331Y-75539000D03*
X207138331Y-72769000D03*
X207138331Y-69999000D03*
X207138331Y-67229000D03*
%TD*%
D12*
%TO.C,TP44*%
X94488000Y-106172000D03*
%TD*%
D15*
%TO.C,R29*%
X179578000Y-140224000D03*
X179578000Y-142224000D03*
%TD*%
D16*
%TO.C,J17*%
X186690000Y-141224000D03*
D17*
X184150000Y-141224000D03*
%TD*%
D12*
%TO.C,TP20*%
X124714000Y-132969000D03*
%TD*%
D25*
%TO.C,D4*%
X76200000Y-158530000D03*
X76200000Y-156480000D03*
%TD*%
D72*
%TO.C,D19*%
X156893500Y-148524000D03*
X156893500Y-146624000D03*
X155018500Y-147574000D03*
%TD*%
D12*
%TO.C,TP7*%
X90932000Y-74422000D03*
%TD*%
%TO.C,TP45*%
X86360000Y-121920000D03*
%TD*%
D27*
%TO.C,C3*%
X123990500Y-147066000D03*
X120865500Y-147066000D03*
%TD*%
D23*
%TO.C,C35*%
X162814000Y-120942500D03*
X162814000Y-117817500D03*
%TD*%
D12*
%TO.C,TP47*%
X209804000Y-42418000D03*
%TD*%
D27*
%TO.C,C4*%
X124117500Y-138684000D03*
X120992500Y-138684000D03*
%TD*%
D13*
%TO.C,C28*%
X167386000Y-146646500D03*
X167386000Y-149771500D03*
%TD*%
D30*
%TO.C,C34*%
X146519500Y-140970000D03*
X149644500Y-140970000D03*
%TD*%
D56*
%TO.C,U2*%
X128682000Y-64518000D03*
X125382000Y-67058000D03*
X128682000Y-69598000D03*
X125382000Y-72138000D03*
X128682000Y-74678000D03*
X125382000Y-77218000D03*
X128682000Y-79758000D03*
X125382000Y-82298000D03*
X140550000Y-82296000D03*
X143850000Y-79756000D03*
X140550000Y-77216000D03*
X143850000Y-74676000D03*
X140550000Y-72136000D03*
X143850000Y-69596000D03*
X140550000Y-67056000D03*
X143850000Y-64516000D03*
%TD*%
D12*
%TO.C,TP53*%
X158750000Y-158750000D03*
%TD*%
%TO.C,TP19*%
X89281000Y-124714000D03*
%TD*%
M02*
