M48
; DRILL file {KiCad (6.0.1)} date Tue Apr 18 18:33:23 2023
; FORMAT={-:-/ absolute / metric / decimal}
; #@! TF.CreationDate,2023-04-18T18:33:23-04:00
; #@! TF.GenerationSoftware,Kicad,Pcbnew,(6.0.1)
; #@! TF.FileFunction,Plated,1,4,PTH
FMAT,2
METRIC
; #@! TA.AperFunction,Plated,PTH,ViaDrill
T1C0.400
; #@! TA.AperFunction,Plated,PTH,ViaDrill
T2C0.500
; #@! TA.AperFunction,Plated,PTH,ComponentDrill
T3C0.500
; #@! TA.AperFunction,Plated,PTH,ComponentDrill
T4C0.600
; #@! TA.AperFunction,Plated,PTH,ComponentDrill
T5C0.700
; #@! TA.AperFunction,Plated,PTH,ViaDrill
T6C0.750
; #@! TA.AperFunction,Plated,PTH,ComponentDrill
T7C0.850
; #@! TA.AperFunction,Plated,PTH,ComponentDrill
T8C0.940
; #@! TA.AperFunction,Plated,PTH,ComponentDrill
T9C1.000
; #@! TA.AperFunction,Plated,PTH,ComponentDrill
T10C1.020
; #@! TA.AperFunction,Plated,PTH,ComponentDrill
T11C1.200
; #@! TA.AperFunction,Plated,PTH,ComponentDrill
T12C1.295
; #@! TA.AperFunction,Plated,PTH,ComponentDrill
T13C1.500
; #@! TA.AperFunction,Plated,PTH,ComponentDrill
T14C1.780
; #@! TA.AperFunction,Plated,PTH,ComponentDrill
T15C1.800
; #@! TA.AperFunction,Plated,PTH,ComponentDrill
T16C2.000
; #@! TA.AperFunction,Plated,PTH,ComponentDrill
T17C3.200
%
G90
G05
T1
X67.056Y-150.114
X68.58Y-158.521
X70.104Y-150.114
X71.628Y-158.521
X73.152Y-150.114
X74.676Y-158.521
X75.184Y-150.114
X78.232Y-158.521
X79.172Y-152.629
X86.741Y-74.422
X86.741Y-90.424
X87.884Y-124.714
X89.535Y-74.422
X89.535Y-90.424
X89.84Y-129.718
X90.932Y-59.69
X90.932Y-124.714
X92.583Y-74.422
X92.583Y-90.424
X93.472Y-57.023
X93.472Y-57.912
X93.472Y-58.801
X94.234Y-131.064
X95.631Y-73.914
X95.631Y-74.93
X95.631Y-90.424
X95.961Y-108.966
X96.012Y-121.92
X96.012Y-124.714
X96.571Y-127.508
X96.571Y-129.718
X97.536Y-60.554
X97.79Y-134.112
X97.79Y-135.052
X98.425Y-90.424
X98.45Y-60.554
X99.06Y-108.966
X99.06Y-121.92
X99.06Y-124.714
X99.275Y-131.051
X99.416Y-60.554
X100.33Y-60.579
X101.219Y-60.579
X101.473Y-90.424
X102.362Y-106.934
X102.616Y-91.821
X103.175Y-127.677
X103.175Y-128.676
X103.175Y-129.718
X103.886Y-89.543
X104.292Y-131.039
X104.775Y-71.755
X104.775Y-72.898
X104.775Y-74.041
X104.775Y-75.057
X104.775Y-89.535
X105.748Y-110.523
X105.918Y-54.864
X106.477Y-125.586
X107.544Y-125.542
X109.093Y-76.011
X109.093Y-76.962
X109.347Y-131.039
X109.804Y-127.635
X109.804Y-128.718
X109.804Y-129.718
X110.363Y-57.404
X110.998Y-87.757
X111.887Y-109.474
X112.141Y-87.757
X112.268Y-105.029
X113.03Y-127.635
X113.284Y-87.757
X113.792Y-121.92
X114.427Y-87.757
X115.443Y-129.794
X115.57Y-87.757
X115.697Y-105.029
X116.459Y-72.771
X116.459Y-73.787
X117.094Y-64.516
X117.602Y-69.342
X117.602Y-70.739
X117.983Y-59.309
X119.253Y-49.53
X120.523Y-49.53
X120.523Y-59.309
X120.904Y-112.268
X121.158Y-104.394
X121.945Y-129.794
X122.301Y-94.107
X122.301Y-108.585
X122.428Y-121.793
X123.063Y-49.53
X123.063Y-59.309
X123.198Y-68.072
X124.333Y-107.95
X124.587Y-122.682
X124.612Y-123.596
X124.841Y-92.583
X124.841Y-94.107
X125.603Y-59.309
X127.635Y-67.437
X128.397Y-67.437
X128.448Y-129.794
X128.778Y-112.776
X129.032Y-97.282
X129.159Y-67.437
X129.921Y-60.706
X130.175Y-68.834
X130.429Y-77.851
X130.556Y-64.516
X130.937Y-97.155
X131.064Y-78.486
X131.191Y-113.919
X133.096Y-110.744
X133.604Y-109.982
X133.731Y-52.07
X133.858Y-58.801
X134.239Y-79.121
X134.95Y-129.794
X135.128Y-79.121
X135.763Y-121.666
X136.017Y-79.121
X136.271Y-51.689
X136.652Y-67.056
X136.906Y-79.121
X137.16Y-67.564
X137.287Y-51.689
X137.795Y-79.121
X138.43Y-60.452
X138.684Y-51.689
X138.684Y-77.216
X138.684Y-79.121
X138.811Y-67.056
X139.066Y-90.528
X139.192Y-105.156
X139.319Y-60.579
X139.954Y-157.48
X139.954Y-158.496
X139.954Y-159.512
X140.081Y-60.071
X140.97Y-60.452
X141.224Y-131.826
X141.224Y-136.068
X141.605Y-57.658
X141.859Y-69.596
X142.24Y-74.676
X142.494Y-57.658
X142.494Y-127.686
X142.621Y-125.73
X142.748Y-60.198
X142.875Y-101.346
X143.383Y-54.356
X143.637Y-125.73
X143.764Y-60.198
X143.764Y-136.093
X144.272Y-54.356
X145.034Y-127.686
X145.745Y-69.85
X146.177Y-58.801
X146.304Y-136.068
X146.431Y-114.427
X146.431Y-115.189
X146.431Y-115.951
X146.431Y-116.713
X146.507Y-69.85
X147.447Y-100.076
X147.701Y-79.629
X147.955Y-91.948
X148.793Y-152.019
X148.971Y-159.639
X149.352Y-136.017
X150.038Y-130.327
X150.114Y-159.639
X150.368Y-136.017
X150.539Y-86.555
X150.539Y-99.763
X150.564Y-74.93
X151.257Y-159.639
X151.587Y-103.022
X151.638Y-68.326
X151.638Y-142.494
X151.765Y-58.166
X151.765Y-60.706
X151.892Y-63.246
X151.892Y-64.516
X151.892Y-85.09
X152.146Y-73.66
X152.146Y-111.506
X152.248Y-103.48
X152.4Y-159.639
X152.781Y-73.025
X152.781Y-85.09
X152.908Y-103.022
X153.035Y-120.015
X153.416Y-73.66
X153.543Y-159.639
X153.568Y-103.48
X153.67Y-85.09
X153.67Y-154.432
X153.67Y-156.718
X153.797Y-82.55
X154.051Y-73.025
X154.229Y-103.022
X154.305Y-120.015
X154.559Y-85.09
X154.559Y-98.425
X154.686Y-82.55
X154.813Y-56.642
X154.889Y-103.48
X154.94Y-73.66
X155.448Y-98.425
X155.55Y-103.022
X155.575Y-73.025
X155.575Y-82.55
X155.702Y-107.688
X155.956Y-143.51
X155.956Y-144.78
X156.21Y-73.649
X156.21Y-103.48
X156.337Y-98.425
X156.464Y-82.55
X156.464Y-149.86
X156.845Y-79.248
X156.972Y-73.025
X157.226Y-98.425
X157.353Y-90.932
X157.393Y-107.688
X157.393Y-110.084
X157.785Y-85.09
X157.81Y-73.66
X157.988Y-151.892
X158.369Y-90.932
X158.496Y-147.066
X159.512Y-80.772
X160.401Y-104.394
X160.782Y-61.722
X161.341Y-89.484
X162.687Y-36.576
X162.687Y-40.132
X162.814Y-115.951
X164.084Y-67.056
X164.338Y-57.446
X165.71Y-149.758
X167.894Y-81.788
X167.945Y-95.453
X167.945Y-97.028
X167.996Y-98.45
X168.046Y-99.924
X168.402Y-90.78
X168.402Y-94.793
X168.402Y-96.266
X168.402Y-97.739
X168.402Y-99.162
X169.164Y-149.758
X169.672Y-152.146
X170.688Y-90.119
X170.688Y-91.415
X170.688Y-92.227
X170.688Y-93.04
X172.72Y-149.758
X172.974Y-158.648
X173.228Y-152.146
X174.244Y-92.202
X174.244Y-93.218
X175.514Y-39.116
X175.768Y-92.202
X175.768Y-93.218
X176.276Y-81.026
X179.324Y-90.932
X179.324Y-92.964
X183.388Y-120.396
X186.69Y-115.824
X188.976Y-83.058
X188.976Y-83.947
X188.976Y-84.836
X188.976Y-85.725
X197.104Y-103.632
X197.866Y-84.836
X197.866Y-104.394
X198.628Y-105.156
X199.39Y-77.216
X199.39Y-105.918
X200.152Y-106.68
X200.66Y-152.654
X200.66Y-153.924
X200.66Y-155.194
X202.946Y-91.694
X202.946Y-92.583
X202.946Y-93.472
X202.946Y-94.361
X205.105Y-40.767
X206.883Y-37.084
T2
X73.66Y-79.756
X73.66Y-80.899
X73.66Y-82.042
X74.803Y-79.756
X74.803Y-80.899
X74.803Y-82.042
X91.821Y-104.013
X91.821Y-105.156
X91.821Y-106.299
X91.821Y-107.442
X91.821Y-108.585
X103.124Y-74.676
X105.156Y-66.421
X107.569Y-77.216
X107.95Y-71.628
X108.077Y-67.564
X114.681Y-133.985
X114.681Y-143.51
X114.681Y-152.781
X116.078Y-133.985
X116.078Y-143.51
X116.078Y-152.781
X117.475Y-133.985
X117.475Y-135.382
X117.475Y-143.51
X117.475Y-144.78
X117.475Y-152.781
X117.475Y-154.178
X118.872Y-133.985
X118.872Y-135.382
X118.872Y-143.51
X118.872Y-144.78
X118.872Y-152.781
X118.872Y-154.178
X120.269Y-133.985
X120.269Y-143.51
X120.269Y-144.78
X120.523Y-72.136
X121.666Y-133.985
X121.666Y-143.51
X121.666Y-144.78
X123.571Y-156.743
X124.714Y-74.676
X124.97Y-79.758
X125.349Y-149.479
X126.035Y-141.275
X127.254Y-141.275
X129.032Y-77.216
X132.842Y-88.265
X134.366Y-86.995
X135.763Y-84.582
X190.5Y-87.63
X191.77Y-87.63
X193.04Y-87.63
X200.914Y-125.73
X200.914Y-127.0
X200.914Y-128.27
X208.064Y-45.505
T3
X100.584Y-106.172
X100.584Y-108.966
X100.584Y-121.92
X100.584Y-124.714
X103.632Y-61.087
X114.3Y-61.087
T5
X62.992Y-152.4
X68.58Y-59.182
X71.882Y-59.182
X75.184Y-59.182
X106.172Y-60.833
X108.966Y-60.833
X111.76Y-60.833
X143.891Y-158.75
X158.75Y-158.75
X161.544Y-158.75
X165.227Y-45.72
X165.227Y-49.53
X167.894Y-110.998
X167.894Y-120.65
X193.802Y-141.732
X198.755Y-141.732
X209.804Y-37.084
X209.804Y-39.751
X209.804Y-42.418
T6
X61.976Y-38.608
X61.976Y-45.212
X70.612Y-56.007
X72.263Y-56.007
X73.914Y-56.007
X75.565Y-56.007
X79.502Y-73.406
X79.502Y-74.93
X79.502Y-76.454
X101.981Y-93.599
X101.981Y-111.125
X106.426Y-136.271
X106.426Y-140.589
X106.426Y-145.669
X106.426Y-149.987
X106.426Y-155.067
X106.426Y-159.385
X108.966Y-136.271
X108.966Y-140.589
X108.966Y-145.669
X108.966Y-149.987
X108.966Y-155.067
X108.966Y-159.385
X110.49Y-106.68
X111.379Y-136.271
X111.379Y-140.589
X111.379Y-145.669
X111.379Y-149.987
X111.379Y-155.067
X111.379Y-159.385
X113.602Y-93.535
X115.062Y-107.061
X115.062Y-112.522
X115.062Y-115.062
X115.951Y-94.869
X119.634Y-107.061
X121.158Y-84.836
X122.682Y-84.836
X122.682Y-86.36
X124.206Y-84.836
X124.206Y-86.36
X125.73Y-84.836
X127.0Y-95.758
X127.127Y-115.189
X131.445Y-108.204
X134.366Y-105.791
X134.366Y-107.315
X135.763Y-95.123
X135.763Y-98.679
X135.763Y-115.189
X135.763Y-118.872
X142.24Y-92.075
X144.526Y-109.931
X201.295Y-48.514
T7
X131.104Y-157.287
X136.104Y-157.287
T8
X77.978Y-38.976
X77.978Y-47.612
X80.518Y-38.976
X80.518Y-47.612
X83.058Y-38.976
X83.058Y-47.612
T9
X83.302Y-55.327
X83.302Y-57.867
X85.842Y-55.327
X85.842Y-57.867
X98.806Y-52.369
X98.806Y-57.369
X101.778Y-40.386
X103.163Y-43.226
X104.548Y-40.386
X105.933Y-43.226
X107.318Y-40.386
X108.703Y-43.226
X110.088Y-40.386
X111.473Y-43.226
X112.858Y-40.386
X114.243Y-43.226
X115.628Y-40.386
X117.013Y-43.226
X118.398Y-40.386
X119.783Y-43.226
X121.168Y-40.386
X122.553Y-43.226
X123.938Y-40.386
X125.323Y-43.226
X126.708Y-40.386
X128.093Y-43.226
X129.478Y-40.386
X130.863Y-43.226
X131.236Y-136.906
X131.236Y-148.336
X132.248Y-40.386
X133.633Y-43.226
X135.018Y-40.386
X136.236Y-136.906
X136.236Y-148.336
X136.403Y-43.226
X137.788Y-40.386
X139.173Y-43.226
X140.558Y-40.386
X141.943Y-43.226
X143.328Y-40.386
X143.706Y-142.821
X143.706Y-145.362
X143.706Y-147.901
X143.706Y-150.441
X143.706Y-152.981
X143.706Y-155.522
X144.713Y-43.226
X146.098Y-40.386
X147.483Y-43.226
X148.868Y-40.386
X150.253Y-43.226
X151.638Y-40.386
X161.706Y-142.821
X161.706Y-145.362
X161.706Y-147.901
X161.706Y-150.441
X161.706Y-152.981
X161.706Y-155.522
X166.878Y-144.086
X167.132Y-156.596
X167.132Y-159.136
X169.418Y-144.086
X171.958Y-144.086
X172.989Y-101.834
X172.989Y-104.374
X174.498Y-144.086
X175.529Y-101.834
X175.529Y-104.374
X178.069Y-101.834
X178.069Y-104.374
X180.609Y-101.834
X180.609Y-104.374
X183.149Y-101.834
X183.149Y-104.374
X184.15Y-141.224
X185.689Y-101.834
X185.689Y-104.374
X186.69Y-141.224
X188.229Y-101.834
X188.229Y-104.374
X190.769Y-101.834
X190.769Y-104.374
X207.138Y-67.229
X207.138Y-69.999
X207.138Y-72.769
X207.138Y-75.539
X207.138Y-99.578
X207.138Y-102.348
X207.138Y-105.118
X207.138Y-107.888
X207.138Y-110.658
X207.138Y-113.428
X207.138Y-116.198
X207.138Y-118.968
X207.138Y-121.738
X207.138Y-124.508
X207.138Y-127.278
X207.138Y-130.048
X209.978Y-65.844
X209.978Y-68.614
X209.978Y-71.384
X209.978Y-74.154
X209.978Y-76.924
X209.978Y-98.193
X209.978Y-100.963
X209.978Y-103.733
X209.978Y-106.503
X209.978Y-109.273
X209.978Y-112.043
X209.978Y-114.813
X209.978Y-117.583
X209.978Y-120.353
X209.978Y-123.123
X209.978Y-125.893
X209.978Y-128.663
X209.978Y-131.433
T10
X172.974Y-36.576
X172.974Y-39.116
X172.974Y-41.656
X172.974Y-44.196
X172.974Y-46.736
X172.974Y-49.276
X172.974Y-51.816
X172.974Y-54.356
X172.974Y-56.896
X172.974Y-59.436
X172.974Y-61.976
X172.974Y-64.516
X172.974Y-67.056
X172.974Y-69.596
X172.974Y-72.136
X172.974Y-74.676
X172.974Y-77.216
X172.974Y-79.756
X172.974Y-82.296
X172.974Y-84.836
X179.324Y-84.606
X181.864Y-84.606
X184.404Y-84.606
X190.754Y-36.576
X190.754Y-39.116
X190.754Y-41.656
X190.754Y-44.196
X190.754Y-46.736
X190.754Y-49.276
X190.754Y-51.816
X190.754Y-54.356
X190.754Y-56.896
X190.754Y-59.436
X190.754Y-61.976
X190.754Y-64.516
X190.754Y-67.056
X190.754Y-69.596
X190.754Y-72.136
X190.754Y-74.676
X190.754Y-77.216
X190.754Y-79.756
X190.754Y-82.296
X190.754Y-84.836
T11
X87.2Y-67.45
X87.2Y-83.45
X87.2Y-99.45
X87.2Y-115.45
X90.7Y-67.45
X90.7Y-83.45
X90.7Y-99.45
X90.7Y-115.45
X94.2Y-67.45
X94.2Y-83.45
X94.2Y-99.45
X94.2Y-115.45
X97.7Y-67.45
X97.7Y-83.45
X97.7Y-99.45
X97.7Y-115.45
T12
X180.903Y-148.502
X180.903Y-156.702
X185.903Y-148.502
X185.903Y-156.702
X193.857Y-148.502
X193.857Y-156.702
X198.857Y-148.502
X198.857Y-156.702
T13
X63.5Y-91.694
X67.31Y-63.754
X71.12Y-63.754
X71.12Y-91.694
X74.93Y-63.729
X78.74Y-91.694
T14
X90.544Y-136.73
X90.544Y-140.13
X90.544Y-146.128
X90.544Y-149.528
X90.544Y-155.526
X90.544Y-158.926
X100.464Y-136.73
X100.464Y-140.13
X100.464Y-146.128
X100.464Y-149.528
X100.464Y-155.526
X100.464Y-158.926
T15
X73.379Y-130.928
X73.379Y-135.128
X73.379Y-139.328
X73.406Y-101.936
X73.406Y-106.136
X73.406Y-110.336
X73.406Y-114.536
X73.406Y-118.736
X73.406Y-122.936
X76.962Y-144.78
X78.879Y-130.928
X78.879Y-135.128
X78.879Y-139.328
X78.906Y-101.936
X78.906Y-106.136
X78.906Y-110.336
X78.906Y-114.536
X78.906Y-118.736
X78.906Y-122.936
X79.121Y-148.209
X81.28Y-144.78
T16
X63.5Y-63.754
X78.74Y-63.754
T17
X68.326Y-51.689
X68.326Y-145.669
X94.958Y-41.806
X158.458Y-41.806
X206.248Y-51.689
X206.248Y-145.669
X208.558Y-58.884
X208.558Y-83.884
X208.558Y-91.263
X208.558Y-138.363
T4
X130.104Y-160.338G85X130.104Y-159.637
G05
X137.104Y-159.637G85X137.104Y-160.338
G05
T0
M30
