%TF.GenerationSoftware,KiCad,Pcbnew,(6.0.1)*%
%TF.CreationDate,2023-04-18T18:32:32-04:00*%
%TF.ProjectId,Payload_PCB_v3.1,5061796c-6f61-4645-9f50-43425f76332e,rev?*%
%TF.SameCoordinates,Original*%
%TF.FileFunction,Soldermask,Bot*%
%TF.FilePolarity,Negative*%
%FSLAX46Y46*%
G04 Gerber Fmt 4.6, Leading zero omitted, Abs format (unit mm)*
G04 Created by KiCad (PCBNEW (6.0.1)) date 2023-04-18 18:32:32*
%MOMM*%
%LPD*%
G01*
G04 APERTURE LIST*
G04 Aperture macros list*
%AMRoundRect*
0 Rectangle with rounded corners*
0 $1 Rounding radius*
0 $2 $3 $4 $5 $6 $7 $8 $9 X,Y pos of 4 corners*
0 Add a 4 corners polygon primitive as box body*
4,1,4,$2,$3,$4,$5,$6,$7,$8,$9,$2,$3,0*
0 Add four circle primitives for the rounded corners*
1,1,$1+$1,$2,$3*
1,1,$1+$1,$4,$5*
1,1,$1+$1,$6,$7*
1,1,$1+$1,$8,$9*
0 Add four rect primitives between the rounded corners*
20,1,$1+$1,$2,$3,$4,$5,0*
20,1,$1+$1,$4,$5,$6,$7,0*
20,1,$1+$1,$6,$7,$8,$9,0*
20,1,$1+$1,$8,$9,$2,$3,0*%
G04 Aperture macros list end*
%ADD10R,2.000000X2.000000*%
%ADD11C,2.000000*%
%ADD12R,1.700000X1.700000*%
%ADD13O,1.700000X1.700000*%
%ADD14O,1.200000X1.900000*%
%ADD15C,1.450000*%
%ADD16C,1.803400*%
%ADD17C,2.780000*%
%ADD18R,1.500000X1.500000*%
%ADD19R,1.000000X1.000000*%
%ADD20C,3.000000*%
%ADD21RoundRect,0.250001X1.599999X-1.099999X1.599999X1.099999X-1.599999X1.099999X-1.599999X-1.099999X0*%
%ADD22O,3.700000X2.700000*%
%ADD23RoundRect,0.250000X-0.650000X-1.550000X0.650000X-1.550000X0.650000X1.550000X-0.650000X1.550000X0*%
%ADD24O,1.800000X3.600000*%
%ADD25C,4.000000*%
%ADD26R,1.600000X1.600000*%
%ADD27C,1.600000*%
%ADD28R,1.448000X1.448000*%
%ADD29C,1.448000*%
%ADD30C,5.600000*%
%ADD31R,1.508000X1.508000*%
%ADD32C,1.508000*%
%ADD33C,1.524000*%
%ADD34C,3.500000*%
G04 APERTURE END LIST*
D10*
%TO.C,C6*%
X131236323Y-148336000D03*
D11*
X136236323Y-148336000D03*
%TD*%
D12*
%TO.C,J9*%
X172989000Y-101834000D03*
D13*
X172989000Y-104374000D03*
X175529000Y-101834000D03*
X175529000Y-104374000D03*
X178069000Y-101834000D03*
X178069000Y-104374000D03*
X180609000Y-101834000D03*
X180609000Y-104374000D03*
X183149000Y-101834000D03*
X183149000Y-104374000D03*
X185689000Y-101834000D03*
X185689000Y-104374000D03*
X188229000Y-101834000D03*
X188229000Y-104374000D03*
X190769000Y-101834000D03*
X190769000Y-104374000D03*
%TD*%
D14*
%TO.C,J18*%
X130104000Y-159987500D03*
D15*
X131104000Y-157287500D03*
X136104000Y-157287500D03*
D14*
X137104000Y-159987500D03*
%TD*%
D16*
%TO.C,J14*%
X180903124Y-148501901D03*
X180903124Y-156701900D03*
X185903124Y-148501901D03*
X185903124Y-156701900D03*
%TD*%
D17*
%TO.C,F1*%
X90544000Y-136730000D03*
X90544000Y-140130000D03*
X100464000Y-136730000D03*
X100464000Y-140130000D03*
%TD*%
D18*
%TO.C,TP49*%
X209804000Y-37084000D03*
%TD*%
D19*
%TO.C,TP26*%
X100584000Y-124714000D03*
%TD*%
D18*
%TO.C,TP23*%
X106172000Y-60833000D03*
%TD*%
D20*
%TO.C,J2*%
X66106000Y-122936000D03*
X66106000Y-101936000D03*
D21*
X73406000Y-122936000D03*
D22*
X73406000Y-118736000D03*
X73406000Y-114536000D03*
X73406000Y-110336000D03*
X73406000Y-106136000D03*
X73406000Y-101936000D03*
X78906000Y-122936000D03*
X78906000Y-118736000D03*
X78906000Y-114536000D03*
X78906000Y-110336000D03*
X78906000Y-106136000D03*
X78906000Y-101936000D03*
%TD*%
D23*
%TO.C,J8*%
X87200000Y-115450000D03*
D24*
X90700000Y-115450000D03*
X94200000Y-115450000D03*
X97700000Y-115450000D03*
%TD*%
D18*
%TO.C,TP52*%
X161544000Y-158750000D03*
%TD*%
%TO.C,TP38*%
X165227000Y-49530000D03*
%TD*%
D25*
%TO.C,J11*%
X208558331Y-91263000D03*
X208558331Y-138363000D03*
D26*
X209978331Y-131433000D03*
D27*
X209978331Y-128663000D03*
X209978331Y-125893000D03*
X209978331Y-123123000D03*
X209978331Y-120353000D03*
X209978331Y-117583000D03*
X209978331Y-114813000D03*
X209978331Y-112043000D03*
X209978331Y-109273000D03*
X209978331Y-106503000D03*
X209978331Y-103733000D03*
X209978331Y-100963000D03*
X209978331Y-98193000D03*
X207138331Y-130048000D03*
X207138331Y-127278000D03*
X207138331Y-124508000D03*
X207138331Y-121738000D03*
X207138331Y-118968000D03*
X207138331Y-116198000D03*
X207138331Y-113428000D03*
X207138331Y-110658000D03*
X207138331Y-107888000D03*
X207138331Y-105118000D03*
X207138331Y-102348000D03*
X207138331Y-99578000D03*
%TD*%
D28*
%TO.C,U12*%
X77978000Y-47612000D03*
D29*
X80518000Y-47612000D03*
X83058000Y-47612000D03*
%TD*%
D19*
%TO.C,TP3*%
X100584000Y-106172000D03*
%TD*%
D18*
%TO.C,TP54*%
X143891000Y-158750000D03*
%TD*%
D17*
%TO.C,F2*%
X90544000Y-146128000D03*
X90544000Y-149528000D03*
X100464000Y-146128000D03*
X100464000Y-149528000D03*
%TD*%
D28*
%TO.C,U9*%
X77978000Y-38976000D03*
D29*
X80518000Y-38976000D03*
X83058000Y-38976000D03*
%TD*%
D30*
%TO.C,H1*%
X68326000Y-51689000D03*
%TD*%
D10*
%TO.C,C25*%
X98806000Y-52369323D03*
D11*
X98806000Y-57369323D03*
%TD*%
D31*
%TO.C,U21*%
X166878000Y-144086000D03*
D32*
X169418000Y-144086000D03*
X171958000Y-144086000D03*
X174498000Y-144086000D03*
%TD*%
D18*
%TO.C,TP56*%
X198755000Y-141732000D03*
%TD*%
%TO.C,TP48*%
X209804000Y-39751000D03*
%TD*%
%TO.C,TP32*%
X111760000Y-60833000D03*
%TD*%
D12*
%TO.C,J16*%
X167132000Y-159136000D03*
D13*
X167132000Y-156596000D03*
%TD*%
D30*
%TO.C,H2*%
X206248000Y-51689000D03*
%TD*%
D18*
%TO.C,TP50*%
X167894000Y-110998000D03*
%TD*%
%TO.C,TP51*%
X167894000Y-120650000D03*
%TD*%
D19*
%TO.C,TP4*%
X100584000Y-121920000D03*
%TD*%
D18*
%TO.C,TP55*%
X193802000Y-141732000D03*
%TD*%
D23*
%TO.C,J5*%
X87200000Y-67450000D03*
D24*
X90700000Y-67450000D03*
X94200000Y-67450000D03*
X97700000Y-67450000D03*
%TD*%
D19*
%TO.C,TP2*%
X103632000Y-61087000D03*
%TD*%
D23*
%TO.C,J7*%
X87200000Y-99450000D03*
D24*
X90700000Y-99450000D03*
X94200000Y-99450000D03*
X97700000Y-99450000D03*
%TD*%
D18*
%TO.C,TP5*%
X75184000Y-59182000D03*
%TD*%
D33*
%TO.C,J13*%
X161705748Y-155521500D03*
X161705748Y-152981500D03*
X161705748Y-150441500D03*
X161705748Y-147901500D03*
X161705748Y-145361500D03*
X161705748Y-142821500D03*
X143705749Y-142821500D03*
X143705749Y-145361500D03*
X143705749Y-147901500D03*
X143705749Y-150441500D03*
X143705749Y-152981500D03*
X143705749Y-155521500D03*
%TD*%
D19*
%TO.C,TP25*%
X100584000Y-108966000D03*
%TD*%
D20*
%TO.C,J3*%
X76962000Y-144780000D03*
X79121000Y-148209000D03*
X81280000Y-144780000D03*
%TD*%
D17*
%TO.C,F3*%
X90544000Y-158926000D03*
X90544000Y-155526000D03*
X100464000Y-158926000D03*
X100464000Y-155526000D03*
%TD*%
D13*
%TO.C,U14*%
X172974000Y-36576000D03*
X172974000Y-39116000D03*
D12*
X172974000Y-41656000D03*
D13*
X172974000Y-44196000D03*
X172974000Y-46736000D03*
X172974000Y-49276000D03*
X172974000Y-51816000D03*
D12*
X172974000Y-54356000D03*
D13*
X172974000Y-56896000D03*
X172974000Y-59436000D03*
X172974000Y-61976000D03*
X172974000Y-64516000D03*
D12*
X172974000Y-67056000D03*
D13*
X172974000Y-69596000D03*
X172974000Y-72136000D03*
X172974000Y-74676000D03*
X172974000Y-77216000D03*
D12*
X172974000Y-79756000D03*
D13*
X172974000Y-82296000D03*
X172974000Y-84836000D03*
X190754000Y-84836000D03*
X190754000Y-82296000D03*
D12*
X190754000Y-79756000D03*
D13*
X190754000Y-77216000D03*
X190754000Y-74676000D03*
X190754000Y-72136000D03*
X190754000Y-69596000D03*
D12*
X190754000Y-67056000D03*
D13*
X190754000Y-64516000D03*
X190754000Y-61976000D03*
X190754000Y-59436000D03*
X190754000Y-56896000D03*
D12*
X190754000Y-54356000D03*
D13*
X190754000Y-51816000D03*
X190754000Y-49276000D03*
X190754000Y-46736000D03*
X190754000Y-44196000D03*
D12*
X190754000Y-41656000D03*
D13*
X190754000Y-39116000D03*
X190754000Y-36576000D03*
X179324000Y-84606000D03*
D12*
X181864000Y-84606000D03*
D13*
X184404000Y-84606000D03*
%TD*%
D30*
%TO.C,H4*%
X206248000Y-145669000D03*
%TD*%
%TO.C,H3*%
X68326000Y-145669000D03*
%TD*%
D20*
%TO.C,U11*%
X63500000Y-91694000D03*
X71120000Y-91694000D03*
X78740000Y-91694000D03*
D34*
X78740000Y-63754000D03*
D20*
X74930000Y-63728600D03*
X71120000Y-63754000D03*
X67310000Y-63754000D03*
D34*
X63500000Y-63754000D03*
%TD*%
D18*
%TO.C,TP29*%
X71882000Y-59182000D03*
%TD*%
D20*
%TO.C,J1*%
X66079000Y-139328000D03*
X66079000Y-130928000D03*
D21*
X73379000Y-139328000D03*
D22*
X73379000Y-135128000D03*
X73379000Y-130928000D03*
X78879000Y-139328000D03*
X78879000Y-135128000D03*
X78879000Y-130928000D03*
%TD*%
D10*
%TO.C,C9*%
X131236323Y-136906000D03*
D11*
X136236323Y-136906000D03*
%TD*%
D25*
%TO.C,J12*%
X158458000Y-41806000D03*
X94958000Y-41806000D03*
D26*
X151638000Y-40386000D03*
D27*
X148868000Y-40386000D03*
X146098000Y-40386000D03*
X143328000Y-40386000D03*
X140558000Y-40386000D03*
X137788000Y-40386000D03*
X135018000Y-40386000D03*
X132248000Y-40386000D03*
X129478000Y-40386000D03*
X126708000Y-40386000D03*
X123938000Y-40386000D03*
X121168000Y-40386000D03*
X118398000Y-40386000D03*
X115628000Y-40386000D03*
X112858000Y-40386000D03*
X110088000Y-40386000D03*
X107318000Y-40386000D03*
X104548000Y-40386000D03*
X101778000Y-40386000D03*
X150253000Y-43226000D03*
X147483000Y-43226000D03*
X144713000Y-43226000D03*
X141943000Y-43226000D03*
X139173000Y-43226000D03*
X136403000Y-43226000D03*
X133633000Y-43226000D03*
X130863000Y-43226000D03*
X128093000Y-43226000D03*
X125323000Y-43226000D03*
X122553000Y-43226000D03*
X119783000Y-43226000D03*
X117013000Y-43226000D03*
X114243000Y-43226000D03*
X111473000Y-43226000D03*
X108703000Y-43226000D03*
X105933000Y-43226000D03*
X103163000Y-43226000D03*
%TD*%
D18*
%TO.C,TP1*%
X62992000Y-152400000D03*
%TD*%
%TO.C,TP37*%
X165227000Y-45720000D03*
%TD*%
D16*
%TO.C,J15*%
X193857124Y-148501901D03*
X193857124Y-156701900D03*
X198857124Y-148501901D03*
X198857124Y-156701900D03*
%TD*%
D19*
%TO.C,TP24*%
X114300000Y-61087000D03*
%TD*%
D23*
%TO.C,J6*%
X87200000Y-83450000D03*
D24*
X90700000Y-83450000D03*
X94200000Y-83450000D03*
X97700000Y-83450000D03*
%TD*%
D12*
%TO.C,J4*%
X83302000Y-55327000D03*
D13*
X85842000Y-55327000D03*
X83302000Y-57867000D03*
X85842000Y-57867000D03*
%TD*%
D18*
%TO.C,TP31*%
X68580000Y-59182000D03*
%TD*%
%TO.C,TP30*%
X108966000Y-60833000D03*
%TD*%
D25*
%TO.C,J10*%
X208558331Y-83884000D03*
X208558331Y-58884000D03*
D26*
X209978331Y-76924000D03*
D27*
X209978331Y-74154000D03*
X209978331Y-71384000D03*
X209978331Y-68614000D03*
X209978331Y-65844000D03*
X207138331Y-75539000D03*
X207138331Y-72769000D03*
X207138331Y-69999000D03*
X207138331Y-67229000D03*
%TD*%
D12*
%TO.C,J17*%
X186690000Y-141224000D03*
D13*
X184150000Y-141224000D03*
%TD*%
D18*
%TO.C,TP47*%
X209804000Y-42418000D03*
%TD*%
%TO.C,TP53*%
X158750000Y-158750000D03*
%TD*%
M02*
