%FSLAX45Y45*%
G04 Gerber Fmt 4.5, Leading zero omitted, Abs format (unit mm)*
G04 Created by KiCad (PCBNEW (6.0.1)) date 2023-04-18 18:33:36*
%MOMM*%
%LPD*%
G01*
G04 APERTURE LIST*
%TA.AperFunction,Profile*%
%ADD10C,0.150000*%
%TD*%
%ADD11C,0.200000*%
%ADD12C,0.300000*%
G04 APERTURE END LIST*
D10*
X5884100Y-4204780D02*
X5884100Y-15411200D01*
X5884100Y-15411200D02*
G75*
G03*
X6640500Y-16154400I749800J6600D01*
G01*
X6634480Y-3454400D02*
G75*
G03*
X5884100Y-4204780I0J-750380D01*
G01*
X6640500Y-16154400D02*
X20817300Y-16154400D01*
X6634480Y-3454400D02*
X20813000Y-3454400D01*
X21560600Y-4206900D02*
X21560600Y-15398000D01*
X21560600Y-4206900D02*
G75*
G03*
X20813000Y-3454400I-750050J2450D01*
G01*
X20817300Y-16154400D02*
G75*
G03*
X21560600Y-15398000I-6550J749850D01*
G01*
D11*
D12*
X6457900Y-12942800D02*
X6757900Y-13242800D01*
X6757900Y-12942800D02*
X6457900Y-13242800D01*
X6457900Y-13782800D02*
X6757900Y-14082800D01*
X6757900Y-13782800D02*
X6457900Y-14082800D01*
X6460600Y-10043600D02*
X6760600Y-10343600D01*
X6760600Y-10043600D02*
X6460600Y-10343600D01*
X6460600Y-12143600D02*
X6760600Y-12443600D01*
X6760600Y-12143600D02*
X6460600Y-12443600D01*
D11*
X6134219Y-16472405D02*
X6134219Y-16272405D01*
X6181838Y-16272405D01*
X6210409Y-16281929D01*
X6229457Y-16300977D01*
X6238981Y-16320024D01*
X6248505Y-16358119D01*
X6248505Y-16386691D01*
X6238981Y-16424786D01*
X6229457Y-16443834D01*
X6210409Y-16462881D01*
X6181838Y-16472405D01*
X6134219Y-16472405D01*
X6334219Y-16472405D02*
X6334219Y-16339072D01*
X6334219Y-16377167D02*
X6343743Y-16358119D01*
X6353267Y-16348596D01*
X6372314Y-16339072D01*
X6391362Y-16339072D01*
X6458028Y-16472405D02*
X6458028Y-16339072D01*
X6458028Y-16272405D02*
X6448505Y-16281929D01*
X6458028Y-16291453D01*
X6467552Y-16281929D01*
X6458028Y-16272405D01*
X6458028Y-16291453D01*
X6581838Y-16472405D02*
X6562790Y-16462881D01*
X6553267Y-16443834D01*
X6553267Y-16272405D01*
X6686600Y-16472405D02*
X6667552Y-16462881D01*
X6658028Y-16443834D01*
X6658028Y-16272405D01*
X6915171Y-16472405D02*
X6915171Y-16272405D01*
X6981838Y-16415262D01*
X7048505Y-16272405D01*
X7048505Y-16472405D01*
X7229457Y-16472405D02*
X7229457Y-16367643D01*
X7219933Y-16348596D01*
X7200886Y-16339072D01*
X7162790Y-16339072D01*
X7143743Y-16348596D01*
X7229457Y-16462881D02*
X7210409Y-16472405D01*
X7162790Y-16472405D01*
X7143743Y-16462881D01*
X7134219Y-16443834D01*
X7134219Y-16424786D01*
X7143743Y-16405738D01*
X7162790Y-16396215D01*
X7210409Y-16396215D01*
X7229457Y-16386691D01*
X7324695Y-16339072D02*
X7324695Y-16539072D01*
X7324695Y-16348596D02*
X7343743Y-16339072D01*
X7381838Y-16339072D01*
X7400886Y-16348596D01*
X7410409Y-16358119D01*
X7419933Y-16377167D01*
X7419933Y-16434310D01*
X7410409Y-16453357D01*
X7400886Y-16462881D01*
X7381838Y-16472405D01*
X7343743Y-16472405D01*
X7324695Y-16462881D01*
X7505648Y-16453357D02*
X7515171Y-16462881D01*
X7505648Y-16472405D01*
X7496124Y-16462881D01*
X7505648Y-16453357D01*
X7505648Y-16472405D01*
X7505648Y-16348596D02*
X7515171Y-16358119D01*
X7505648Y-16367643D01*
X7496124Y-16358119D01*
X7505648Y-16348596D01*
X7505648Y-16367643D01*
X5676600Y-16701929D02*
X5876600Y-16901929D01*
X5876600Y-16701929D02*
X5676600Y-16901929D01*
X6115171Y-16692405D02*
X6238981Y-16692405D01*
X6172314Y-16768596D01*
X6200886Y-16768596D01*
X6219933Y-16778119D01*
X6229457Y-16787643D01*
X6238981Y-16806691D01*
X6238981Y-16854310D01*
X6229457Y-16873358D01*
X6219933Y-16882881D01*
X6200886Y-16892405D01*
X6143743Y-16892405D01*
X6124695Y-16882881D01*
X6115171Y-16873358D01*
X6324695Y-16873358D02*
X6334219Y-16882881D01*
X6324695Y-16892405D01*
X6315171Y-16882881D01*
X6324695Y-16873358D01*
X6324695Y-16892405D01*
X6458028Y-16692405D02*
X6477076Y-16692405D01*
X6496124Y-16701929D01*
X6505648Y-16711453D01*
X6515171Y-16730500D01*
X6524695Y-16768596D01*
X6524695Y-16816215D01*
X6515171Y-16854310D01*
X6505648Y-16873358D01*
X6496124Y-16882881D01*
X6477076Y-16892405D01*
X6458028Y-16892405D01*
X6438981Y-16882881D01*
X6429457Y-16873358D01*
X6419933Y-16854310D01*
X6410409Y-16816215D01*
X6410409Y-16768596D01*
X6419933Y-16730500D01*
X6429457Y-16711453D01*
X6438981Y-16701929D01*
X6458028Y-16692405D01*
X6648505Y-16692405D02*
X6667552Y-16692405D01*
X6686600Y-16701929D01*
X6696124Y-16711453D01*
X6705648Y-16730500D01*
X6715171Y-16768596D01*
X6715171Y-16816215D01*
X6705648Y-16854310D01*
X6696124Y-16873358D01*
X6686600Y-16882881D01*
X6667552Y-16892405D01*
X6648505Y-16892405D01*
X6629457Y-16882881D01*
X6619933Y-16873358D01*
X6610409Y-16854310D01*
X6600886Y-16816215D01*
X6600886Y-16768596D01*
X6610409Y-16730500D01*
X6619933Y-16711453D01*
X6629457Y-16701929D01*
X6648505Y-16692405D01*
X6838981Y-16692405D02*
X6858028Y-16692405D01*
X6877076Y-16701929D01*
X6886600Y-16711453D01*
X6896124Y-16730500D01*
X6905648Y-16768596D01*
X6905648Y-16816215D01*
X6896124Y-16854310D01*
X6886600Y-16873358D01*
X6877076Y-16882881D01*
X6858028Y-16892405D01*
X6838981Y-16892405D01*
X6819933Y-16882881D01*
X6810409Y-16873358D01*
X6800886Y-16854310D01*
X6791362Y-16816215D01*
X6791362Y-16768596D01*
X6800886Y-16730500D01*
X6810409Y-16711453D01*
X6819933Y-16701929D01*
X6838981Y-16692405D01*
X6991362Y-16892405D02*
X6991362Y-16759072D01*
X6991362Y-16778119D02*
X7000886Y-16768596D01*
X7019933Y-16759072D01*
X7048505Y-16759072D01*
X7067552Y-16768596D01*
X7077076Y-16787643D01*
X7077076Y-16892405D01*
X7077076Y-16787643D02*
X7086600Y-16768596D01*
X7105648Y-16759072D01*
X7134219Y-16759072D01*
X7153267Y-16768596D01*
X7162790Y-16787643D01*
X7162790Y-16892405D01*
X7258028Y-16892405D02*
X7258028Y-16759072D01*
X7258028Y-16778119D02*
X7267552Y-16768596D01*
X7286600Y-16759072D01*
X7315171Y-16759072D01*
X7334219Y-16768596D01*
X7343743Y-16787643D01*
X7343743Y-16892405D01*
X7343743Y-16787643D02*
X7353267Y-16768596D01*
X7372314Y-16759072D01*
X7400886Y-16759072D01*
X7419933Y-16768596D01*
X7429457Y-16787643D01*
X7429457Y-16892405D01*
X7819933Y-16682881D02*
X7648505Y-16940024D01*
X8077076Y-16692405D02*
X8096124Y-16692405D01*
X8115171Y-16701929D01*
X8124695Y-16711453D01*
X8134219Y-16730500D01*
X8143743Y-16768596D01*
X8143743Y-16816215D01*
X8134219Y-16854310D01*
X8124695Y-16873358D01*
X8115171Y-16882881D01*
X8096124Y-16892405D01*
X8077076Y-16892405D01*
X8058028Y-16882881D01*
X8048505Y-16873358D01*
X8038981Y-16854310D01*
X8029457Y-16816215D01*
X8029457Y-16768596D01*
X8038981Y-16730500D01*
X8048505Y-16711453D01*
X8058028Y-16701929D01*
X8077076Y-16692405D01*
X8229457Y-16873358D02*
X8238981Y-16882881D01*
X8229457Y-16892405D01*
X8219933Y-16882881D01*
X8229457Y-16873358D01*
X8229457Y-16892405D01*
X8429457Y-16892405D02*
X8315171Y-16892405D01*
X8372314Y-16892405D02*
X8372314Y-16692405D01*
X8353267Y-16720977D01*
X8334219Y-16740024D01*
X8315171Y-16749548D01*
X8619933Y-16892405D02*
X8505648Y-16892405D01*
X8562790Y-16892405D02*
X8562790Y-16692405D01*
X8543743Y-16720977D01*
X8524695Y-16740024D01*
X8505648Y-16749548D01*
X8734219Y-16778119D02*
X8715171Y-16768596D01*
X8705648Y-16759072D01*
X8696124Y-16740024D01*
X8696124Y-16730500D01*
X8705648Y-16711453D01*
X8715171Y-16701929D01*
X8734219Y-16692405D01*
X8772314Y-16692405D01*
X8791362Y-16701929D01*
X8800886Y-16711453D01*
X8810410Y-16730500D01*
X8810410Y-16740024D01*
X8800886Y-16759072D01*
X8791362Y-16768596D01*
X8772314Y-16778119D01*
X8734219Y-16778119D01*
X8715171Y-16787643D01*
X8705648Y-16797167D01*
X8696124Y-16816215D01*
X8696124Y-16854310D01*
X8705648Y-16873358D01*
X8715171Y-16882881D01*
X8734219Y-16892405D01*
X8772314Y-16892405D01*
X8791362Y-16882881D01*
X8800886Y-16873358D01*
X8810410Y-16854310D01*
X8810410Y-16816215D01*
X8800886Y-16797167D01*
X8791362Y-16787643D01*
X8772314Y-16778119D01*
X9000886Y-16892405D02*
X8886600Y-16892405D01*
X8943743Y-16892405D02*
X8943743Y-16692405D01*
X8924695Y-16720977D01*
X8905648Y-16740024D01*
X8886600Y-16749548D01*
X9077076Y-16692405D02*
X9077076Y-16730500D01*
X9153267Y-16692405D02*
X9153267Y-16730500D01*
X9448505Y-16968596D02*
X9438981Y-16959072D01*
X9419933Y-16930500D01*
X9410410Y-16911453D01*
X9400886Y-16882881D01*
X9391362Y-16835262D01*
X9391362Y-16797167D01*
X9400886Y-16749548D01*
X9410410Y-16720977D01*
X9419933Y-16701929D01*
X9438981Y-16673357D01*
X9448505Y-16663834D01*
X9610410Y-16759072D02*
X9610410Y-16892405D01*
X9562790Y-16682881D02*
X9515171Y-16825739D01*
X9638981Y-16825739D01*
X9867552Y-16892405D02*
X9867552Y-16692405D01*
X9953267Y-16892405D02*
X9953267Y-16787643D01*
X9943743Y-16768596D01*
X9924695Y-16759072D01*
X9896124Y-16759072D01*
X9877076Y-16768596D01*
X9867552Y-16778119D01*
X10077076Y-16892405D02*
X10058029Y-16882881D01*
X10048505Y-16873358D01*
X10038981Y-16854310D01*
X10038981Y-16797167D01*
X10048505Y-16778119D01*
X10058029Y-16768596D01*
X10077076Y-16759072D01*
X10105648Y-16759072D01*
X10124695Y-16768596D01*
X10134219Y-16778119D01*
X10143743Y-16797167D01*
X10143743Y-16854310D01*
X10134219Y-16873358D01*
X10124695Y-16882881D01*
X10105648Y-16892405D01*
X10077076Y-16892405D01*
X10258029Y-16892405D02*
X10238981Y-16882881D01*
X10229457Y-16863834D01*
X10229457Y-16692405D01*
X10410410Y-16882881D02*
X10391362Y-16892405D01*
X10353267Y-16892405D01*
X10334219Y-16882881D01*
X10324695Y-16863834D01*
X10324695Y-16787643D01*
X10334219Y-16768596D01*
X10353267Y-16759072D01*
X10391362Y-16759072D01*
X10410410Y-16768596D01*
X10419933Y-16787643D01*
X10419933Y-16806691D01*
X10324695Y-16825739D01*
X10496124Y-16882881D02*
X10515171Y-16892405D01*
X10553267Y-16892405D01*
X10572314Y-16882881D01*
X10581838Y-16863834D01*
X10581838Y-16854310D01*
X10572314Y-16835262D01*
X10553267Y-16825739D01*
X10524695Y-16825739D01*
X10505648Y-16816215D01*
X10496124Y-16797167D01*
X10496124Y-16787643D01*
X10505648Y-16768596D01*
X10524695Y-16759072D01*
X10553267Y-16759072D01*
X10572314Y-16768596D01*
X10648505Y-16968596D02*
X10658029Y-16959072D01*
X10677076Y-16930500D01*
X10686600Y-16911453D01*
X10696124Y-16882881D01*
X10705648Y-16835262D01*
X10705648Y-16797167D01*
X10696124Y-16749548D01*
X10686600Y-16720977D01*
X10677076Y-16701929D01*
X10658029Y-16673357D01*
X10648505Y-16663834D01*
X11010410Y-16968596D02*
X11000886Y-16959072D01*
X10981838Y-16930500D01*
X10972314Y-16911453D01*
X10962790Y-16882881D01*
X10953267Y-16835262D01*
X10953267Y-16797167D01*
X10962790Y-16749548D01*
X10972314Y-16720977D01*
X10981838Y-16701929D01*
X11000886Y-16673357D01*
X11010410Y-16663834D01*
X11086600Y-16759072D02*
X11086600Y-16892405D01*
X11086600Y-16778119D02*
X11096124Y-16768596D01*
X11115171Y-16759072D01*
X11143743Y-16759072D01*
X11162790Y-16768596D01*
X11172314Y-16787643D01*
X11172314Y-16892405D01*
X11296124Y-16892405D02*
X11277076Y-16882881D01*
X11267552Y-16873358D01*
X11258028Y-16854310D01*
X11258028Y-16797167D01*
X11267552Y-16778119D01*
X11277076Y-16768596D01*
X11296124Y-16759072D01*
X11324695Y-16759072D01*
X11343743Y-16768596D01*
X11353267Y-16778119D01*
X11362790Y-16797167D01*
X11362790Y-16854310D01*
X11353267Y-16873358D01*
X11343743Y-16882881D01*
X11324695Y-16892405D01*
X11296124Y-16892405D01*
X11419933Y-16759072D02*
X11496124Y-16759072D01*
X11448505Y-16692405D02*
X11448505Y-16863834D01*
X11458028Y-16882881D01*
X11477076Y-16892405D01*
X11496124Y-16892405D01*
X11715171Y-16759072D02*
X11715171Y-16959072D01*
X11715171Y-16768596D02*
X11734219Y-16759072D01*
X11772314Y-16759072D01*
X11791362Y-16768596D01*
X11800886Y-16778119D01*
X11810409Y-16797167D01*
X11810409Y-16854310D01*
X11800886Y-16873358D01*
X11791362Y-16882881D01*
X11772314Y-16892405D01*
X11734219Y-16892405D01*
X11715171Y-16882881D01*
X11924695Y-16892405D02*
X11905648Y-16882881D01*
X11896124Y-16863834D01*
X11896124Y-16692405D01*
X12086600Y-16892405D02*
X12086600Y-16787643D01*
X12077076Y-16768596D01*
X12058028Y-16759072D01*
X12019933Y-16759072D01*
X12000886Y-16768596D01*
X12086600Y-16882881D02*
X12067552Y-16892405D01*
X12019933Y-16892405D01*
X12000886Y-16882881D01*
X11991362Y-16863834D01*
X11991362Y-16844786D01*
X12000886Y-16825739D01*
X12019933Y-16816215D01*
X12067552Y-16816215D01*
X12086600Y-16806691D01*
X12153267Y-16759072D02*
X12229457Y-16759072D01*
X12181838Y-16692405D02*
X12181838Y-16863834D01*
X12191362Y-16882881D01*
X12210409Y-16892405D01*
X12229457Y-16892405D01*
X12372314Y-16882881D02*
X12353267Y-16892405D01*
X12315171Y-16892405D01*
X12296124Y-16882881D01*
X12286600Y-16863834D01*
X12286600Y-16787643D01*
X12296124Y-16768596D01*
X12315171Y-16759072D01*
X12353267Y-16759072D01*
X12372314Y-16768596D01*
X12381838Y-16787643D01*
X12381838Y-16806691D01*
X12286600Y-16825739D01*
X12553267Y-16892405D02*
X12553267Y-16692405D01*
X12553267Y-16882881D02*
X12534219Y-16892405D01*
X12496124Y-16892405D01*
X12477076Y-16882881D01*
X12467552Y-16873358D01*
X12458028Y-16854310D01*
X12458028Y-16797167D01*
X12467552Y-16778119D01*
X12477076Y-16768596D01*
X12496124Y-16759072D01*
X12534219Y-16759072D01*
X12553267Y-16768596D01*
X12629457Y-16968596D02*
X12638981Y-16959072D01*
X12658028Y-16930500D01*
X12667552Y-16911453D01*
X12677076Y-16882881D01*
X12686600Y-16835262D01*
X12686600Y-16797167D01*
X12677076Y-16749548D01*
X12667552Y-16720977D01*
X12658028Y-16701929D01*
X12638981Y-16673357D01*
X12629457Y-16663834D01*
M02*
