M48
; DRILL file {KiCad 7.0.2} date Sat Sep 23 20:32:56 2023
; FORMAT={-:-/ absolute / inch / decimal}
; #@! TF.CreationDate,2023-09-23T20:32:56-04:00
; #@! TF.GenerationSoftware,Kicad,Pcbnew,7.0.2
; #@! TF.FileFunction,Plated,1,4,PTH
FMAT,2
INCH
; #@! TA.AperFunction,Plated,PTH,ViaDrill
T1C0.0157
; #@! TA.AperFunction,Plated,PTH,ComponentDrill
T2C0.0276
; #@! TA.AperFunction,Plated,PTH,ComponentDrill
T3C0.0394
; #@! TA.AperFunction,Plated,PTH,ComponentDrill
T4C0.0402
; #@! TA.AperFunction,Plated,PTH,ComponentDrill
T5C0.0510
; #@! TA.AperFunction,Plated,PTH,ComponentDrill
T6C0.0551
; #@! TA.AperFunction,Plated,PTH,ComponentDrill
T7C0.0630
; #@! TA.AperFunction,Plated,PTH,ComponentDrill
T8C0.0709
; #@! TA.AperFunction,Plated,PTH,ComponentDrill
T9C0.1260
%
G90
G05
T1
X3.05Y-2.615
X3.225Y-2.54
X3.275Y-2.45
X3.645Y-2.66
X3.69Y-3.73
X3.69Y-3.91
X3.695Y-4.5
X3.695Y-4.66
X3.695Y-5.26
X3.695Y-5.42
X3.695Y-6.02
X3.695Y-6.18
X3.71Y-2.475
X3.74Y-3.47
X3.74Y-4.25
X3.785Y-4.58
X3.785Y-5.34
X3.79Y-3.815
X3.79Y-5.0
X3.79Y-5.76
X3.79Y-6.105
X3.88Y-4.5
X3.88Y-4.66
X3.88Y-5.26
X3.88Y-5.42
X3.88Y-6.02
X3.88Y-6.18
X3.89Y-3.73
X3.89Y-3.91
X3.95Y-3.21
X3.965Y-4.24
X3.995Y-3.64
X3.995Y-5.155
X4.0Y-4.84
X4.0Y-5.63
X4.005Y-4.41
X4.01Y-4.035
X4.01Y-5.92
X4.045Y-6.13
X4.065Y-4.615
X4.065Y-5.37
X4.07Y-3.85
X4.095Y-4.035
X4.115Y-3.235
X4.13Y-3.36
X4.145Y-3.57
X4.15Y-4.325
X4.16Y-5.075
X4.16Y-5.845
X4.18Y-5.32
X4.185Y-3.795
X4.185Y-4.15
X4.19Y-4.855
X4.195Y-4.555
X4.195Y-6.08
X4.21Y-5.64
X4.23Y-2.85
X4.275Y-3.335
X4.295Y-2.605
X4.295Y-2.66
X4.3Y-5.09
X4.3Y-5.21
X4.3Y-5.305
X4.3Y-5.85
X4.3Y-5.97
X4.3Y-6.07
X4.305Y-3.565
X4.305Y-3.785
X4.305Y-4.545
X4.31Y-4.455
X4.315Y-4.09
X4.315Y-4.32
X4.345Y-3.94
X4.366Y-2.846
X4.37Y-4.64
X4.37Y-6.165
X4.38Y-5.405
X4.39Y-3.265
X4.4Y-6.48
X4.415Y-3.46
X4.42Y-3.62
X4.42Y-4.23
X4.42Y-4.39
X4.42Y-4.98
X4.42Y-5.14
X4.42Y-5.74
X4.42Y-5.9
X4.47Y-3.765
X4.488Y-2.404
X4.495Y-3.91
X4.51Y-5.81
X4.515Y-3.545
X4.515Y-4.305
X4.515Y-5.055
X4.518Y-2.86
X4.57Y-2.87
X4.605Y-3.46
X4.605Y-3.62
X4.605Y-4.23
X4.605Y-4.39
X4.605Y-4.98
X4.605Y-5.14
X4.605Y-5.74
X4.605Y-5.9
X4.62Y-2.4
X4.68Y-2.58
X4.68Y-6.345
X4.6912Y-3.6406
X4.695Y-5.795
X4.695Y-5.845
X4.695Y-5.91
X4.6962Y-3.5256
X4.6962Y-3.5856
X4.6974Y-4.29
X4.6974Y-4.355
X4.6974Y-4.41
X4.6999Y-5.0385
X4.6999Y-5.0935
X4.6999Y-5.1485
X4.725Y-6.48
X4.755Y-3.36
X4.7562Y-3.5856
X4.7562Y-3.6406
X4.76Y-5.795
X4.76Y-5.845
X4.76Y-5.91
X4.7612Y-3.5256
X4.7623Y-4.41
X4.7649Y-5.0385
X4.7649Y-5.0935
X4.7649Y-5.1485
X4.7673Y-4.29
X4.7673Y-4.355
X4.77Y-3.275
X4.7824Y-4.54
X4.784Y-3.7953
X4.79Y-6.07
X4.8Y-5.49
X4.815Y-5.625
X4.82Y-4.135
X4.825Y-2.52
X4.8312Y-3.7553
X4.84Y-6.0285
X4.8423Y-4.52
X4.8473Y-4.41
X4.8512Y-3.5206
X4.8512Y-3.5806
X4.8512Y-3.6356
X4.8523Y-4.29
X4.8523Y-4.35
X4.855Y-5.795
X4.855Y-5.85
X4.855Y-5.91
X4.8599Y-5.0335
X4.8599Y-5.0885
X4.8599Y-5.1385
X4.8808Y-1.9808
X4.9062Y-3.6356
X4.9112Y-3.5806
X4.9123Y-4.41
X4.9149Y-5.0335
X4.915Y-2.69
X4.9162Y-3.5206
X4.9173Y-4.29
X4.9173Y-4.355
X4.9199Y-5.0935
X4.9199Y-5.1385
X4.92Y-5.795
X4.92Y-5.85
X4.92Y-5.91
X4.93Y-3.275
X4.935Y-6.26
X4.95Y-4.785
X4.9588Y-6.1127
X4.96Y-6.03
X4.9633Y-6.0736
X4.97Y-2.13
X4.97Y-3.96
X4.9799Y-5.3985
X4.98Y-5.335
X4.985Y-3.7456
X4.985Y-3.785
X4.985Y-3.83
X4.99Y-5.2515
X5.005Y-2.6
X5.015Y-5.365
X5.02Y-2.225
X5.03Y-5.285
X5.04Y-2.995
X5.04Y-6.365
X5.05Y-5.49
X5.05Y-6.485
X5.075Y-3.36
X5.09Y-3.2715
X5.11Y-2.36
X5.117Y-4.158
X5.18Y-1.925
X5.25Y-3.27
X5.305Y-3.86
X5.305Y-4.045
X5.305Y-4.14
X5.305Y-4.315
X5.31Y-5.32
X5.31Y-5.5035
X5.31Y-5.595
X5.31Y-5.78
X5.355Y-2.36
X5.37Y-2.115
X5.375Y-2.57
X5.38Y-2.53
X5.38Y-3.955
X5.38Y-6.365
X5.385Y-4.235
X5.385Y-4.435
X5.39Y-5.415
X5.39Y-5.685
X5.39Y-6.49
X5.465Y-3.86
X5.465Y-4.045
X5.465Y-4.14
X5.465Y-4.325
X5.47Y-5.32
X5.47Y-5.5035
X5.47Y-5.595
X5.47Y-5.78
X5.7Y-6.3065
X5.75Y-6.335
X6.0Y-3.88
X6.035Y-5.365
X6.045Y-4.78
X6.05Y-6.215
X6.06Y-5.6965
X6.09Y-3.875
X6.095Y-4.825
X6.095Y-5.725
X6.12Y-5.285
X6.125Y-3.83
X6.13Y-2.23
X6.1565Y-4.57
T2
X4.075Y-2.015
X4.23Y-2.015
X4.325Y-6.36
X4.385Y-2.015
X4.55Y-2.015
X4.69Y-2.015
X6.12Y-1.725
X6.125Y-1.56
T3
X5.165Y-2.6786
X5.265Y-2.6786
X5.365Y-2.6786
X5.7602Y-2.23
X5.8602Y-2.23
T4
X2.986Y-2.327
X2.986Y-3.027
X3.086Y-2.327
X3.086Y-3.027
X3.186Y-2.327
X3.186Y-3.027
X3.286Y-2.327
X3.286Y-3.027
X3.386Y-2.327
X3.386Y-3.027
X3.486Y-2.327
X3.486Y-3.027
X3.586Y-2.327
X3.586Y-3.027
X3.686Y-2.327
X3.686Y-3.027
X3.786Y-2.327
X3.786Y-3.027
X3.886Y-2.327
X3.886Y-3.027
X3.986Y-2.327
X3.986Y-3.027
X4.086Y-2.327
X4.086Y-3.027
X4.186Y-2.327
X4.186Y-3.027
X4.286Y-2.327
X4.286Y-3.027
X4.386Y-2.327
X4.386Y-3.027
X4.486Y-2.327
X4.486Y-3.027
X4.586Y-2.327
X4.586Y-3.027
X4.686Y-2.327
X4.686Y-3.027
X4.786Y-2.327
X4.786Y-3.027
X4.886Y-2.327
X4.886Y-3.027
T5
X5.6853Y-2.4822
X5.6853Y-2.679
X5.6853Y-3.0022
X5.6853Y-3.199
X6.0081Y-2.4822
X6.0081Y-2.679
X6.0081Y-3.0022
X6.0081Y-3.199
T6
X3.4032Y-1.5185
X3.4032Y-1.735
X3.5686Y-1.5185
X3.5686Y-1.735
X3.7339Y-1.5185
X3.7339Y-1.735
X3.8993Y-1.5185
X3.8993Y-1.735
X4.0646Y-1.5185
X4.0646Y-1.735
X4.23Y-1.5185
X4.23Y-1.735
X4.5086Y-1.5185
X4.5086Y-1.735
X4.6739Y-1.5185
X4.6739Y-1.735
X4.8393Y-1.5185
X4.8393Y-1.735
X5.0046Y-1.5185
X5.0046Y-1.735
X5.17Y-1.5185
X5.17Y-1.735
T7
X3.1247Y-3.7531
X3.1247Y-3.8869
X3.1247Y-4.5131
X3.1247Y-4.6469
X3.1247Y-5.2731
X3.1247Y-5.4069
X3.1247Y-6.0331
X3.1247Y-6.1669
X3.5153Y-3.7531
X3.5153Y-3.8869
X3.5153Y-4.5131
X3.5153Y-4.6469
X3.5153Y-5.2731
X3.5153Y-5.4069
X3.5153Y-6.0331
X3.5153Y-6.1669
T8
X3.2356Y-3.44
X3.2356Y-4.2
X3.2356Y-4.96
X3.2356Y-5.72
X3.46Y-3.44
X3.46Y-4.2
X3.46Y-4.96
X3.46Y-5.72
X5.4806Y-1.6056
X5.4806Y-1.83
X5.705Y-1.6056
X5.705Y-1.83
X5.8156Y-3.6
X5.8156Y-4.08
X5.8156Y-4.56
X5.8156Y-5.04
X5.8156Y-5.52
X5.8156Y-6.0
X6.04Y-3.6
X6.04Y-4.08
X6.04Y-4.56
X6.04Y-5.04
X6.04Y-5.52
X6.04Y-6.0
T9
X3.1431Y-1.9819
X3.1431Y-6.3819
X6.0231Y-1.9819
X6.0231Y-6.3819
T0
M30
