%TF.GenerationSoftware,KiCad,Pcbnew,7.0.2*%
%TF.CreationDate,2023-09-23T20:32:53-04:00*%
%TF.ProjectId,Battery_Monitor_1.2,42617474-6572-4795-9f4d-6f6e69746f72,rev?*%
%TF.SameCoordinates,Original*%
%TF.FileFunction,Paste,Top*%
%TF.FilePolarity,Positive*%
%FSLAX46Y46*%
G04 Gerber Fmt 4.6, Leading zero omitted, Abs format (unit mm)*
G04 Created by KiCad (PCBNEW 7.0.2) date 2023-09-23 20:32:53*
%MOMM*%
%LPD*%
G01*
G04 APERTURE LIST*
G04 Aperture macros list*
%AMRoundRect*
0 Rectangle with rounded corners*
0 $1 Rounding radius*
0 $2 $3 $4 $5 $6 $7 $8 $9 X,Y pos of 4 corners*
0 Add a 4 corners polygon primitive as box body*
4,1,4,$2,$3,$4,$5,$6,$7,$8,$9,$2,$3,0*
0 Add four circle primitives for the rounded corners*
1,1,$1+$1,$2,$3*
1,1,$1+$1,$4,$5*
1,1,$1+$1,$6,$7*
1,1,$1+$1,$8,$9*
0 Add four rect primitives between the rounded corners*
20,1,$1+$1,$2,$3,$4,$5,0*
20,1,$1+$1,$4,$5,$6,$7,0*
20,1,$1+$1,$6,$7,$8,$9,0*
20,1,$1+$1,$8,$9,$2,$3,0*%
G04 Aperture macros list end*
%ADD10RoundRect,0.075000X0.650000X0.075000X-0.650000X0.075000X-0.650000X-0.075000X0.650000X-0.075000X0*%
%ADD11RoundRect,0.250000X-0.350000X-0.450000X0.350000X-0.450000X0.350000X0.450000X-0.350000X0.450000X0*%
%ADD12RoundRect,0.150000X-0.587500X-0.150000X0.587500X-0.150000X0.587500X0.150000X-0.587500X0.150000X0*%
%ADD13RoundRect,0.237500X0.237500X-0.250000X0.237500X0.250000X-0.237500X0.250000X-0.237500X-0.250000X0*%
%ADD14RoundRect,0.250000X0.350000X0.450000X-0.350000X0.450000X-0.350000X-0.450000X0.350000X-0.450000X0*%
%ADD15RoundRect,0.250000X-0.325000X-0.450000X0.325000X-0.450000X0.325000X0.450000X-0.325000X0.450000X0*%
%ADD16R,1.400000X0.300000*%
%ADD17R,2.000000X4.500000*%
%ADD18R,2.200000X1.200000*%
%ADD19R,3.050000X2.750000*%
%ADD20RoundRect,0.150000X-0.150000X0.875000X-0.150000X-0.875000X0.150000X-0.875000X0.150000X0.875000X0*%
%ADD21RoundRect,0.237500X0.237500X-0.300000X0.237500X0.300000X-0.237500X0.300000X-0.237500X-0.300000X0*%
%ADD22RoundRect,0.250000X0.450000X-0.350000X0.450000X0.350000X-0.450000X0.350000X-0.450000X-0.350000X0*%
%ADD23R,1.200000X2.200000*%
%ADD24R,2.750000X3.050000*%
%ADD25RoundRect,0.250000X-0.450000X0.350000X-0.450000X-0.350000X0.450000X-0.350000X0.450000X0.350000X0*%
%ADD26R,1.200000X0.900000*%
%ADD27R,0.450000X0.600000*%
%ADD28R,3.400000X4.600000*%
%ADD29R,0.500000X0.500000*%
%ADD30R,2.400000X1.100000*%
%ADD31RoundRect,0.250000X0.337500X0.475000X-0.337500X0.475000X-0.337500X-0.475000X0.337500X-0.475000X0*%
%ADD32RoundRect,0.250000X0.475000X-0.337500X0.475000X0.337500X-0.475000X0.337500X-0.475000X-0.337500X0*%
%ADD33RoundRect,0.250000X0.412500X0.650000X-0.412500X0.650000X-0.412500X-0.650000X0.412500X-0.650000X0*%
%ADD34R,3.800000X2.000000*%
%ADD35R,1.500000X2.000000*%
%ADD36RoundRect,0.250000X0.650000X-0.412500X0.650000X0.412500X-0.650000X0.412500X-0.650000X-0.412500X0*%
%ADD37RoundRect,0.150000X0.587500X0.150000X-0.587500X0.150000X-0.587500X-0.150000X0.587500X-0.150000X0*%
%ADD38R,1.180000X1.170000*%
%ADD39RoundRect,0.250000X-1.450000X0.537500X-1.450000X-0.537500X1.450000X-0.537500X1.450000X0.537500X0*%
%ADD40RoundRect,0.237500X-0.237500X0.300000X-0.237500X-0.300000X0.237500X-0.300000X0.237500X0.300000X0*%
%ADD41RoundRect,0.150000X0.150000X-0.825000X0.150000X0.825000X-0.150000X0.825000X-0.150000X-0.825000X0*%
G04 APERTURE END LIST*
D10*
%TO.C,U10*%
X123834000Y-143736000D03*
X123834000Y-143236000D03*
X123834000Y-142736000D03*
X123834000Y-142236000D03*
X123834000Y-141736000D03*
X123834000Y-141236000D03*
X123834000Y-140736000D03*
X123834000Y-140236000D03*
X128134000Y-140236000D03*
X128134000Y-140736000D03*
X128134000Y-141236000D03*
X128134000Y-141736000D03*
X128134000Y-142236000D03*
X128134000Y-142736000D03*
X128134000Y-143236000D03*
X128134000Y-143736000D03*
%TD*%
D11*
%TO.C,R8*%
X109585000Y-98552000D03*
X107585000Y-98552000D03*
%TD*%
D12*
%TO.C,Q3*%
X132890500Y-84328000D03*
X131015500Y-85278000D03*
X131015500Y-83378000D03*
%TD*%
D13*
%TO.C,TH4*%
X117475000Y-154282592D03*
X117475000Y-156107592D03*
%TD*%
D14*
%TO.C,R37*%
X115332000Y-160528000D03*
X117332000Y-160528000D03*
%TD*%
D12*
%TO.C,Q6*%
X98473500Y-87122000D03*
X96598500Y-88072000D03*
X96598500Y-86172000D03*
%TD*%
D14*
%TO.C,R10*%
X96536000Y-109855000D03*
X98536000Y-109855000D03*
%TD*%
D15*
%TO.C,D14*%
X117357000Y-164592000D03*
X115307000Y-164592000D03*
%TD*%
D11*
%TO.C,R30*%
X109585000Y-137287000D03*
X107585000Y-137287000D03*
%TD*%
D13*
%TO.C,TH1*%
X117379198Y-96482353D03*
X117379198Y-98307353D03*
%TD*%
D12*
%TO.C,D5*%
X113713500Y-98044000D03*
X111838500Y-98994000D03*
X111838500Y-97094000D03*
%TD*%
D16*
%TO.C,U6*%
X124367244Y-94869760D03*
X124367244Y-95369760D03*
X124367244Y-95869760D03*
X124367244Y-96369760D03*
X124367244Y-96869760D03*
X119967244Y-96869760D03*
X119967244Y-96369760D03*
X119967244Y-95869760D03*
X119967244Y-95369760D03*
X119967244Y-94869760D03*
%TD*%
D10*
%TO.C,U7*%
X123834000Y-105636000D03*
X123834000Y-105136000D03*
X123834000Y-104636000D03*
X123834000Y-104136000D03*
X123834000Y-103636000D03*
X123834000Y-103136000D03*
X123834000Y-102636000D03*
X123834000Y-102136000D03*
X128134000Y-102136000D03*
X128134000Y-102636000D03*
X128134000Y-103136000D03*
X128134000Y-103636000D03*
X128134000Y-104136000D03*
X128134000Y-104636000D03*
X128134000Y-105136000D03*
X128134000Y-105636000D03*
%TD*%
D17*
%TO.C,Y1*%
X88900000Y-72322000D03*
X88900000Y-63822000D03*
%TD*%
D18*
%TO.C,Q8*%
X108322000Y-111754000D03*
X108322000Y-107194000D03*
D19*
X116297000Y-110999000D03*
X116297000Y-107949000D03*
X112947000Y-110999000D03*
X112947000Y-107949000D03*
%TD*%
D20*
%TO.C,U2*%
X105918000Y-72087000D03*
X104648000Y-72087000D03*
X103378000Y-72087000D03*
X102108000Y-72087000D03*
X100838000Y-72087000D03*
X99568000Y-72087000D03*
X98298000Y-72087000D03*
X97028000Y-72087000D03*
X95758000Y-72087000D03*
X95758000Y-62787000D03*
X97028000Y-62787000D03*
X98298000Y-62787000D03*
X99568000Y-62787000D03*
X100838000Y-62787000D03*
X102108000Y-62787000D03*
X103378000Y-62787000D03*
X104648000Y-62787000D03*
X105918000Y-62787000D03*
%TD*%
D12*
%TO.C,Q2*%
X128826500Y-84328000D03*
X126951500Y-85278000D03*
X126951500Y-83378000D03*
%TD*%
D21*
%TO.C,C4*%
X92583000Y-63780500D03*
X92583000Y-65505500D03*
%TD*%
D22*
%TO.C,R13*%
X102870000Y-108474000D03*
X102870000Y-110474000D03*
%TD*%
D11*
%TO.C,R45*%
X134096000Y-162560000D03*
X132096000Y-162560000D03*
%TD*%
D23*
%TO.C,Q11*%
X139059000Y-113801000D03*
X134499000Y-113801000D03*
D24*
X138304000Y-105826000D03*
X135254000Y-105826000D03*
X138304000Y-109176000D03*
X135254000Y-109176000D03*
%TD*%
D15*
%TO.C,D16*%
X142757000Y-164465000D03*
X140707000Y-164465000D03*
%TD*%
D25*
%TO.C,R5*%
X103124000Y-84947000D03*
X103124000Y-82947000D03*
%TD*%
D23*
%TO.C,D2*%
X138805000Y-80273000D03*
X134245000Y-80273000D03*
D24*
X138050000Y-72298000D03*
X135000000Y-72298000D03*
X138050000Y-75648000D03*
X135000000Y-75648000D03*
%TD*%
D18*
%TO.C,Q9*%
X102498000Y-94748000D03*
X102498000Y-99308000D03*
D19*
X94523000Y-95503000D03*
X94523000Y-98553000D03*
X97873000Y-95503000D03*
X97873000Y-98553000D03*
%TD*%
D26*
%TO.C,D4*%
X105410000Y-108332000D03*
X105410000Y-111632000D03*
%TD*%
D22*
%TO.C,R12*%
X102870000Y-89043000D03*
X102870000Y-91043000D03*
%TD*%
D11*
%TO.C,R1*%
X153908000Y-56642000D03*
X151908000Y-56642000D03*
%TD*%
D27*
%TO.C,D3*%
X126619000Y-69249000D03*
X126619000Y-67149000D03*
%TD*%
D12*
%TO.C,Q20*%
X99743500Y-145288000D03*
X97868500Y-146238000D03*
X97868500Y-144338000D03*
%TD*%
D11*
%TO.C,R29*%
X109585000Y-156718000D03*
X107585000Y-156718000D03*
%TD*%
D26*
%TO.C,D8*%
X105664000Y-127382000D03*
X105664000Y-130682000D03*
%TD*%
D14*
%TO.C,R35*%
X123587000Y-160528000D03*
X125587000Y-160528000D03*
%TD*%
D23*
%TO.C,Q17*%
X134626000Y-131182000D03*
X139186000Y-131182000D03*
D24*
X135381000Y-139157000D03*
X138431000Y-139157000D03*
X135381000Y-135807000D03*
X138431000Y-135807000D03*
%TD*%
D18*
%TO.C,Q15*%
X102498000Y-114052000D03*
X102498000Y-118612000D03*
D19*
X94523000Y-114807000D03*
X94523000Y-117857000D03*
X97873000Y-114807000D03*
X97873000Y-117857000D03*
%TD*%
D28*
%TO.C,R26*%
X124396000Y-129286000D03*
D29*
X122946000Y-131336000D03*
X121846000Y-131336000D03*
D28*
X120396000Y-129286000D03*
%TD*%
D15*
%TO.C,D13*%
X125612000Y-164592000D03*
X123562000Y-164592000D03*
%TD*%
D11*
%TO.C,R22*%
X109585000Y-117856000D03*
X107585000Y-117856000D03*
%TD*%
D22*
%TO.C,R7*%
X124358400Y-61941200D03*
X124358400Y-63941200D03*
%TD*%
D30*
%TO.C,C1*%
X126238000Y-52812000D03*
X126238000Y-50312000D03*
%TD*%
D31*
%TO.C,C2*%
X78210500Y-64516000D03*
X80285500Y-64516000D03*
%TD*%
D18*
%TO.C,Q18*%
X108322000Y-150108000D03*
X108322000Y-145548000D03*
D19*
X116297000Y-149353000D03*
X116297000Y-146303000D03*
X112947000Y-149353000D03*
X112947000Y-146303000D03*
%TD*%
D22*
%TO.C,R23*%
X103124000Y-127524000D03*
X103124000Y-129524000D03*
%TD*%
D11*
%TO.C,R27*%
X125460000Y-118872000D03*
X123460000Y-118872000D03*
%TD*%
D14*
%TO.C,R42*%
X140732000Y-160401000D03*
X142732000Y-160401000D03*
%TD*%
D32*
%TO.C,C7*%
X136398000Y-55096500D03*
X136398000Y-57171500D03*
%TD*%
D11*
%TO.C,R36*%
X121269000Y-156719092D03*
X119269000Y-156719092D03*
%TD*%
D33*
%TO.C,C8*%
X114109100Y-62738000D03*
X117234100Y-62738000D03*
%TD*%
D14*
%TO.C,R4*%
X96536000Y-84074000D03*
X98536000Y-84074000D03*
%TD*%
D34*
%TO.C,U1*%
X131572000Y-50825000D03*
D35*
X133872000Y-57125000D03*
X131572000Y-57125000D03*
X129272000Y-57125000D03*
%TD*%
D14*
%TO.C,R34*%
X119269000Y-140970000D03*
X121269000Y-140970000D03*
%TD*%
D26*
%TO.C,D11*%
X105283000Y-159638000D03*
X105283000Y-156338000D03*
%TD*%
D13*
%TO.C,TH2*%
X117599800Y-134724592D03*
X117599800Y-136549592D03*
%TD*%
D14*
%TO.C,R17*%
X119777000Y-102616000D03*
X121777000Y-102616000D03*
%TD*%
D22*
%TO.C,R6*%
X120954800Y-61890400D03*
X120954800Y-63890400D03*
%TD*%
D36*
%TO.C,C6*%
X109093000Y-69176500D03*
X109093000Y-72301500D03*
%TD*%
D22*
%TO.C,R2*%
X100838000Y-82947000D03*
X100838000Y-84947000D03*
%TD*%
D18*
%TO.C,Q19*%
X102498000Y-152660000D03*
X102498000Y-157220000D03*
D19*
X94523000Y-153415000D03*
X94523000Y-156465000D03*
X97873000Y-153415000D03*
X97873000Y-156465000D03*
%TD*%
D14*
%TO.C,R24*%
X97806000Y-129032000D03*
X99806000Y-129032000D03*
%TD*%
D12*
%TO.C,Q4*%
X120698500Y-84328000D03*
X118823500Y-85278000D03*
X118823500Y-83378000D03*
%TD*%
D14*
%TO.C,R33*%
X132096000Y-160528000D03*
X134096000Y-160528000D03*
%TD*%
D22*
%TO.C,R11*%
X100838000Y-104029000D03*
X100838000Y-106029000D03*
%TD*%
D15*
%TO.C,D15*%
X134121000Y-164592000D03*
X132071000Y-164592000D03*
%TD*%
D37*
%TO.C,Q1*%
X78056500Y-67564000D03*
X79931500Y-66614000D03*
X79931500Y-68514000D03*
%TD*%
D11*
%TO.C,R38*%
X125079000Y-156719092D03*
X123079000Y-156719092D03*
%TD*%
%TO.C,R44*%
X125587000Y-162560000D03*
X123587000Y-162560000D03*
%TD*%
D23*
%TO.C,Q12*%
X134499000Y-94098000D03*
X139059000Y-94098000D03*
D24*
X135254000Y-102073000D03*
X138304000Y-102073000D03*
X135254000Y-98723000D03*
X138304000Y-98723000D03*
%TD*%
D38*
%TO.C,D1*%
X131252000Y-59944000D03*
X134432000Y-59944000D03*
%TD*%
D12*
%TO.C,Q5*%
X124762500Y-84328000D03*
X122887500Y-85278000D03*
X122887500Y-83378000D03*
%TD*%
D16*
%TO.C,U11*%
X124501000Y-152670000D03*
X124501000Y-153170000D03*
X124501000Y-153670000D03*
X124501000Y-154170000D03*
X124501000Y-154670000D03*
X120101000Y-154670000D03*
X120101000Y-154170000D03*
X120101000Y-153670000D03*
X120101000Y-153170000D03*
X120101000Y-152670000D03*
%TD*%
D22*
%TO.C,R28*%
X103251000Y-146828000D03*
X103251000Y-148828000D03*
%TD*%
D11*
%TO.C,R19*%
X121427198Y-99314000D03*
X119427198Y-99314000D03*
%TD*%
D39*
%TO.C,C9*%
X130302000Y-75924500D03*
X130302000Y-71649500D03*
%TD*%
D40*
%TO.C,C5*%
X92583000Y-71220500D03*
X92583000Y-69495500D03*
%TD*%
D12*
%TO.C,Q16*%
X99743500Y-126111000D03*
X97868500Y-127061000D03*
X97868500Y-125161000D03*
%TD*%
D14*
%TO.C,R32*%
X97806000Y-148209000D03*
X99806000Y-148209000D03*
%TD*%
D28*
%TO.C,R39*%
X124301000Y-148844000D03*
D29*
X122851000Y-150894000D03*
X121751000Y-150894000D03*
D28*
X120301000Y-148844000D03*
%TD*%
D33*
%TO.C,C3*%
X78066500Y-62103000D03*
X81191500Y-62103000D03*
%TD*%
D16*
%TO.C,U8*%
X124374000Y-114316000D03*
X124374000Y-114816000D03*
X124374000Y-115316000D03*
X124374000Y-115816000D03*
X124374000Y-116316000D03*
X119974000Y-116316000D03*
X119974000Y-115816000D03*
X119974000Y-115316000D03*
X119974000Y-114816000D03*
X119974000Y-114316000D03*
%TD*%
D11*
%TO.C,R46*%
X142732000Y-162433000D03*
X140732000Y-162433000D03*
%TD*%
D14*
%TO.C,R21*%
X97806000Y-123190000D03*
X99806000Y-123190000D03*
%TD*%
D11*
%TO.C,R43*%
X117332000Y-162560000D03*
X115332000Y-162560000D03*
%TD*%
D41*
%TO.C,U4*%
X113538000Y-65724000D03*
X114808000Y-65724000D03*
X116078000Y-65724000D03*
X117348000Y-65724000D03*
X117348000Y-70674000D03*
X116078000Y-70674000D03*
X114808000Y-70674000D03*
X113538000Y-70674000D03*
%TD*%
D14*
%TO.C,R15*%
X96536000Y-104038400D03*
X98536000Y-104038400D03*
%TD*%
D25*
%TO.C,R3*%
X109093000Y-64627000D03*
X109093000Y-62627000D03*
%TD*%
%TO.C,R14*%
X102997000Y-106029000D03*
X102997000Y-104029000D03*
%TD*%
D26*
%TO.C,D9*%
X105283000Y-120903000D03*
X105283000Y-117603000D03*
%TD*%
D13*
%TO.C,TH3*%
X117534690Y-115928592D03*
X117534690Y-117753592D03*
%TD*%
D11*
%TO.C,R41*%
X125203800Y-137161092D03*
X123203800Y-137161092D03*
%TD*%
D26*
%TO.C,D6*%
X105283000Y-88901000D03*
X105283000Y-92201000D03*
%TD*%
D11*
%TO.C,R40*%
X121396000Y-137160000D03*
X119396000Y-137160000D03*
%TD*%
D23*
%TO.C,Q21*%
X139186000Y-150758000D03*
X134626000Y-150758000D03*
D24*
X138431000Y-142783000D03*
X135381000Y-142783000D03*
X138431000Y-146133000D03*
X135381000Y-146133000D03*
%TD*%
D18*
%TO.C,Q13*%
X108322000Y-130804000D03*
X108322000Y-126244000D03*
D19*
X116297000Y-130049000D03*
X116297000Y-126999000D03*
X112947000Y-130049000D03*
X112947000Y-126999000D03*
%TD*%
D18*
%TO.C,Q14*%
X102498000Y-133356000D03*
X102498000Y-137916000D03*
D19*
X94523000Y-134111000D03*
X94523000Y-137161000D03*
X97873000Y-134111000D03*
X97873000Y-137161000D03*
%TD*%
D14*
%TO.C,R31*%
X97806000Y-142367000D03*
X99806000Y-142367000D03*
%TD*%
D28*
%TO.C,R18*%
X124174000Y-110490000D03*
D29*
X122724000Y-112540000D03*
X121624000Y-112540000D03*
D28*
X120174000Y-110490000D03*
%TD*%
D14*
%TO.C,R9*%
X96647000Y-90043000D03*
X98647000Y-90043000D03*
%TD*%
D26*
%TO.C,D7*%
X105283000Y-101345000D03*
X105283000Y-98045000D03*
%TD*%
D28*
%TO.C,R20*%
X124167244Y-91043760D03*
D29*
X122717244Y-93093760D03*
X121617244Y-93093760D03*
D28*
X120167244Y-91043760D03*
%TD*%
D26*
%TO.C,D10*%
X105283000Y-140334000D03*
X105283000Y-137034000D03*
%TD*%
D11*
%TO.C,R25*%
X121523000Y-118872000D03*
X119523000Y-118872000D03*
%TD*%
D16*
%TO.C,U9*%
X124596000Y-133112000D03*
X124596000Y-133612000D03*
X124596000Y-134112000D03*
X124596000Y-134612000D03*
X124596000Y-135112000D03*
X120196000Y-135112000D03*
X120196000Y-134612000D03*
X120196000Y-134112000D03*
X120196000Y-133612000D03*
X120196000Y-133112000D03*
%TD*%
D26*
%TO.C,D12*%
X105664000Y-146686000D03*
X105664000Y-149986000D03*
%TD*%
D12*
%TO.C,Q10*%
X98473500Y-106934000D03*
X96598500Y-107884000D03*
X96598500Y-105984000D03*
%TD*%
D18*
%TO.C,Q7*%
X108322000Y-92323000D03*
X108322000Y-87763000D03*
D19*
X116297000Y-91568000D03*
X116297000Y-88518000D03*
X112947000Y-91568000D03*
X112947000Y-88518000D03*
%TD*%
D11*
%TO.C,R16*%
X125333000Y-99314000D03*
X123333000Y-99314000D03*
%TD*%
M02*
