%TF.GenerationSoftware,KiCad,Pcbnew,7.0.2*%
%TF.CreationDate,2023-09-23T20:32:53-04:00*%
%TF.ProjectId,Battery_Monitor_1.2,42617474-6572-4795-9f4d-6f6e69746f72,rev?*%
%TF.SameCoordinates,Original*%
%TF.FileFunction,Soldermask,Top*%
%TF.FilePolarity,Negative*%
%FSLAX46Y46*%
G04 Gerber Fmt 4.6, Leading zero omitted, Abs format (unit mm)*
G04 Created by KiCad (PCBNEW 7.0.2) date 2023-09-23 20:32:53*
%MOMM*%
%LPD*%
G01*
G04 APERTURE LIST*
G04 Aperture macros list*
%AMRoundRect*
0 Rectangle with rounded corners*
0 $1 Rounding radius*
0 $2 $3 $4 $5 $6 $7 $8 $9 X,Y pos of 4 corners*
0 Add a 4 corners polygon primitive as box body*
4,1,4,$2,$3,$4,$5,$6,$7,$8,$9,$2,$3,0*
0 Add four circle primitives for the rounded corners*
1,1,$1+$1,$2,$3*
1,1,$1+$1,$4,$5*
1,1,$1+$1,$6,$7*
1,1,$1+$1,$8,$9*
0 Add four rect primitives between the rounded corners*
20,1,$1+$1,$2,$3,$4,$5,0*
20,1,$1+$1,$4,$5,$6,$7,0*
20,1,$1+$1,$6,$7,$8,$9,0*
20,1,$1+$1,$8,$9,$2,$3,0*%
G04 Aperture macros list end*
%ADD10C,0.010000*%
%ADD11C,1.226200*%
%ADD12C,0.976200*%
%ADD13RoundRect,0.075000X0.650000X0.075000X-0.650000X0.075000X-0.650000X-0.075000X0.650000X-0.075000X0*%
%ADD14RoundRect,0.250000X-0.350000X-0.450000X0.350000X-0.450000X0.350000X0.450000X-0.350000X0.450000X0*%
%ADD15RoundRect,0.150000X-0.587500X-0.150000X0.587500X-0.150000X0.587500X0.150000X-0.587500X0.150000X0*%
%ADD16RoundRect,0.237500X0.237500X-0.250000X0.237500X0.250000X-0.237500X0.250000X-0.237500X-0.250000X0*%
%ADD17RoundRect,0.250000X0.350000X0.450000X-0.350000X0.450000X-0.350000X-0.450000X0.350000X-0.450000X0*%
%ADD18R,1.500000X1.500000*%
%ADD19RoundRect,0.250000X-0.325000X-0.450000X0.325000X-0.450000X0.325000X0.450000X-0.325000X0.450000X0*%
%ADD20C,1.800000*%
%ADD21R,1.400000X0.300000*%
%ADD22R,2.000000X4.500000*%
%ADD23R,2.200000X1.200000*%
%ADD24R,6.400000X5.800000*%
%ADD25RoundRect,0.150000X-0.150000X0.875000X-0.150000X-0.875000X0.150000X-0.875000X0.150000X0.875000X0*%
%ADD26RoundRect,0.237500X0.237500X-0.300000X0.237500X0.300000X-0.237500X0.300000X-0.237500X-0.300000X0*%
%ADD27RoundRect,0.250000X0.450000X-0.350000X0.450000X0.350000X-0.450000X0.350000X-0.450000X-0.350000X0*%
%ADD28R,1.200000X2.200000*%
%ADD29R,5.800000X6.400000*%
%ADD30RoundRect,0.250000X-0.450000X0.350000X-0.450000X-0.350000X0.450000X-0.350000X0.450000X0.350000X0*%
%ADD31R,1.200000X0.900000*%
%ADD32C,2.400000*%
%ADD33R,0.450000X0.600000*%
%ADD34R,3.400000X4.600000*%
%ADD35R,0.500000X0.500000*%
%ADD36C,5.600000*%
%ADD37R,2.400000X1.100000*%
%ADD38RoundRect,0.250000X0.337500X0.475000X-0.337500X0.475000X-0.337500X-0.475000X0.337500X-0.475000X0*%
%ADD39RoundRect,0.250000X0.475000X-0.337500X0.475000X0.337500X-0.475000X0.337500X-0.475000X-0.337500X0*%
%ADD40O,2.700000X3.300000*%
%ADD41RoundRect,0.250001X1.099999X1.399999X-1.099999X1.399999X-1.099999X-1.399999X1.099999X-1.399999X0*%
%ADD42RoundRect,0.250000X0.412500X0.650000X-0.412500X0.650000X-0.412500X-0.650000X0.412500X-0.650000X0*%
%ADD43R,3.800000X2.000000*%
%ADD44R,1.500000X2.000000*%
%ADD45RoundRect,0.250000X0.650000X-0.412500X0.650000X0.412500X-0.650000X0.412500X-0.650000X-0.412500X0*%
%ADD46RoundRect,0.150000X0.587500X0.150000X-0.587500X0.150000X-0.587500X-0.150000X0.587500X-0.150000X0*%
%ADD47O,1.700000X1.700000*%
%ADD48R,1.700000X1.700000*%
%ADD49R,1.180000X1.170000*%
%ADD50RoundRect,0.250000X-1.450000X0.537500X-1.450000X-0.537500X1.450000X-0.537500X1.450000X0.537500X0*%
%ADD51RoundRect,0.237500X-0.237500X0.300000X-0.237500X-0.300000X0.237500X-0.300000X0.237500X0.300000X0*%
%ADD52C,1.508000*%
%ADD53R,1.508000X1.508000*%
%ADD54RoundRect,0.150000X0.150000X-0.825000X0.150000X0.825000X-0.150000X0.825000X-0.150000X-0.825000X0*%
%ADD55C,1.803400*%
%ADD56R,1.700000X3.500000*%
%ADD57C,3.700000*%
%ADD58RoundRect,0.250002X1.599998X1.599998X-1.599998X1.599998X-1.599998X-1.599998X1.599998X-1.599998X0*%
G04 APERTURE END LIST*
%TO.C,J14*%
D10*
X89110200Y-146514200D02*
X86657800Y-146514200D01*
X86657800Y-144061800D01*
X89110200Y-144061800D01*
X89110200Y-146514200D01*
G36*
X89110200Y-146514200D02*
G01*
X86657800Y-146514200D01*
X86657800Y-144061800D01*
X89110200Y-144061800D01*
X89110200Y-146514200D01*
G37*
D11*
X82797100Y-145288000D02*
G75*
G03*
X82797100Y-145288000I-613100J0D01*
G01*
D12*
X79902100Y-148768000D02*
G75*
G03*
X79902100Y-148768000I-488100J0D01*
G01*
%TO.C,J15*%
D10*
X154642200Y-153626200D02*
X152189800Y-153626200D01*
X152189800Y-151173800D01*
X154642200Y-151173800D01*
X154642200Y-153626200D01*
G36*
X154642200Y-153626200D02*
G01*
X152189800Y-153626200D01*
X152189800Y-151173800D01*
X154642200Y-151173800D01*
X154642200Y-153626200D01*
G37*
D11*
X148329100Y-152400000D02*
G75*
G03*
X148329100Y-152400000I-613100J0D01*
G01*
D12*
X145434100Y-155880000D02*
G75*
G03*
X145434100Y-155880000I-488100J0D01*
G01*
%TO.C,J9*%
D10*
X154642200Y-92666200D02*
X152189800Y-92666200D01*
X152189800Y-90213800D01*
X154642200Y-90213800D01*
X154642200Y-92666200D01*
G36*
X154642200Y-92666200D02*
G01*
X152189800Y-92666200D01*
X152189800Y-90213800D01*
X154642200Y-90213800D01*
X154642200Y-92666200D01*
G37*
D11*
X148329100Y-91440000D02*
G75*
G03*
X148329100Y-91440000I-613100J0D01*
G01*
D12*
X145434100Y-94920000D02*
G75*
G03*
X145434100Y-94920000I-488100J0D01*
G01*
%TO.C,J12*%
D10*
X154642200Y-129242200D02*
X152189800Y-129242200D01*
X152189800Y-126789800D01*
X154642200Y-126789800D01*
X154642200Y-129242200D01*
G36*
X154642200Y-129242200D02*
G01*
X152189800Y-129242200D01*
X152189800Y-126789800D01*
X154642200Y-126789800D01*
X154642200Y-129242200D01*
G37*
D11*
X148329100Y-128016000D02*
G75*
G03*
X148329100Y-128016000I-613100J0D01*
G01*
D12*
X145434100Y-131496000D02*
G75*
G03*
X145434100Y-131496000I-488100J0D01*
G01*
%TO.C,J13*%
D10*
X154642200Y-117050200D02*
X152189800Y-117050200D01*
X152189800Y-114597800D01*
X154642200Y-114597800D01*
X154642200Y-117050200D01*
G36*
X154642200Y-117050200D02*
G01*
X152189800Y-117050200D01*
X152189800Y-114597800D01*
X154642200Y-114597800D01*
X154642200Y-117050200D01*
G37*
D11*
X148329100Y-115824000D02*
G75*
G03*
X148329100Y-115824000I-613100J0D01*
G01*
D12*
X145434100Y-119304000D02*
G75*
G03*
X145434100Y-119304000I-488100J0D01*
G01*
%TO.C,J10*%
D10*
X154642200Y-104858200D02*
X152189800Y-104858200D01*
X152189800Y-102405800D01*
X154642200Y-102405800D01*
X154642200Y-104858200D01*
G36*
X154642200Y-104858200D02*
G01*
X152189800Y-104858200D01*
X152189800Y-102405800D01*
X154642200Y-102405800D01*
X154642200Y-104858200D01*
G37*
D11*
X148329100Y-103632000D02*
G75*
G03*
X148329100Y-103632000I-613100J0D01*
G01*
D12*
X145434100Y-107112000D02*
G75*
G03*
X145434100Y-107112000I-488100J0D01*
G01*
%TO.C,J7*%
D10*
X89110200Y-107906200D02*
X86657800Y-107906200D01*
X86657800Y-105453800D01*
X89110200Y-105453800D01*
X89110200Y-107906200D01*
G36*
X89110200Y-107906200D02*
G01*
X86657800Y-107906200D01*
X86657800Y-105453800D01*
X89110200Y-105453800D01*
X89110200Y-107906200D01*
G37*
D11*
X82797100Y-106680000D02*
G75*
G03*
X82797100Y-106680000I-613100J0D01*
G01*
D12*
X79902100Y-110160000D02*
G75*
G03*
X79902100Y-110160000I-488100J0D01*
G01*
%TO.C,J11*%
D10*
X89110200Y-127210200D02*
X86657800Y-127210200D01*
X86657800Y-124757800D01*
X89110200Y-124757800D01*
X89110200Y-127210200D01*
G36*
X89110200Y-127210200D02*
G01*
X86657800Y-127210200D01*
X86657800Y-124757800D01*
X89110200Y-124757800D01*
X89110200Y-127210200D01*
G37*
D11*
X82797100Y-125984000D02*
G75*
G03*
X82797100Y-125984000I-613100J0D01*
G01*
D12*
X79902100Y-129464000D02*
G75*
G03*
X79902100Y-129464000I-488100J0D01*
G01*
%TO.C,J8*%
D10*
X89110200Y-88602200D02*
X86657800Y-88602200D01*
X86657800Y-86149800D01*
X89110200Y-86149800D01*
X89110200Y-88602200D01*
G36*
X89110200Y-88602200D02*
G01*
X86657800Y-88602200D01*
X86657800Y-86149800D01*
X89110200Y-86149800D01*
X89110200Y-88602200D01*
G37*
D11*
X82797100Y-87376000D02*
G75*
G03*
X82797100Y-87376000I-613100J0D01*
G01*
D12*
X79902100Y-90856000D02*
G75*
G03*
X79902100Y-90856000I-488100J0D01*
G01*
%TO.C,J16*%
D10*
X154642200Y-141434200D02*
X152189800Y-141434200D01*
X152189800Y-138981800D01*
X154642200Y-138981800D01*
X154642200Y-141434200D01*
G36*
X154642200Y-141434200D02*
G01*
X152189800Y-141434200D01*
X152189800Y-138981800D01*
X154642200Y-138981800D01*
X154642200Y-141434200D01*
G37*
D11*
X148329100Y-140208000D02*
G75*
G03*
X148329100Y-140208000I-613100J0D01*
G01*
D12*
X145434100Y-143688000D02*
G75*
G03*
X145434100Y-143688000I-488100J0D01*
G01*
%TD*%
D13*
%TO.C,U10*%
X123834000Y-143736000D03*
X123834000Y-143236000D03*
X123834000Y-142736000D03*
X123834000Y-142236000D03*
X123834000Y-141736000D03*
X123834000Y-141236000D03*
X123834000Y-140736000D03*
X123834000Y-140236000D03*
X128134000Y-140236000D03*
X128134000Y-140736000D03*
X128134000Y-141236000D03*
X128134000Y-141736000D03*
X128134000Y-142236000D03*
X128134000Y-142736000D03*
X128134000Y-143236000D03*
X128134000Y-143736000D03*
%TD*%
D14*
%TO.C,R8*%
X109585000Y-98552000D03*
X107585000Y-98552000D03*
%TD*%
D15*
%TO.C,Q3*%
X132890500Y-84328000D03*
X131015500Y-85278000D03*
X131015500Y-83378000D03*
%TD*%
D16*
%TO.C,TH4*%
X117475000Y-154282592D03*
X117475000Y-156107592D03*
%TD*%
D17*
%TO.C,R37*%
X115332000Y-160528000D03*
X117332000Y-160528000D03*
%TD*%
D15*
%TO.C,Q6*%
X98473500Y-87122000D03*
X96598500Y-88072000D03*
X96598500Y-86172000D03*
%TD*%
D17*
%TO.C,R10*%
X96536000Y-109855000D03*
X98536000Y-109855000D03*
%TD*%
D18*
%TO.C,TP22*%
X108458000Y-122428000D03*
%TD*%
D19*
%TO.C,D14*%
X117357000Y-164592000D03*
X115307000Y-164592000D03*
%TD*%
D14*
%TO.C,R30*%
X109585000Y-137287000D03*
X107585000Y-137287000D03*
%TD*%
D16*
%TO.C,TH1*%
X117379198Y-96482353D03*
X117379198Y-98307353D03*
%TD*%
D15*
%TO.C,D5*%
X113713500Y-98044000D03*
X111838500Y-98994000D03*
X111838500Y-97094000D03*
%TD*%
D18*
%TO.C,TP6*%
X115570000Y-51181000D03*
%TD*%
D20*
%TO.C,J14*%
X79414000Y-148768000D03*
%TD*%
D21*
%TO.C,U6*%
X124367244Y-94869760D03*
X124367244Y-95369760D03*
X124367244Y-95869760D03*
X124367244Y-96369760D03*
X124367244Y-96869760D03*
X119967244Y-96869760D03*
X119967244Y-96369760D03*
X119967244Y-95869760D03*
X119967244Y-95369760D03*
X119967244Y-94869760D03*
%TD*%
D13*
%TO.C,U7*%
X123834000Y-105636000D03*
X123834000Y-105136000D03*
X123834000Y-104636000D03*
X123834000Y-104136000D03*
X123834000Y-103636000D03*
X123834000Y-103136000D03*
X123834000Y-102636000D03*
X123834000Y-102136000D03*
X128134000Y-102136000D03*
X128134000Y-102636000D03*
X128134000Y-103136000D03*
X128134000Y-103636000D03*
X128134000Y-104136000D03*
X128134000Y-104636000D03*
X128134000Y-105136000D03*
X128134000Y-105636000D03*
%TD*%
D18*
%TO.C,TP26*%
X116332000Y-122428000D03*
%TD*%
%TO.C,TP25*%
X129667000Y-131318000D03*
%TD*%
D22*
%TO.C,Y1*%
X88900000Y-72322000D03*
X88900000Y-63822000D03*
%TD*%
D23*
%TO.C,Q8*%
X108322000Y-111754000D03*
D24*
X114622000Y-109474000D03*
D23*
X108322000Y-107194000D03*
%TD*%
D18*
%TO.C,TP2*%
X107442000Y-51181000D03*
%TD*%
D25*
%TO.C,U2*%
X105918000Y-72087000D03*
X104648000Y-72087000D03*
X103378000Y-72087000D03*
X102108000Y-72087000D03*
X100838000Y-72087000D03*
X99568000Y-72087000D03*
X98298000Y-72087000D03*
X97028000Y-72087000D03*
X95758000Y-72087000D03*
X95758000Y-62787000D03*
X97028000Y-62787000D03*
X98298000Y-62787000D03*
X99568000Y-62787000D03*
X100838000Y-62787000D03*
X102108000Y-62787000D03*
X103378000Y-62787000D03*
X104648000Y-62787000D03*
X105918000Y-62787000D03*
%TD*%
D15*
%TO.C,Q2*%
X128826500Y-84328000D03*
X126951500Y-85278000D03*
X126951500Y-83378000D03*
%TD*%
D26*
%TO.C,C4*%
X92583000Y-63780500D03*
X92583000Y-65505500D03*
%TD*%
D27*
%TO.C,R13*%
X102870000Y-108474000D03*
X102870000Y-110474000D03*
%TD*%
D14*
%TO.C,R45*%
X134096000Y-162560000D03*
X132096000Y-162560000D03*
%TD*%
D28*
%TO.C,Q11*%
X139059000Y-113801000D03*
D29*
X136779000Y-107501000D03*
D28*
X134499000Y-113801000D03*
%TD*%
D19*
%TO.C,D16*%
X142757000Y-164465000D03*
X140707000Y-164465000D03*
%TD*%
D30*
%TO.C,R5*%
X103124000Y-84947000D03*
X103124000Y-82947000D03*
%TD*%
D28*
%TO.C,D2*%
X138805000Y-80273000D03*
D29*
X136525000Y-73973000D03*
D28*
X134245000Y-80273000D03*
%TD*%
D18*
%TO.C,TP1*%
X89281000Y-51181000D03*
%TD*%
D23*
%TO.C,Q9*%
X102498000Y-94748000D03*
D24*
X96198000Y-97028000D03*
D23*
X102498000Y-99308000D03*
%TD*%
D31*
%TO.C,D4*%
X105410000Y-108332000D03*
X105410000Y-111632000D03*
%TD*%
D32*
%TO.C,F3*%
X89288000Y-137336000D03*
X89288000Y-133936000D03*
X79368000Y-137336000D03*
X79368000Y-133936000D03*
%TD*%
D18*
%TO.C,TP5*%
X119126000Y-51181000D03*
%TD*%
D27*
%TO.C,R12*%
X102870000Y-89043000D03*
X102870000Y-91043000D03*
%TD*%
D14*
%TO.C,R1*%
X153908000Y-56642000D03*
X151908000Y-56642000D03*
%TD*%
D33*
%TO.C,D3*%
X126619000Y-69249000D03*
X126619000Y-67149000D03*
%TD*%
D15*
%TO.C,Q20*%
X99743500Y-145288000D03*
X97868500Y-146238000D03*
X97868500Y-144338000D03*
%TD*%
D14*
%TO.C,R29*%
X109585000Y-156718000D03*
X107585000Y-156718000D03*
%TD*%
D31*
%TO.C,D8*%
X105664000Y-127382000D03*
X105664000Y-130682000D03*
%TD*%
D17*
%TO.C,R35*%
X123587000Y-160528000D03*
X125587000Y-160528000D03*
%TD*%
D28*
%TO.C,Q17*%
X134626000Y-131182000D03*
D29*
X136906000Y-137482000D03*
D28*
X139186000Y-131182000D03*
%TD*%
D23*
%TO.C,Q15*%
X102498000Y-114052000D03*
D24*
X96198000Y-116332000D03*
D23*
X102498000Y-118612000D03*
%TD*%
D34*
%TO.C,R26*%
X124396000Y-129286000D03*
D35*
X122946000Y-131336000D03*
X121846000Y-131336000D03*
D34*
X120396000Y-129286000D03*
%TD*%
D19*
%TO.C,D13*%
X125612000Y-164592000D03*
X123562000Y-164592000D03*
%TD*%
D36*
%TO.C,H1*%
X79834003Y-50340997D03*
%TD*%
D14*
%TO.C,R22*%
X109585000Y-117856000D03*
X107585000Y-117856000D03*
%TD*%
D18*
%TO.C,TP12*%
X131445000Y-80518000D03*
%TD*%
D27*
%TO.C,R7*%
X124358400Y-61941200D03*
X124358400Y-63941200D03*
%TD*%
D37*
%TO.C,C1*%
X126238000Y-52812000D03*
X126238000Y-50312000D03*
%TD*%
D38*
%TO.C,C2*%
X78210500Y-64516000D03*
X80285500Y-64516000D03*
%TD*%
D23*
%TO.C,Q18*%
X108322000Y-150108000D03*
D24*
X114622000Y-147828000D03*
D23*
X108322000Y-145548000D03*
%TD*%
D27*
%TO.C,R23*%
X103124000Y-127524000D03*
X103124000Y-129524000D03*
%TD*%
D14*
%TO.C,R27*%
X125460000Y-118872000D03*
X123460000Y-118872000D03*
%TD*%
D17*
%TO.C,R42*%
X140732000Y-160401000D03*
X142732000Y-160401000D03*
%TD*%
D18*
%TO.C,TP19*%
X111125000Y-103378000D03*
%TD*%
D39*
%TO.C,C7*%
X136398000Y-55096500D03*
X136398000Y-57171500D03*
%TD*%
D14*
%TO.C,R36*%
X121269000Y-156719092D03*
X119269000Y-156719092D03*
%TD*%
D18*
%TO.C,TP30*%
X109855000Y-161544000D03*
%TD*%
%TO.C,TP33*%
X131572000Y-141986000D03*
%TD*%
D40*
%TO.C,J1*%
X86442000Y-38569000D03*
X90642000Y-38569000D03*
X94842000Y-38569000D03*
X99042000Y-38569000D03*
X103242000Y-38569000D03*
X107442000Y-38569000D03*
X86442000Y-44069000D03*
X90642000Y-44069000D03*
X94842000Y-44069000D03*
X99042000Y-44069000D03*
X103242000Y-44069000D03*
D41*
X107442000Y-44069000D03*
%TD*%
D42*
%TO.C,C8*%
X114109100Y-62738000D03*
X117234100Y-62738000D03*
%TD*%
D18*
%TO.C,TP3*%
X103505000Y-51181000D03*
%TD*%
D32*
%TO.C,F1*%
X89288000Y-98728000D03*
X89288000Y-95328000D03*
X79368000Y-98728000D03*
X79368000Y-95328000D03*
%TD*%
D17*
%TO.C,R4*%
X96536000Y-84074000D03*
X98536000Y-84074000D03*
%TD*%
D18*
%TO.C,TP11*%
X109982000Y-84455000D03*
%TD*%
D43*
%TO.C,U1*%
X131572000Y-50825000D03*
D44*
X133872000Y-57125000D03*
X131572000Y-57125000D03*
X129272000Y-57125000D03*
%TD*%
D17*
%TO.C,R34*%
X119269000Y-140970000D03*
X121269000Y-140970000D03*
%TD*%
D20*
%TO.C,J15*%
X144946000Y-155880000D03*
%TD*%
D31*
%TO.C,D11*%
X105283000Y-159638000D03*
X105283000Y-156338000D03*
%TD*%
D18*
%TO.C,TP17*%
X108077000Y-103378000D03*
%TD*%
D16*
%TO.C,TH2*%
X117599800Y-134724592D03*
X117599800Y-136549592D03*
%TD*%
D40*
%TO.C,J2*%
X114518000Y-38569000D03*
X118718000Y-38569000D03*
X122918000Y-38569000D03*
X127118000Y-38569000D03*
X131318000Y-38569000D03*
X114518000Y-44069000D03*
X118718000Y-44069000D03*
X122918000Y-44069000D03*
X127118000Y-44069000D03*
D41*
X131318000Y-44069000D03*
%TD*%
D17*
%TO.C,R17*%
X119777000Y-102616000D03*
X121777000Y-102616000D03*
%TD*%
D18*
%TO.C,TP28*%
X112522000Y-141478000D03*
%TD*%
D27*
%TO.C,R6*%
X120954800Y-61890400D03*
X120954800Y-63890400D03*
%TD*%
D36*
%TO.C,H4*%
X152986003Y-162100997D03*
%TD*%
D45*
%TO.C,C6*%
X109093000Y-69176500D03*
X109093000Y-72301500D03*
%TD*%
D27*
%TO.C,R2*%
X100838000Y-82947000D03*
X100838000Y-84947000D03*
%TD*%
D20*
%TO.C,J9*%
X144946000Y-94920000D03*
%TD*%
D23*
%TO.C,Q19*%
X102498000Y-152660000D03*
D24*
X96198000Y-154940000D03*
D23*
X102498000Y-157220000D03*
%TD*%
D17*
%TO.C,R24*%
X97806000Y-129032000D03*
X99806000Y-129032000D03*
%TD*%
D15*
%TO.C,Q4*%
X120698500Y-84328000D03*
X118823500Y-85278000D03*
X118823500Y-83378000D03*
%TD*%
D17*
%TO.C,R33*%
X132096000Y-160528000D03*
X134096000Y-160528000D03*
%TD*%
D27*
%TO.C,R11*%
X100838000Y-104029000D03*
X100838000Y-106029000D03*
%TD*%
D19*
%TO.C,D15*%
X134121000Y-164592000D03*
X132071000Y-164592000D03*
%TD*%
D46*
%TO.C,Q1*%
X78056500Y-67564000D03*
X79931500Y-66614000D03*
X79931500Y-68514000D03*
%TD*%
D14*
%TO.C,R38*%
X125079000Y-156719092D03*
X123079000Y-156719092D03*
%TD*%
%TO.C,R44*%
X125587000Y-162560000D03*
X123587000Y-162560000D03*
%TD*%
D18*
%TO.C,TP13*%
X116205000Y-84455000D03*
%TD*%
D28*
%TO.C,Q12*%
X134499000Y-94098000D03*
D29*
X136779000Y-100398000D03*
D28*
X139059000Y-94098000D03*
%TD*%
D47*
%TO.C,J4*%
X146309000Y-56642000D03*
D48*
X148849000Y-56642000D03*
%TD*%
D18*
%TO.C,TP24*%
X103378000Y-143510000D03*
%TD*%
%TO.C,TP31*%
X129667000Y-156464000D03*
%TD*%
D49*
%TO.C,D1*%
X131252000Y-59944000D03*
X134432000Y-59944000D03*
%TD*%
D15*
%TO.C,Q5*%
X124762500Y-84328000D03*
X122887500Y-85278000D03*
X122887500Y-83378000D03*
%TD*%
D18*
%TO.C,TP27*%
X129667000Y-119126000D03*
%TD*%
%TO.C,TP29*%
X108966000Y-141478000D03*
%TD*%
D21*
%TO.C,U11*%
X124501000Y-152670000D03*
X124501000Y-153170000D03*
X124501000Y-153670000D03*
X124501000Y-154170000D03*
X124501000Y-154670000D03*
X120101000Y-154670000D03*
X120101000Y-154170000D03*
X120101000Y-153670000D03*
X120101000Y-153170000D03*
X120101000Y-152670000D03*
%TD*%
D27*
%TO.C,R28*%
X103251000Y-146828000D03*
X103251000Y-148828000D03*
%TD*%
D14*
%TO.C,R19*%
X121427198Y-99314000D03*
X119427198Y-99314000D03*
%TD*%
D50*
%TO.C,C9*%
X130302000Y-75924500D03*
X130302000Y-71649500D03*
%TD*%
D18*
%TO.C,TP18*%
X117221000Y-103378000D03*
%TD*%
D51*
%TO.C,C5*%
X92583000Y-71220500D03*
X92583000Y-69495500D03*
%TD*%
D20*
%TO.C,J12*%
X144946000Y-131496000D03*
%TD*%
D18*
%TO.C,TP14*%
X138684000Y-83947000D03*
%TD*%
%TO.C,TP23*%
X112395000Y-122428000D03*
%TD*%
D20*
%TO.C,J13*%
X144946000Y-119304000D03*
%TD*%
D18*
%TO.C,TP9*%
X106934000Y-84455000D03*
%TD*%
D15*
%TO.C,Q16*%
X99743500Y-126111000D03*
X97868500Y-127061000D03*
X97868500Y-125161000D03*
%TD*%
D17*
%TO.C,R32*%
X97806000Y-148209000D03*
X99806000Y-148209000D03*
%TD*%
D18*
%TO.C,TP16*%
X114173000Y-103378000D03*
%TD*%
D20*
%TO.C,J10*%
X144946000Y-107112000D03*
%TD*%
D36*
%TO.C,H2*%
X152986003Y-50340997D03*
%TD*%
D52*
%TO.C,U5*%
X131191000Y-68036000D03*
X133731000Y-68036000D03*
D53*
X136271000Y-68036000D03*
%TD*%
D34*
%TO.C,R39*%
X124301000Y-148844000D03*
D35*
X122851000Y-150894000D03*
X121751000Y-150894000D03*
D34*
X120301000Y-148844000D03*
%TD*%
D32*
%TO.C,F4*%
X89288000Y-156640000D03*
X89288000Y-153240000D03*
X79368000Y-156640000D03*
X79368000Y-153240000D03*
%TD*%
D42*
%TO.C,C3*%
X78066500Y-62103000D03*
X81191500Y-62103000D03*
%TD*%
D21*
%TO.C,U8*%
X124374000Y-114316000D03*
X124374000Y-114816000D03*
X124374000Y-115316000D03*
X124374000Y-115816000D03*
X124374000Y-116316000D03*
X119974000Y-116316000D03*
X119974000Y-115816000D03*
X119974000Y-115316000D03*
X119974000Y-114816000D03*
X119974000Y-114316000D03*
%TD*%
D36*
%TO.C,H3*%
X79834003Y-162100997D03*
%TD*%
D14*
%TO.C,R46*%
X142732000Y-162433000D03*
X140732000Y-162433000D03*
%TD*%
D17*
%TO.C,R21*%
X97806000Y-123190000D03*
X99806000Y-123190000D03*
%TD*%
D14*
%TO.C,R43*%
X117332000Y-162560000D03*
X115332000Y-162560000D03*
%TD*%
D54*
%TO.C,U4*%
X113538000Y-65724000D03*
X114808000Y-65724000D03*
X116078000Y-65724000D03*
X117348000Y-65724000D03*
X117348000Y-70674000D03*
X116078000Y-70674000D03*
X114808000Y-70674000D03*
X113538000Y-70674000D03*
%TD*%
D17*
%TO.C,R15*%
X96536000Y-104038400D03*
X98536000Y-104038400D03*
%TD*%
D18*
%TO.C,TP20*%
X131572000Y-104140000D03*
%TD*%
D55*
%TO.C,J6*%
X144407000Y-81255124D03*
X152606999Y-81255124D03*
X144407000Y-76255124D03*
X152606999Y-76255124D03*
%TD*%
D30*
%TO.C,R3*%
X109093000Y-64627000D03*
X109093000Y-62627000D03*
%TD*%
%TO.C,R14*%
X102997000Y-106029000D03*
X102997000Y-104029000D03*
%TD*%
D31*
%TO.C,D9*%
X105283000Y-120903000D03*
X105283000Y-117603000D03*
%TD*%
D16*
%TO.C,TH3*%
X117534690Y-115928592D03*
X117534690Y-117753592D03*
%TD*%
D18*
%TO.C,TP7*%
X155575000Y-39624000D03*
%TD*%
D55*
%TO.C,J5*%
X144407000Y-68047124D03*
X152606999Y-68047124D03*
X144407000Y-63047124D03*
X152606999Y-63047124D03*
%TD*%
D20*
%TO.C,J7*%
X79414000Y-110160000D03*
%TD*%
D56*
%TO.C,U3*%
X75844400Y-58206791D03*
D47*
X75844400Y-59106791D03*
D56*
X78384400Y-58206791D03*
D47*
X78384400Y-59106791D03*
D56*
X80924400Y-58206791D03*
D48*
X80924400Y-59106791D03*
D56*
X83464400Y-58206791D03*
D47*
X83464400Y-59106791D03*
D56*
X86004400Y-58206791D03*
D47*
X86004400Y-59106791D03*
D56*
X88544400Y-58206791D03*
D47*
X88544400Y-59106791D03*
D56*
X91084400Y-58206791D03*
D47*
X91084400Y-59106791D03*
D56*
X93624400Y-58206791D03*
D48*
X93624400Y-59106791D03*
D56*
X96164400Y-58206791D03*
D47*
X96164400Y-59106791D03*
D56*
X98704400Y-58206791D03*
D47*
X98704400Y-59106791D03*
D56*
X101244400Y-58206791D03*
D47*
X101244400Y-59106791D03*
D56*
X103784400Y-58206791D03*
D47*
X103784400Y-59106791D03*
D56*
X106324400Y-58206791D03*
D48*
X106324400Y-59106791D03*
D56*
X108864400Y-58206791D03*
D47*
X108864400Y-59106791D03*
D56*
X111404400Y-58206791D03*
D47*
X111404400Y-59106791D03*
D56*
X113944400Y-58206791D03*
D47*
X113944400Y-59106791D03*
D56*
X116484400Y-58206791D03*
D47*
X116484400Y-59106791D03*
D56*
X119024400Y-58206791D03*
D48*
X119024400Y-59106791D03*
D56*
X121564400Y-58206791D03*
D47*
X121564400Y-59106791D03*
D56*
X124104400Y-58206791D03*
D47*
X124104400Y-59106791D03*
D56*
X124104400Y-77786791D03*
D47*
X124104400Y-76886791D03*
D56*
X121564400Y-77786791D03*
D47*
X121564400Y-76886791D03*
D56*
X119024400Y-77786791D03*
D48*
X119024400Y-76886791D03*
D56*
X116484400Y-77786791D03*
D47*
X116484400Y-76886791D03*
D56*
X113944400Y-77786791D03*
D47*
X113944400Y-76886791D03*
D56*
X111404400Y-77786791D03*
D47*
X111404400Y-76886791D03*
D56*
X108864400Y-77786791D03*
D47*
X108864400Y-76886791D03*
D56*
X106324400Y-77786791D03*
D48*
X106324400Y-76886791D03*
D56*
X103784400Y-77786791D03*
D47*
X103784400Y-76886791D03*
D56*
X101244400Y-77786791D03*
D47*
X101244400Y-76886791D03*
D56*
X98704400Y-77786791D03*
D47*
X98704400Y-76886791D03*
D56*
X96164400Y-77786791D03*
D47*
X96164400Y-76886791D03*
D56*
X93624400Y-77786791D03*
D48*
X93624400Y-76886791D03*
D56*
X91084400Y-77786791D03*
D47*
X91084400Y-76886791D03*
D56*
X88544400Y-77786791D03*
D47*
X88544400Y-76886791D03*
D56*
X86004400Y-77786791D03*
D47*
X86004400Y-76886791D03*
D56*
X83464400Y-77786791D03*
D47*
X83464400Y-76886791D03*
D56*
X80924400Y-77786791D03*
D48*
X80924400Y-76886791D03*
D56*
X78384400Y-77786791D03*
D47*
X78384400Y-76886791D03*
D56*
X75844400Y-77786791D03*
D47*
X75844400Y-76886791D03*
%TD*%
D14*
%TO.C,R41*%
X125203800Y-137161092D03*
X123203800Y-137161092D03*
%TD*%
D31*
%TO.C,D6*%
X105283000Y-88901000D03*
X105283000Y-92201000D03*
%TD*%
D14*
%TO.C,R40*%
X121396000Y-137160000D03*
X119396000Y-137160000D03*
%TD*%
D20*
%TO.C,J11*%
X79414000Y-129464000D03*
%TD*%
%TO.C,J8*%
X79414000Y-90856000D03*
%TD*%
D28*
%TO.C,Q21*%
X139186000Y-150758000D03*
D29*
X136906000Y-144458000D03*
D28*
X134626000Y-150758000D03*
%TD*%
D23*
%TO.C,Q13*%
X108322000Y-130804000D03*
D24*
X114622000Y-128524000D03*
D23*
X108322000Y-126244000D03*
%TD*%
%TO.C,Q14*%
X102498000Y-133356000D03*
D24*
X96198000Y-135636000D03*
D23*
X102498000Y-137916000D03*
%TD*%
D18*
%TO.C,TP4*%
X111379000Y-51181000D03*
%TD*%
D57*
%TO.C,J3*%
X139207000Y-40782000D03*
X144907000Y-40782000D03*
X139207000Y-46482000D03*
D58*
X144907000Y-46482000D03*
D20*
X136727000Y-38012000D03*
%TD*%
D17*
%TO.C,R31*%
X97806000Y-142367000D03*
X99806000Y-142367000D03*
%TD*%
D34*
%TO.C,R18*%
X124174000Y-110490000D03*
D35*
X122724000Y-112540000D03*
X121624000Y-112540000D03*
D34*
X120174000Y-110490000D03*
%TD*%
D17*
%TO.C,R9*%
X96647000Y-90043000D03*
X98647000Y-90043000D03*
%TD*%
D18*
%TO.C,TP32*%
X116332000Y-141478000D03*
%TD*%
D31*
%TO.C,D7*%
X105283000Y-101345000D03*
X105283000Y-98045000D03*
%TD*%
D18*
%TO.C,TP8*%
X155448000Y-43815000D03*
%TD*%
%TO.C,TP21*%
X129667000Y-92710000D03*
%TD*%
D20*
%TO.C,J16*%
X144946000Y-143688000D03*
%TD*%
D34*
%TO.C,R20*%
X124167244Y-91043760D03*
D35*
X122717244Y-93093760D03*
X121617244Y-93093760D03*
D34*
X120167244Y-91043760D03*
%TD*%
D18*
%TO.C,TP10*%
X113157000Y-84455000D03*
%TD*%
D31*
%TO.C,D10*%
X105283000Y-140334000D03*
X105283000Y-137034000D03*
%TD*%
D14*
%TO.C,R25*%
X121523000Y-118872000D03*
X119523000Y-118872000D03*
%TD*%
D21*
%TO.C,U9*%
X124596000Y-133112000D03*
X124596000Y-133612000D03*
X124596000Y-134112000D03*
X124596000Y-134612000D03*
X124596000Y-135112000D03*
X120196000Y-135112000D03*
X120196000Y-134612000D03*
X120196000Y-134112000D03*
X120196000Y-133612000D03*
X120196000Y-133112000D03*
%TD*%
D31*
%TO.C,D12*%
X105664000Y-146686000D03*
X105664000Y-149986000D03*
%TD*%
D18*
%TO.C,TP15*%
X135763000Y-83947000D03*
%TD*%
D32*
%TO.C,F2*%
X89288000Y-118032000D03*
X89288000Y-114632000D03*
X79368000Y-118032000D03*
X79368000Y-114632000D03*
%TD*%
D15*
%TO.C,Q10*%
X98473500Y-106934000D03*
X96598500Y-107884000D03*
X96598500Y-105984000D03*
%TD*%
D23*
%TO.C,Q7*%
X108322000Y-92323000D03*
D24*
X114622000Y-90043000D03*
D23*
X108322000Y-87763000D03*
%TD*%
D14*
%TO.C,R16*%
X125333000Y-99314000D03*
X123333000Y-99314000D03*
%TD*%
M02*
