%TF.GenerationSoftware,KiCad,Pcbnew,7.0.2*%
%TF.CreationDate,2023-09-23T20:32:53-04:00*%
%TF.ProjectId,Battery_Monitor_1.2,42617474-6572-4795-9f4d-6f6e69746f72,rev?*%
%TF.SameCoordinates,Original*%
%TF.FileFunction,Copper,L3,Inr*%
%TF.FilePolarity,Positive*%
%FSLAX46Y46*%
G04 Gerber Fmt 4.6, Leading zero omitted, Abs format (unit mm)*
G04 Created by KiCad (PCBNEW 7.0.2) date 2023-09-23 20:32:53*
%MOMM*%
%LPD*%
G01*
G04 APERTURE LIST*
G04 Aperture macros list*
%AMRoundRect*
0 Rectangle with rounded corners*
0 $1 Rounding radius*
0 $2 $3 $4 $5 $6 $7 $8 $9 X,Y pos of 4 corners*
0 Add a 4 corners polygon primitive as box body*
4,1,4,$2,$3,$4,$5,$6,$7,$8,$9,$2,$3,0*
0 Add four circle primitives for the rounded corners*
1,1,$1+$1,$2,$3*
1,1,$1+$1,$4,$5*
1,1,$1+$1,$6,$7*
1,1,$1+$1,$8,$9*
0 Add four rect primitives between the rounded corners*
20,1,$1+$1,$2,$3,$4,$5,0*
20,1,$1+$1,$4,$5,$6,$7,0*
20,1,$1+$1,$6,$7,$8,$9,0*
20,1,$1+$1,$8,$9,$2,$3,0*%
G04 Aperture macros list end*
%ADD10C,0.150000*%
%TA.AperFunction,NonConductor*%
%ADD11C,0.150000*%
%TD*%
%TA.AperFunction,ComponentPad*%
%ADD12R,1.500000X1.500000*%
%TD*%
%TA.AperFunction,ComponentPad*%
%ADD13C,2.300000*%
%TD*%
%TA.AperFunction,ComponentPad*%
%ADD14R,2.300000X2.300000*%
%TD*%
%TA.AperFunction,ComponentPad*%
%ADD15C,2.400000*%
%TD*%
%TA.AperFunction,ComponentPad*%
%ADD16C,5.600000*%
%TD*%
%TA.AperFunction,ComponentPad*%
%ADD17O,2.700000X3.300000*%
%TD*%
%TA.AperFunction,ComponentPad*%
%ADD18RoundRect,0.250001X1.099999X1.399999X-1.099999X1.399999X-1.099999X-1.399999X1.099999X-1.399999X0*%
%TD*%
%TA.AperFunction,ComponentPad*%
%ADD19O,1.700000X1.700000*%
%TD*%
%TA.AperFunction,ComponentPad*%
%ADD20R,1.700000X1.700000*%
%TD*%
%TA.AperFunction,ComponentPad*%
%ADD21C,1.508000*%
%TD*%
%TA.AperFunction,ComponentPad*%
%ADD22R,1.508000X1.508000*%
%TD*%
%TA.AperFunction,ComponentPad*%
%ADD23C,1.803400*%
%TD*%
%TA.AperFunction,ComponentPad*%
%ADD24C,3.700000*%
%TD*%
%TA.AperFunction,ComponentPad*%
%ADD25RoundRect,0.250002X1.599998X1.599998X-1.599998X1.599998X-1.599998X-1.599998X1.599998X-1.599998X0*%
%TD*%
%TA.AperFunction,ViaPad*%
%ADD26C,0.800000*%
%TD*%
%TA.AperFunction,Conductor*%
%ADD27C,0.250000*%
%TD*%
G04 APERTURE END LIST*
D10*
D11*
X90305428Y-161549464D02*
X90484000Y-162299464D01*
X90484000Y-162299464D02*
X90626857Y-161763750D01*
X90626857Y-161763750D02*
X90769714Y-162299464D01*
X90769714Y-162299464D02*
X90948286Y-161549464D01*
X91234000Y-162299464D02*
X91234000Y-161549464D01*
X91555429Y-162299464D02*
X91555429Y-161906607D01*
X91555429Y-161906607D02*
X91519714Y-161835178D01*
X91519714Y-161835178D02*
X91448286Y-161799464D01*
X91448286Y-161799464D02*
X91341143Y-161799464D01*
X91341143Y-161799464D02*
X91269714Y-161835178D01*
X91269714Y-161835178D02*
X91234000Y-161870892D01*
X92234000Y-162299464D02*
X92234000Y-161906607D01*
X92234000Y-161906607D02*
X92198285Y-161835178D01*
X92198285Y-161835178D02*
X92126857Y-161799464D01*
X92126857Y-161799464D02*
X91984000Y-161799464D01*
X91984000Y-161799464D02*
X91912571Y-161835178D01*
X92234000Y-162263750D02*
X92162571Y-162299464D01*
X92162571Y-162299464D02*
X91984000Y-162299464D01*
X91984000Y-162299464D02*
X91912571Y-162263750D01*
X91912571Y-162263750D02*
X91876857Y-162192321D01*
X91876857Y-162192321D02*
X91876857Y-162120892D01*
X91876857Y-162120892D02*
X91912571Y-162049464D01*
X91912571Y-162049464D02*
X91984000Y-162013750D01*
X91984000Y-162013750D02*
X92162571Y-162013750D01*
X92162571Y-162013750D02*
X92234000Y-161978035D01*
X92483999Y-161799464D02*
X92769713Y-161799464D01*
X92591142Y-161549464D02*
X92591142Y-162192321D01*
X92591142Y-162192321D02*
X92626856Y-162263750D01*
X92626856Y-162263750D02*
X92698285Y-162299464D01*
X92698285Y-162299464D02*
X92769713Y-162299464D01*
X93912571Y-162299464D02*
X93912571Y-161906607D01*
X93912571Y-161906607D02*
X93876856Y-161835178D01*
X93876856Y-161835178D02*
X93805428Y-161799464D01*
X93805428Y-161799464D02*
X93662571Y-161799464D01*
X93662571Y-161799464D02*
X93591142Y-161835178D01*
X93912571Y-162263750D02*
X93841142Y-162299464D01*
X93841142Y-162299464D02*
X93662571Y-162299464D01*
X93662571Y-162299464D02*
X93591142Y-162263750D01*
X93591142Y-162263750D02*
X93555428Y-162192321D01*
X93555428Y-162192321D02*
X93555428Y-162120892D01*
X93555428Y-162120892D02*
X93591142Y-162049464D01*
X93591142Y-162049464D02*
X93662571Y-162013750D01*
X93662571Y-162013750D02*
X93841142Y-162013750D01*
X93841142Y-162013750D02*
X93912571Y-161978035D01*
X94269713Y-162299464D02*
X94269713Y-161799464D01*
X94269713Y-161942321D02*
X94305427Y-161870892D01*
X94305427Y-161870892D02*
X94341142Y-161835178D01*
X94341142Y-161835178D02*
X94412570Y-161799464D01*
X94412570Y-161799464D02*
X94483999Y-161799464D01*
X95019713Y-162263750D02*
X94948285Y-162299464D01*
X94948285Y-162299464D02*
X94805428Y-162299464D01*
X94805428Y-162299464D02*
X94733999Y-162263750D01*
X94733999Y-162263750D02*
X94698285Y-162192321D01*
X94698285Y-162192321D02*
X94698285Y-161906607D01*
X94698285Y-161906607D02*
X94733999Y-161835178D01*
X94733999Y-161835178D02*
X94805428Y-161799464D01*
X94805428Y-161799464D02*
X94948285Y-161799464D01*
X94948285Y-161799464D02*
X95019713Y-161835178D01*
X95019713Y-161835178D02*
X95055428Y-161906607D01*
X95055428Y-161906607D02*
X95055428Y-161978035D01*
X95055428Y-161978035D02*
X94698285Y-162049464D01*
X95876856Y-161799464D02*
X96055428Y-162299464D01*
X96233999Y-161799464D02*
X96055428Y-162299464D01*
X96055428Y-162299464D02*
X95983999Y-162478035D01*
X95983999Y-162478035D02*
X95948285Y-162513750D01*
X95948285Y-162513750D02*
X95876856Y-162549464D01*
X96626857Y-162299464D02*
X96555428Y-162263750D01*
X96555428Y-162263750D02*
X96519714Y-162228035D01*
X96519714Y-162228035D02*
X96484000Y-162156607D01*
X96484000Y-162156607D02*
X96484000Y-161942321D01*
X96484000Y-161942321D02*
X96519714Y-161870892D01*
X96519714Y-161870892D02*
X96555428Y-161835178D01*
X96555428Y-161835178D02*
X96626857Y-161799464D01*
X96626857Y-161799464D02*
X96734000Y-161799464D01*
X96734000Y-161799464D02*
X96805428Y-161835178D01*
X96805428Y-161835178D02*
X96841143Y-161870892D01*
X96841143Y-161870892D02*
X96876857Y-161942321D01*
X96876857Y-161942321D02*
X96876857Y-162156607D01*
X96876857Y-162156607D02*
X96841143Y-162228035D01*
X96841143Y-162228035D02*
X96805428Y-162263750D01*
X96805428Y-162263750D02*
X96734000Y-162299464D01*
X96734000Y-162299464D02*
X96626857Y-162299464D01*
X97519714Y-161799464D02*
X97519714Y-162299464D01*
X97198285Y-161799464D02*
X97198285Y-162192321D01*
X97198285Y-162192321D02*
X97233999Y-162263750D01*
X97233999Y-162263750D02*
X97305428Y-162299464D01*
X97305428Y-162299464D02*
X97412571Y-162299464D01*
X97412571Y-162299464D02*
X97483999Y-162263750D01*
X97483999Y-162263750D02*
X97519714Y-162228035D01*
X90573287Y-163514464D02*
X90573287Y-162764464D01*
X90573287Y-163478750D02*
X90501858Y-163514464D01*
X90501858Y-163514464D02*
X90359001Y-163514464D01*
X90359001Y-163514464D02*
X90287572Y-163478750D01*
X90287572Y-163478750D02*
X90251858Y-163443035D01*
X90251858Y-163443035D02*
X90216144Y-163371607D01*
X90216144Y-163371607D02*
X90216144Y-163157321D01*
X90216144Y-163157321D02*
X90251858Y-163085892D01*
X90251858Y-163085892D02*
X90287572Y-163050178D01*
X90287572Y-163050178D02*
X90359001Y-163014464D01*
X90359001Y-163014464D02*
X90501858Y-163014464D01*
X90501858Y-163014464D02*
X90573287Y-163050178D01*
X91037572Y-163514464D02*
X90966143Y-163478750D01*
X90966143Y-163478750D02*
X90930429Y-163443035D01*
X90930429Y-163443035D02*
X90894715Y-163371607D01*
X90894715Y-163371607D02*
X90894715Y-163157321D01*
X90894715Y-163157321D02*
X90930429Y-163085892D01*
X90930429Y-163085892D02*
X90966143Y-163050178D01*
X90966143Y-163050178D02*
X91037572Y-163014464D01*
X91037572Y-163014464D02*
X91144715Y-163014464D01*
X91144715Y-163014464D02*
X91216143Y-163050178D01*
X91216143Y-163050178D02*
X91251858Y-163085892D01*
X91251858Y-163085892D02*
X91287572Y-163157321D01*
X91287572Y-163157321D02*
X91287572Y-163371607D01*
X91287572Y-163371607D02*
X91251858Y-163443035D01*
X91251858Y-163443035D02*
X91216143Y-163478750D01*
X91216143Y-163478750D02*
X91144715Y-163514464D01*
X91144715Y-163514464D02*
X91037572Y-163514464D01*
X91609000Y-163514464D02*
X91609000Y-163014464D01*
X91609000Y-162764464D02*
X91573286Y-162800178D01*
X91573286Y-162800178D02*
X91609000Y-162835892D01*
X91609000Y-162835892D02*
X91644714Y-162800178D01*
X91644714Y-162800178D02*
X91609000Y-162764464D01*
X91609000Y-162764464D02*
X91609000Y-162835892D01*
X91966143Y-163014464D02*
X91966143Y-163514464D01*
X91966143Y-163085892D02*
X92001857Y-163050178D01*
X92001857Y-163050178D02*
X92073286Y-163014464D01*
X92073286Y-163014464D02*
X92180429Y-163014464D01*
X92180429Y-163014464D02*
X92251857Y-163050178D01*
X92251857Y-163050178D02*
X92287572Y-163121607D01*
X92287572Y-163121607D02*
X92287572Y-163514464D01*
X92966143Y-163014464D02*
X92966143Y-163621607D01*
X92966143Y-163621607D02*
X92930428Y-163693035D01*
X92930428Y-163693035D02*
X92894714Y-163728750D01*
X92894714Y-163728750D02*
X92823285Y-163764464D01*
X92823285Y-163764464D02*
X92716143Y-163764464D01*
X92716143Y-163764464D02*
X92644714Y-163728750D01*
X92966143Y-163478750D02*
X92894714Y-163514464D01*
X92894714Y-163514464D02*
X92751857Y-163514464D01*
X92751857Y-163514464D02*
X92680428Y-163478750D01*
X92680428Y-163478750D02*
X92644714Y-163443035D01*
X92644714Y-163443035D02*
X92609000Y-163371607D01*
X92609000Y-163371607D02*
X92609000Y-163157321D01*
X92609000Y-163157321D02*
X92644714Y-163085892D01*
X92644714Y-163085892D02*
X92680428Y-163050178D01*
X92680428Y-163050178D02*
X92751857Y-163014464D01*
X92751857Y-163014464D02*
X92894714Y-163014464D01*
X92894714Y-163014464D02*
X92966143Y-163050178D01*
X93894714Y-163514464D02*
X93894714Y-163014464D01*
X93894714Y-162764464D02*
X93859000Y-162800178D01*
X93859000Y-162800178D02*
X93894714Y-162835892D01*
X93894714Y-162835892D02*
X93930428Y-162800178D01*
X93930428Y-162800178D02*
X93894714Y-162764464D01*
X93894714Y-162764464D02*
X93894714Y-162835892D01*
X94251857Y-163014464D02*
X94251857Y-163514464D01*
X94251857Y-163085892D02*
X94287571Y-163050178D01*
X94287571Y-163050178D02*
X94359000Y-163014464D01*
X94359000Y-163014464D02*
X94466143Y-163014464D01*
X94466143Y-163014464D02*
X94537571Y-163050178D01*
X94537571Y-163050178D02*
X94573286Y-163121607D01*
X94573286Y-163121607D02*
X94573286Y-163514464D01*
X95501857Y-163514464D02*
X95501857Y-162764464D01*
X95823286Y-163514464D02*
X95823286Y-163121607D01*
X95823286Y-163121607D02*
X95787571Y-163050178D01*
X95787571Y-163050178D02*
X95716143Y-163014464D01*
X95716143Y-163014464D02*
X95609000Y-163014464D01*
X95609000Y-163014464D02*
X95537571Y-163050178D01*
X95537571Y-163050178D02*
X95501857Y-163085892D01*
X96466142Y-163478750D02*
X96394714Y-163514464D01*
X96394714Y-163514464D02*
X96251857Y-163514464D01*
X96251857Y-163514464D02*
X96180428Y-163478750D01*
X96180428Y-163478750D02*
X96144714Y-163407321D01*
X96144714Y-163407321D02*
X96144714Y-163121607D01*
X96144714Y-163121607D02*
X96180428Y-163050178D01*
X96180428Y-163050178D02*
X96251857Y-163014464D01*
X96251857Y-163014464D02*
X96394714Y-163014464D01*
X96394714Y-163014464D02*
X96466142Y-163050178D01*
X96466142Y-163050178D02*
X96501857Y-163121607D01*
X96501857Y-163121607D02*
X96501857Y-163193035D01*
X96501857Y-163193035D02*
X96144714Y-163264464D01*
X96823285Y-163514464D02*
X96823285Y-163014464D01*
X96823285Y-163157321D02*
X96858999Y-163085892D01*
X96858999Y-163085892D02*
X96894714Y-163050178D01*
X96894714Y-163050178D02*
X96966142Y-163014464D01*
X96966142Y-163014464D02*
X97037571Y-163014464D01*
X97573285Y-163478750D02*
X97501857Y-163514464D01*
X97501857Y-163514464D02*
X97359000Y-163514464D01*
X97359000Y-163514464D02*
X97287571Y-163478750D01*
X97287571Y-163478750D02*
X97251857Y-163407321D01*
X97251857Y-163407321D02*
X97251857Y-163121607D01*
X97251857Y-163121607D02*
X97287571Y-163050178D01*
X97287571Y-163050178D02*
X97359000Y-163014464D01*
X97359000Y-163014464D02*
X97501857Y-163014464D01*
X97501857Y-163014464D02*
X97573285Y-163050178D01*
X97573285Y-163050178D02*
X97609000Y-163121607D01*
X97609000Y-163121607D02*
X97609000Y-163193035D01*
X97609000Y-163193035D02*
X97251857Y-163264464D01*
X98037571Y-163443035D02*
X98073285Y-163478750D01*
X98073285Y-163478750D02*
X98037571Y-163514464D01*
X98037571Y-163514464D02*
X98001857Y-163478750D01*
X98001857Y-163478750D02*
X98037571Y-163443035D01*
X98037571Y-163443035D02*
X98037571Y-163514464D01*
X97894714Y-162800178D02*
X97966142Y-162764464D01*
X97966142Y-162764464D02*
X98144714Y-162764464D01*
X98144714Y-162764464D02*
X98216142Y-162800178D01*
X98216142Y-162800178D02*
X98251857Y-162871607D01*
X98251857Y-162871607D02*
X98251857Y-162943035D01*
X98251857Y-162943035D02*
X98216142Y-163014464D01*
X98216142Y-163014464D02*
X98180428Y-163050178D01*
X98180428Y-163050178D02*
X98108999Y-163085892D01*
X98108999Y-163085892D02*
X98073285Y-163121607D01*
X98073285Y-163121607D02*
X98037571Y-163193035D01*
X98037571Y-163193035D02*
X98037571Y-163228750D01*
D12*
%TO.N,/I2C0_SCL*%
%TO.C,TP6*%
X115570000Y-51181000D03*
%TD*%
D13*
%TO.N,Net-(J14-Pin_2)*%
%TO.C,J14*%
X82184000Y-145288000D03*
D14*
%TO.N,GND*%
X87884000Y-145288000D03*
%TD*%
D12*
%TO.N,+3.3V*%
%TO.C,TP2*%
X107442000Y-51181000D03*
%TD*%
D15*
%TO.N,Net-(Q14-D)*%
%TO.C,F3*%
X89288000Y-137336000D03*
X89288000Y-133936000D03*
%TO.N,Net-(J11-Pin_2)*%
X79368000Y-137336000D03*
X79368000Y-133936000D03*
%TD*%
D12*
%TO.N,/I2C0_SDA*%
%TO.C,TP5*%
X119126000Y-51181000D03*
%TD*%
D16*
%TO.N,GND*%
%TO.C,H1*%
X79834003Y-50340997D03*
%TD*%
D12*
%TO.N,GND*%
%TO.C,TP30*%
X109855000Y-161544000D03*
%TD*%
D17*
%TO.N,/GPIO_2*%
%TO.C,J1*%
X86442000Y-38569000D03*
%TO.N,/GPIO_1*%
X90642000Y-38569000D03*
%TO.N,+3.3V*%
X94842000Y-38569000D03*
X99042000Y-38569000D03*
%TO.N,+5V*%
X103242000Y-38569000D03*
X107442000Y-38569000D03*
%TO.N,GND*%
X86442000Y-44069000D03*
X90642000Y-44069000D03*
X94842000Y-44069000D03*
X99042000Y-44069000D03*
X103242000Y-44069000D03*
D18*
X107442000Y-44069000D03*
%TD*%
D12*
%TO.N,GND*%
%TO.C,TP3*%
X103505000Y-51181000D03*
%TD*%
D15*
%TO.N,Net-(Q9-D)*%
%TO.C,F1*%
X89288000Y-98728000D03*
X89288000Y-95328000D03*
%TO.N,Net-(J8-Pin_2)*%
X79368000Y-98728000D03*
X79368000Y-95328000D03*
%TD*%
D13*
%TO.N,/BATT4_OUT*%
%TO.C,J15*%
X147716000Y-152400000D03*
D14*
%TO.N,GND*%
X153416000Y-152400000D03*
%TD*%
D17*
%TO.N,+5V*%
%TO.C,J2*%
X114518000Y-38569000D03*
%TO.N,+3.3V*%
X118718000Y-38569000D03*
%TO.N,/LED_CTRL*%
X122918000Y-38569000D03*
%TO.N,/I2C0_SCL*%
X127118000Y-38569000D03*
%TO.N,+5V*%
X131318000Y-38569000D03*
%TO.N,GND*%
X114518000Y-44069000D03*
X118718000Y-44069000D03*
X122918000Y-44069000D03*
%TO.N,/I2C0_SDA*%
X127118000Y-44069000D03*
D18*
%TO.N,GND*%
X131318000Y-44069000D03*
%TD*%
D16*
%TO.N,GND*%
%TO.C,H4*%
X152986003Y-162100997D03*
%TD*%
D13*
%TO.N,/BATT1_OUT*%
%TO.C,J9*%
X147716000Y-91440000D03*
D14*
%TO.N,GND*%
X153416000Y-91440000D03*
%TD*%
D19*
%TO.N,/CAN_L*%
%TO.C,J4*%
X146309000Y-56642000D03*
D20*
%TO.N,Net-(J4-Pin_1)*%
X148849000Y-56642000D03*
%TD*%
D13*
%TO.N,/BATT3_OUT*%
%TO.C,J12*%
X147716000Y-128016000D03*
D14*
%TO.N,GND*%
X153416000Y-128016000D03*
%TD*%
D13*
%TO.N,/BATT2_OUT*%
%TO.C,J13*%
X147716000Y-115824000D03*
D14*
%TO.N,GND*%
X153416000Y-115824000D03*
%TD*%
D13*
%TO.N,/40V_OR*%
%TO.C,J10*%
X147716000Y-103632000D03*
D14*
%TO.N,GND*%
X153416000Y-103632000D03*
%TD*%
D16*
%TO.N,GND*%
%TO.C,H2*%
X152986003Y-50340997D03*
%TD*%
D21*
%TO.N,Net-(D3-A)*%
%TO.C,U5*%
X131191000Y-68036000D03*
%TO.N,GND*%
X133731000Y-68036000D03*
D22*
%TO.N,/REG_CTRL*%
X136271000Y-68036000D03*
%TD*%
D15*
%TO.N,Net-(Q19-D)*%
%TO.C,F4*%
X89288000Y-156640000D03*
X89288000Y-153240000D03*
%TO.N,Net-(J14-Pin_2)*%
X79368000Y-156640000D03*
X79368000Y-153240000D03*
%TD*%
D16*
%TO.N,GND*%
%TO.C,H3*%
X79834003Y-162100997D03*
%TD*%
D23*
%TO.N,/CAN_H*%
%TO.C,J6*%
X144407000Y-81255124D03*
X152606999Y-81255124D03*
%TO.N,/CAN_L*%
X144407000Y-76255124D03*
X152606999Y-76255124D03*
%TD*%
D12*
%TO.N,/CAN_L*%
%TO.C,TP7*%
X155575000Y-39624000D03*
%TD*%
D23*
%TO.N,/CAN_H*%
%TO.C,J5*%
X144407000Y-68047124D03*
X152606999Y-68047124D03*
%TO.N,/CAN_L*%
X144407000Y-63047124D03*
X152606999Y-63047124D03*
%TD*%
D13*
%TO.N,Net-(J7-Pin_2)*%
%TO.C,J7*%
X82184000Y-106680000D03*
D14*
%TO.N,GND*%
X87884000Y-106680000D03*
%TD*%
D19*
%TO.N,Net-(Q1-G)*%
%TO.C,U3*%
X75844400Y-59106791D03*
%TO.N,Net-(Q1-S)*%
X78384400Y-59106791D03*
D20*
%TO.N,GND*%
X80924400Y-59106791D03*
D19*
%TO.N,unconnected-(U3-3V3_EN-Pad37)*%
X83464400Y-59106791D03*
%TO.N,unconnected-(U3-3V3-Pad36)*%
X86004400Y-59106791D03*
%TO.N,unconnected-(U3-ADC_VREF-Pad35)*%
X88544400Y-59106791D03*
%TO.N,unconnected-(U3-GPIO28_ADC2-Pad34)*%
X91084400Y-59106791D03*
D20*
%TO.N,unconnected-(U3-AGND-Pad33)*%
X93624400Y-59106791D03*
D19*
%TO.N,/GPIO_2*%
X96164400Y-59106791D03*
%TO.N,/GPIO_1*%
X98704400Y-59106791D03*
%TO.N,unconnected-(U3-RUN-Pad30)*%
X101244400Y-59106791D03*
%TO.N,unconnected-(U3-GPIO22-Pad29)*%
X103784400Y-59106791D03*
D20*
%TO.N,GND*%
X106324400Y-59106791D03*
D19*
%TO.N,unconnected-(U3-GPIO21-Pad27)*%
X108864400Y-59106791D03*
%TO.N,unconnected-(U3-GPIO20-Pad26)*%
X111404400Y-59106791D03*
%TO.N,unconnected-(U3-GPIO19-Pad25)*%
X113944400Y-59106791D03*
%TO.N,/LED_CTRL*%
X116484400Y-59106791D03*
D20*
%TO.N,GND*%
X119024400Y-59106791D03*
D19*
%TO.N,/I2C0_SCL*%
X121564400Y-59106791D03*
%TO.N,/I2C0_SDA*%
X124104400Y-59106791D03*
%TO.N,unconnected-(U3-GPIO15-Pad20)*%
X124104400Y-76886791D03*
%TO.N,unconnected-(U3-GPIO14-Pad19)*%
X121564400Y-76886791D03*
D20*
%TO.N,GND*%
X119024400Y-76886791D03*
D19*
%TO.N,/SHDN_4*%
X116484400Y-76886791D03*
%TO.N,/SHDN_3*%
X113944400Y-76886791D03*
%TO.N,/SHDN_2*%
X111404400Y-76886791D03*
%TO.N,/SHDN_1*%
X108864400Y-76886791D03*
D20*
%TO.N,GND*%
X106324400Y-76886791D03*
D19*
%TO.N,/SPIO_CSn*%
X103784400Y-76886791D03*
%TO.N,/SPIO_RX*%
X101244400Y-76886791D03*
%TO.N,/SPIO_TX*%
X98704400Y-76886791D03*
%TO.N,/SPIO_SCK*%
X96164400Y-76886791D03*
D20*
%TO.N,GND*%
X93624400Y-76886791D03*
D19*
%TO.N,/INT*%
X91084400Y-76886791D03*
%TO.N,unconnected-(U3-GPIO4-Pad6)*%
X88544400Y-76886791D03*
%TO.N,unconnected-(U3-GPIO3-Pad5)*%
X86004400Y-76886791D03*
%TO.N,unconnected-(U3-GPIO2-Pad4)*%
X83464400Y-76886791D03*
D20*
%TO.N,GND*%
X80924400Y-76886791D03*
D19*
%TO.N,unconnected-(U3-GPIO1-Pad2)*%
X78384400Y-76886791D03*
%TO.N,unconnected-(U3-GPIO0-Pad1)*%
X75844400Y-76886791D03*
%TD*%
D13*
%TO.N,Net-(J11-Pin_2)*%
%TO.C,J11*%
X82184000Y-125984000D03*
D14*
%TO.N,GND*%
X87884000Y-125984000D03*
%TD*%
D13*
%TO.N,Net-(J8-Pin_2)*%
%TO.C,J8*%
X82184000Y-87376000D03*
D14*
%TO.N,GND*%
X87884000Y-87376000D03*
%TD*%
D12*
%TO.N,+5V*%
%TO.C,TP4*%
X111379000Y-51181000D03*
%TD*%
D24*
%TO.N,/BATT1_IN*%
%TO.C,J3*%
X139207000Y-40782000D03*
%TO.N,/BATT2_IN*%
X144907000Y-40782000D03*
%TO.N,/BATT1_CTRL*%
X139207000Y-46482000D03*
D25*
%TO.N,/BATT2_CTRL*%
X144907000Y-46482000D03*
%TD*%
D12*
%TO.N,/CAN_H*%
%TO.C,TP8*%
X155448000Y-43815000D03*
%TD*%
D13*
%TO.N,/12V_OR*%
%TO.C,J16*%
X147716000Y-140208000D03*
D14*
%TO.N,GND*%
X153416000Y-140208000D03*
%TD*%
D15*
%TO.N,Net-(Q15-D)*%
%TO.C,F2*%
X89288000Y-118032000D03*
X89288000Y-114632000D03*
%TO.N,Net-(J7-Pin_2)*%
X79368000Y-118032000D03*
X79368000Y-114632000D03*
%TD*%
D26*
%TO.N,+5V*%
X136017000Y-59944000D03*
X127127000Y-66040000D03*
X110896400Y-72288400D03*
X124841000Y-68326000D03*
X109093000Y-66167000D03*
X107442000Y-72390000D03*
X77470000Y-66421000D03*
X116078000Y-72898000D03*
%TO.N,/BATT1_OUT*%
X124872198Y-89423419D03*
X124745198Y-90947419D03*
X123221198Y-92344419D03*
X118872000Y-161163000D03*
X123221198Y-89423419D03*
X152400000Y-98552000D03*
X124618198Y-92344419D03*
X123221198Y-90947419D03*
%TO.N,GND*%
X125349000Y-159004000D03*
X94996000Y-88138000D03*
X111760000Y-164592000D03*
X121920000Y-139446000D03*
X122301000Y-142875000D03*
X96266000Y-127000000D03*
X94996000Y-107950000D03*
X100330000Y-81534000D03*
X126238000Y-100584000D03*
X120015000Y-164592000D03*
X136398000Y-53721000D03*
X122428000Y-105029000D03*
X136906000Y-164846000D03*
X120777000Y-85344000D03*
X121514622Y-96399756D03*
X110363000Y-100076000D03*
X125730000Y-121539000D03*
X127508000Y-56515000D03*
X128270000Y-164719000D03*
X110998000Y-117856000D03*
X83185000Y-62230000D03*
X121471690Y-115316000D03*
X122713198Y-95383756D03*
X128270000Y-139446000D03*
X126489800Y-137122992D03*
X113995200Y-61061600D03*
X109093000Y-67564000D03*
X114757200Y-72644000D03*
X101854000Y-102489000D03*
X110998000Y-156591000D03*
X128016000Y-76073000D03*
X126238000Y-54102000D03*
X126746000Y-133387500D03*
X122936000Y-153124992D03*
X111252000Y-137287000D03*
X128905000Y-85344000D03*
X94234000Y-62865000D03*
X96266000Y-146304000D03*
X81915000Y-64516000D03*
X122995690Y-114808000D03*
X121666000Y-154178000D03*
X92583000Y-67564000D03*
%TO.N,/BATT2_IN*%
X105410000Y-109855000D03*
X109601000Y-103886000D03*
X101727000Y-112014000D03*
X109474000Y-113157000D03*
X106553000Y-115697000D03*
X109347000Y-115443000D03*
X103251000Y-117221000D03*
X109601000Y-109728000D03*
%TO.N,/BATT3_IN*%
X109220000Y-134747000D03*
X101473000Y-130937000D03*
X106426000Y-123317000D03*
X103251000Y-136398000D03*
X109220000Y-129286000D03*
X106172000Y-135128000D03*
X109220000Y-132334000D03*
X105664000Y-128905000D03*
%TO.N,/BATT4_IN*%
X106934000Y-143256000D03*
X109220000Y-154178000D03*
X109220000Y-148590000D03*
X101854000Y-150368000D03*
X105664000Y-148463000D03*
X102743000Y-155702000D03*
X106553000Y-154432000D03*
X109220000Y-151638000D03*
%TO.N,/BATT1_IN*%
X105283000Y-90678000D03*
X103378000Y-97790000D03*
X111506000Y-82931000D03*
X109347000Y-90551000D03*
X109347000Y-96139000D03*
X101473000Y-92456000D03*
X108585000Y-84709000D03*
X106299000Y-96393000D03*
%TO.N,/BATT1_CTRL*%
X104521000Y-82169000D03*
%TO.N,/BATT2_CTRL*%
X104013000Y-102489000D03*
%TO.N,/BATT1*%
X120935198Y-89550419D03*
X116967000Y-91948000D03*
X112268000Y-91948000D03*
X119157198Y-92471419D03*
X120808198Y-91074419D03*
X119284198Y-89550419D03*
X114681000Y-90043000D03*
X116967000Y-87884000D03*
X112141000Y-87884000D03*
X119284198Y-91074419D03*
X120808198Y-92471419D03*
%TO.N,/BATT3*%
X121028800Y-129375992D03*
X112268000Y-130556000D03*
X121028800Y-130772992D03*
X121028800Y-127978992D03*
X116967000Y-126492000D03*
X119377800Y-127978992D03*
X119377800Y-129375992D03*
X112268000Y-126492000D03*
X114681000Y-128397000D03*
X119377800Y-130772992D03*
X116967000Y-130556000D03*
%TO.N,/BATT2*%
X116967000Y-111506000D03*
X119312690Y-108966000D03*
X112268000Y-111506000D03*
X121090690Y-108966000D03*
X112268000Y-107442000D03*
X114681000Y-109347000D03*
X119312690Y-112014000D03*
X116967000Y-107442000D03*
X121090690Y-110617000D03*
X120963690Y-112014000D03*
X119312690Y-110617000D03*
%TO.N,/BATT4*%
X120904000Y-150114000D03*
X112268000Y-145796000D03*
X112268000Y-149860000D03*
X119253000Y-148463000D03*
X120904000Y-148463000D03*
X119253000Y-147193000D03*
X114554000Y-147574000D03*
X119253000Y-150114000D03*
X116967000Y-145796000D03*
X120904000Y-147193000D03*
X116967000Y-149860000D03*
%TO.N,/CAN_H*%
X155702000Y-56642000D03*
%TO.N,/BATT2_OUT*%
X124900690Y-110617000D03*
X123249690Y-110490000D03*
X124900690Y-108966000D03*
X124773690Y-112014000D03*
X128016000Y-161671000D03*
X123122690Y-112014000D03*
X123249690Y-108966000D03*
%TO.N,/BATT1_GATE*%
X113538000Y-95631000D03*
X104902000Y-85344000D03*
%TO.N,/ESTOP_CTRL*%
X114173000Y-99314000D03*
X101600000Y-143002000D03*
X100711000Y-107696000D03*
X101600000Y-122936000D03*
X106299000Y-105410000D03*
%TO.N,/40V_OR*%
X138811000Y-98044000D03*
X134747000Y-109601000D03*
X138811000Y-105156000D03*
X136779000Y-107569000D03*
X134747000Y-105156000D03*
X134747000Y-102743000D03*
X138811000Y-109855000D03*
X138811000Y-102743000D03*
X134747000Y-98044000D03*
X136652000Y-100457000D03*
%TO.N,/BATT4_OUT*%
X124968000Y-150114000D03*
X123317000Y-148590000D03*
X123317000Y-150114000D03*
X124968000Y-147193000D03*
X123317000Y-147193000D03*
X124968000Y-148590000D03*
%TO.N,/BATT3_OUT*%
X123441800Y-129248992D03*
X124965800Y-129375992D03*
X123441800Y-130518992D03*
X124965800Y-130518992D03*
X136652000Y-161671000D03*
X123441800Y-127851992D03*
X124838800Y-127851992D03*
%TO.N,/12V_OR*%
X136906000Y-144399000D03*
X138938000Y-139789500D03*
X134874000Y-142113000D03*
X136906000Y-137541000D03*
X138938000Y-135128000D03*
X138938000Y-142113000D03*
X134874000Y-139789500D03*
X134874000Y-146812000D03*
X138938000Y-146812000D03*
X134874000Y-135128000D03*
%TO.N,/I2C0_SDA*%
X144780000Y-160184500D03*
X136652000Y-64262000D03*
X126067529Y-154270127D03*
X154813000Y-122555000D03*
X126619000Y-96139000D03*
X154813000Y-145415000D03*
X155575000Y-97282000D03*
X127381000Y-136271000D03*
X153543000Y-121412000D03*
%TO.N,/I2C0_SCL*%
X125953053Y-155263052D03*
X154686000Y-98425000D03*
X126492000Y-135509000D03*
X136525000Y-65278000D03*
X153924000Y-144690500D03*
X126619000Y-97282000D03*
X146050000Y-160909000D03*
%TO.N,+3.3V*%
X117348000Y-60960000D03*
X118872000Y-65532000D03*
X122555000Y-64008000D03*
X129794000Y-59944000D03*
X123972000Y-50312000D03*
X131572000Y-48895000D03*
%TO.N,Net-(Q9-D)*%
X93726000Y-99314000D03*
X96266000Y-96901000D03*
X98806000Y-99314000D03*
X98806000Y-94742000D03*
X93726000Y-94742000D03*
%TO.N,Net-(Q15-D)*%
X98552000Y-114300000D03*
X96139000Y-116332000D03*
X98552000Y-118364000D03*
X93853000Y-114300000D03*
X93853000Y-118364000D03*
%TO.N,Net-(Q14-D)*%
X98552000Y-133604000D03*
X98552000Y-137668000D03*
X93853000Y-137668000D03*
X96139000Y-135636000D03*
X93853000Y-133604000D03*
%TO.N,Net-(Q19-D)*%
X98552000Y-156972000D03*
X93853000Y-156972000D03*
X96266000Y-155067000D03*
X98552000Y-152908000D03*
X93853000Y-152908000D03*
%TO.N,Net-(Q2-D)*%
X153289000Y-136271000D03*
X155448000Y-134239000D03*
X127762000Y-134239000D03*
X129286000Y-83095500D03*
%TO.N,Net-(Q3-D)*%
X133350000Y-83058000D03*
X153670000Y-157861000D03*
X125984000Y-153162000D03*
%TO.N,Net-(Q4-D)*%
X126619000Y-95139497D03*
X121158000Y-83184989D03*
%TO.N,Net-(Q5-D)*%
X125222000Y-83185000D03*
X156374500Y-116078000D03*
%TO.N,Net-(Q11-G)*%
X136779000Y-112649000D03*
X129971800Y-105613200D03*
%TD*%
D27*
%TO.N,/BATT1_GATE*%
X112403614Y-95631000D02*
X104902000Y-88129386D01*
X104902000Y-88129386D02*
X104902000Y-85344000D01*
X113538000Y-95631000D02*
X112403614Y-95631000D01*
%TO.N,Net-(Q3-D)*%
X151537273Y-159131000D02*
X128651000Y-159131000D01*
X153670000Y-157861000D02*
X152781000Y-158750000D01*
X151918273Y-158750000D02*
X151537273Y-159131000D01*
X128651000Y-159131000D02*
X127635000Y-158115000D01*
X127635000Y-154813000D02*
X125984000Y-153162000D01*
X152781000Y-158750000D02*
X151918273Y-158750000D01*
X127635000Y-158115000D02*
X127635000Y-154813000D01*
%TD*%
%TA.AperFunction,Conductor*%
%TO.N,/12V_OR*%
G36*
X140713414Y-133569264D02*
G01*
X140716616Y-133569352D01*
X140725705Y-133569725D01*
X140735840Y-133570142D01*
X143931329Y-133745286D01*
X149894885Y-134072147D01*
X149908436Y-134073628D01*
X150050717Y-134097034D01*
X150076947Y-134104331D01*
X150204490Y-134155217D01*
X150228542Y-134167982D01*
X150342171Y-134245087D01*
X150362915Y-134262718D01*
X150457323Y-134362443D01*
X150473796Y-134384125D01*
X150544567Y-134501802D01*
X150555999Y-134526523D01*
X150599826Y-134656651D01*
X150605679Y-134683250D01*
X150621262Y-134826589D01*
X150622000Y-134840207D01*
X150622000Y-146741641D01*
X150621040Y-146757169D01*
X150600783Y-146920288D01*
X150593187Y-146950398D01*
X150536498Y-147096281D01*
X150521768Y-147123621D01*
X150431119Y-147251206D01*
X150410151Y-147274111D01*
X150291043Y-147375657D01*
X150265108Y-147392739D01*
X150124791Y-147462063D01*
X150095466Y-147472283D01*
X149934771Y-147506834D01*
X149919389Y-147509159D01*
X141003874Y-148297914D01*
X141001102Y-148298128D01*
X140971737Y-148300074D01*
X140966188Y-148300319D01*
X140939863Y-148300900D01*
X140936761Y-148300969D01*
X140933982Y-148301000D01*
X133610079Y-148301000D01*
X133595971Y-148300208D01*
X133447543Y-148283484D01*
X133420037Y-148277205D01*
X133285783Y-148230227D01*
X133260365Y-148217987D01*
X133139918Y-148142306D01*
X133117858Y-148124713D01*
X133017286Y-148024141D01*
X132999693Y-148002081D01*
X132924012Y-147881634D01*
X132911773Y-147856220D01*
X132864792Y-147721956D01*
X132858516Y-147694460D01*
X132841792Y-147546028D01*
X132841000Y-147531921D01*
X132841000Y-143688000D01*
X143659605Y-143688000D01*
X143679148Y-143911380D01*
X143737183Y-144127972D01*
X143831949Y-144331198D01*
X143960566Y-144514882D01*
X144119117Y-144673433D01*
X144302801Y-144802050D01*
X144302802Y-144802050D01*
X144302803Y-144802051D01*
X144506027Y-144896816D01*
X144722620Y-144954852D01*
X144890049Y-144969500D01*
X144892789Y-144969500D01*
X144999211Y-144969500D01*
X145001951Y-144969500D01*
X145169380Y-144954852D01*
X145385973Y-144896816D01*
X145589197Y-144802051D01*
X145772879Y-144673436D01*
X145931436Y-144514879D01*
X146060051Y-144331198D01*
X146154816Y-144127973D01*
X146212852Y-143911380D01*
X146232395Y-143688000D01*
X146212852Y-143464620D01*
X146154816Y-143248027D01*
X146060051Y-143044803D01*
X145931436Y-142861121D01*
X145931435Y-142861120D01*
X145931433Y-142861117D01*
X145772882Y-142702566D01*
X145589198Y-142573949D01*
X145385972Y-142479183D01*
X145169380Y-142421148D01*
X145004674Y-142406738D01*
X145004668Y-142406737D01*
X145001951Y-142406500D01*
X144890049Y-142406500D01*
X144887332Y-142406737D01*
X144887325Y-142406738D01*
X144722619Y-142421148D01*
X144506027Y-142479183D01*
X144302801Y-142573949D01*
X144119117Y-142702566D01*
X143960566Y-142861117D01*
X143831949Y-143044801D01*
X143737183Y-143248026D01*
X143679148Y-143464619D01*
X143659605Y-143688000D01*
X132841000Y-143688000D01*
X132841000Y-134338078D01*
X132841792Y-134323971D01*
X132848693Y-134262724D01*
X132858516Y-134175537D01*
X132864791Y-134148045D01*
X132911774Y-134013775D01*
X132924012Y-133988365D01*
X132999693Y-133867918D01*
X133017282Y-133845862D01*
X133117862Y-133745282D01*
X133139918Y-133727693D01*
X133260365Y-133652012D01*
X133285775Y-133639774D01*
X133420045Y-133592791D01*
X133447537Y-133586516D01*
X133573586Y-133572314D01*
X133595972Y-133569792D01*
X133610079Y-133569000D01*
X140694133Y-133569000D01*
X140713414Y-133569264D01*
G37*
%TD.AperFunction*%
%TD*%
%TA.AperFunction,Conductor*%
%TO.N,/40V_OR*%
G36*
X141191220Y-96393030D02*
G01*
X141221215Y-96393701D01*
X141226742Y-96393949D01*
X141256562Y-96395953D01*
X141259347Y-96396171D01*
X144420897Y-96679901D01*
X150428359Y-97219032D01*
X150443722Y-97221373D01*
X150604242Y-97256081D01*
X150633527Y-97266322D01*
X150773667Y-97335724D01*
X150799564Y-97352812D01*
X150918491Y-97454355D01*
X150939425Y-97477251D01*
X151029937Y-97604787D01*
X151044640Y-97632104D01*
X151101238Y-97777888D01*
X151108820Y-97807974D01*
X151129041Y-97970947D01*
X151130000Y-97986462D01*
X151130000Y-109914186D01*
X151129044Y-109929676D01*
X151108886Y-110092400D01*
X151101327Y-110122442D01*
X151044905Y-110268025D01*
X151030244Y-110295316D01*
X150940005Y-110422731D01*
X150919128Y-110445619D01*
X150800522Y-110547168D01*
X150774691Y-110564271D01*
X150634898Y-110633807D01*
X150605675Y-110644090D01*
X150445480Y-110679088D01*
X150430143Y-110681460D01*
X141514306Y-111502655D01*
X141511426Y-111502887D01*
X141480857Y-111504997D01*
X141475074Y-111505263D01*
X141447280Y-111505901D01*
X141444418Y-111505967D01*
X141441528Y-111506000D01*
X133611079Y-111506000D01*
X133596971Y-111505208D01*
X133448543Y-111488484D01*
X133421037Y-111482205D01*
X133286783Y-111435227D01*
X133261365Y-111422987D01*
X133140918Y-111347306D01*
X133118858Y-111329713D01*
X133018286Y-111229141D01*
X133000693Y-111207081D01*
X132925012Y-111086634D01*
X132912773Y-111061220D01*
X132865792Y-110926956D01*
X132859516Y-110899460D01*
X132842792Y-110751028D01*
X132842000Y-110736921D01*
X132842000Y-107112000D01*
X143659605Y-107112000D01*
X143679148Y-107335380D01*
X143737183Y-107551972D01*
X143831949Y-107755198D01*
X143960566Y-107938882D01*
X144119117Y-108097433D01*
X144302801Y-108226050D01*
X144302802Y-108226050D01*
X144302803Y-108226051D01*
X144506027Y-108320816D01*
X144722620Y-108378852D01*
X144890049Y-108393500D01*
X144892789Y-108393500D01*
X144999211Y-108393500D01*
X145001951Y-108393500D01*
X145169380Y-108378852D01*
X145385973Y-108320816D01*
X145589197Y-108226051D01*
X145772879Y-108097436D01*
X145931436Y-107938879D01*
X146060051Y-107755198D01*
X146154816Y-107551973D01*
X146212852Y-107335380D01*
X146232395Y-107112000D01*
X146212852Y-106888620D01*
X146154816Y-106672027D01*
X146060051Y-106468803D01*
X145931436Y-106285121D01*
X145931435Y-106285120D01*
X145931433Y-106285117D01*
X145772882Y-106126566D01*
X145589198Y-105997949D01*
X145385972Y-105903183D01*
X145169380Y-105845148D01*
X145004674Y-105830738D01*
X145004668Y-105830737D01*
X145001951Y-105830500D01*
X144890049Y-105830500D01*
X144887332Y-105830737D01*
X144887325Y-105830738D01*
X144722619Y-105845148D01*
X144506027Y-105903183D01*
X144302801Y-105997949D01*
X144119117Y-106126566D01*
X143960566Y-106285117D01*
X143831949Y-106468801D01*
X143737183Y-106672026D01*
X143679148Y-106888619D01*
X143659605Y-107112000D01*
X132842000Y-107112000D01*
X132842000Y-97162078D01*
X132842792Y-97147971D01*
X132843214Y-97144218D01*
X132859516Y-96999537D01*
X132865791Y-96972045D01*
X132912774Y-96837775D01*
X132925012Y-96812365D01*
X133000693Y-96691918D01*
X133018282Y-96669862D01*
X133118862Y-96569282D01*
X133140918Y-96551693D01*
X133261365Y-96476012D01*
X133286775Y-96463774D01*
X133421045Y-96416791D01*
X133448537Y-96410516D01*
X133575839Y-96396173D01*
X133596972Y-96393792D01*
X133611079Y-96393000D01*
X141188487Y-96393000D01*
X141191220Y-96393030D01*
G37*
%TD.AperFunction*%
%TD*%
%TA.AperFunction,Conductor*%
%TO.N,+3.3V*%
G36*
X99544422Y-35179788D02*
G01*
X99564717Y-35182068D01*
X99692471Y-35196425D01*
X99719898Y-35202668D01*
X99853857Y-35249409D01*
X99879224Y-35261589D01*
X99999462Y-35336894D01*
X100021494Y-35354401D01*
X100122016Y-35454511D01*
X100139614Y-35476472D01*
X100215411Y-35596399D01*
X100227695Y-35621717D01*
X100274983Y-35755473D01*
X100281342Y-35782887D01*
X100298586Y-35930860D01*
X100299432Y-35944927D01*
X100303615Y-36963287D01*
X100283893Y-37031490D01*
X100230429Y-37078203D01*
X100160197Y-37088595D01*
X100095786Y-37059617D01*
X100058000Y-37027345D01*
X100058000Y-40110652D01*
X100108922Y-40067161D01*
X100173712Y-40038130D01*
X100243912Y-40048735D01*
X100297235Y-40095610D01*
X100316752Y-40162455D01*
X100324939Y-42156112D01*
X100305217Y-42224314D01*
X100251753Y-42271027D01*
X100181521Y-42281419D01*
X100125626Y-42259104D01*
X100012753Y-42178351D01*
X99770812Y-42053961D01*
X99513335Y-41966122D01*
X99245811Y-41916708D01*
X98973941Y-41906771D01*
X98703524Y-41936527D01*
X98440324Y-42005336D01*
X98189939Y-42111737D01*
X97957721Y-42253458D01*
X97748612Y-42427481D01*
X97567072Y-42630092D01*
X97567070Y-42630094D01*
X97567069Y-42630096D01*
X97527856Y-42689365D01*
X97416960Y-42856984D01*
X97301488Y-43103310D01*
X97223109Y-43363829D01*
X97183500Y-43632973D01*
X97183500Y-43632975D01*
X97183500Y-44436920D01*
X97183666Y-44439190D01*
X97183667Y-44439213D01*
X97198387Y-44640327D01*
X97257538Y-44905862D01*
X97354722Y-45159963D01*
X97487869Y-45397205D01*
X97627093Y-45577504D01*
X97654139Y-45612529D01*
X97849988Y-45801352D01*
X97849991Y-45801354D01*
X97849994Y-45801357D01*
X98071241Y-45959646D01*
X98313187Y-46084038D01*
X98400145Y-46113704D01*
X98570666Y-46171878D01*
X98838190Y-46221292D01*
X99110058Y-46231228D01*
X99380475Y-46201473D01*
X99643678Y-46132663D01*
X99894058Y-46026263D01*
X100003215Y-45959646D01*
X100126274Y-45884544D01*
X100126274Y-45884543D01*
X100126277Y-45884542D01*
X100134023Y-45878095D01*
X100199178Y-45849895D01*
X100269236Y-45861397D01*
X100321956Y-45908949D01*
X100340621Y-45974427D01*
X100340670Y-45986474D01*
X100340670Y-45986482D01*
X100340685Y-45990004D01*
X100343816Y-46752345D01*
X101106155Y-46748867D01*
X115962188Y-46681090D01*
X115962190Y-46681089D01*
X116721604Y-46677625D01*
X116720553Y-45784420D01*
X116719664Y-45028967D01*
X116739586Y-44960825D01*
X116793187Y-44914269D01*
X116863449Y-44904082D01*
X116928064Y-44933499D01*
X116963350Y-44983810D01*
X117030722Y-45159963D01*
X117163869Y-45397205D01*
X117303093Y-45577504D01*
X117330139Y-45612529D01*
X117525988Y-45801352D01*
X117525991Y-45801354D01*
X117525994Y-45801357D01*
X117747241Y-45959646D01*
X117989187Y-46084038D01*
X118076145Y-46113704D01*
X118246666Y-46171878D01*
X118514190Y-46221292D01*
X118786058Y-46231228D01*
X119056475Y-46201473D01*
X119319678Y-46132663D01*
X119570058Y-46026263D01*
X119802277Y-45884542D01*
X120011387Y-45710519D01*
X120192931Y-45507904D01*
X120343039Y-45281016D01*
X120458512Y-45034689D01*
X120536889Y-44774175D01*
X120576500Y-44505025D01*
X120576500Y-44436920D01*
X121059500Y-44436920D01*
X121059666Y-44439190D01*
X121059667Y-44439213D01*
X121074387Y-44640327D01*
X121133538Y-44905862D01*
X121230722Y-45159963D01*
X121363869Y-45397205D01*
X121503093Y-45577504D01*
X121530139Y-45612529D01*
X121725988Y-45801352D01*
X121725991Y-45801354D01*
X121725994Y-45801357D01*
X121947241Y-45959646D01*
X122189187Y-46084038D01*
X122276145Y-46113704D01*
X122446666Y-46171878D01*
X122714190Y-46221292D01*
X122986058Y-46231228D01*
X123256475Y-46201473D01*
X123519678Y-46132663D01*
X123770058Y-46026263D01*
X124002277Y-45884542D01*
X124211387Y-45710519D01*
X124392931Y-45507904D01*
X124543039Y-45281016D01*
X124658512Y-45034689D01*
X124736889Y-44774175D01*
X124776500Y-44505025D01*
X124776500Y-43701080D01*
X124761613Y-43497676D01*
X124702461Y-43232136D01*
X124605277Y-42978037D01*
X124605277Y-42978036D01*
X124472130Y-42740794D01*
X124305864Y-42525475D01*
X124305861Y-42525471D01*
X124110012Y-42336648D01*
X124110008Y-42336645D01*
X124110005Y-42336642D01*
X123888758Y-42178353D01*
X123646812Y-42053961D01*
X123389335Y-41966122D01*
X123121811Y-41916708D01*
X122849941Y-41906771D01*
X122579524Y-41936527D01*
X122316324Y-42005336D01*
X122065939Y-42111737D01*
X121833721Y-42253458D01*
X121624612Y-42427481D01*
X121443072Y-42630092D01*
X121443070Y-42630094D01*
X121443069Y-42630096D01*
X121403856Y-42689365D01*
X121292960Y-42856984D01*
X121177488Y-43103310D01*
X121099109Y-43363829D01*
X121059500Y-43632973D01*
X121059500Y-43632975D01*
X121059500Y-44436920D01*
X120576500Y-44436920D01*
X120576500Y-43701080D01*
X120561613Y-43497676D01*
X120502461Y-43232136D01*
X120405277Y-42978037D01*
X120405277Y-42978036D01*
X120272130Y-42740794D01*
X120105864Y-42525475D01*
X120105861Y-42525471D01*
X119910012Y-42336648D01*
X119910008Y-42336645D01*
X119910005Y-42336642D01*
X119688758Y-42178353D01*
X119446812Y-42053961D01*
X119189335Y-41966122D01*
X118921811Y-41916708D01*
X118649941Y-41906771D01*
X118379524Y-41936527D01*
X118116324Y-42005336D01*
X117865939Y-42111737D01*
X117633721Y-42253458D01*
X117424612Y-42427481D01*
X117243072Y-42630092D01*
X117243070Y-42630094D01*
X117243069Y-42630096D01*
X117203856Y-42689365D01*
X117092960Y-42856984D01*
X116977486Y-43103314D01*
X116964066Y-43147921D01*
X116925286Y-43207390D01*
X116860511Y-43236453D01*
X116790305Y-43225882D01*
X116736960Y-43179033D01*
X116717409Y-43111767D01*
X116716160Y-42050319D01*
X116714303Y-40471622D01*
X116715080Y-40457506D01*
X116731662Y-40308910D01*
X116737917Y-40281387D01*
X116784833Y-40146941D01*
X116797062Y-40121501D01*
X116872745Y-40000885D01*
X116890336Y-39978804D01*
X116990978Y-39878080D01*
X117013048Y-39860469D01*
X117133599Y-39784692D01*
X117159033Y-39772441D01*
X117253631Y-39739344D01*
X117324530Y-39735728D01*
X117386134Y-39771020D01*
X117402669Y-39792440D01*
X117416325Y-39814725D01*
X117580289Y-40006703D01*
X117702000Y-40110653D01*
X117702000Y-39701730D01*
X119734000Y-39702484D01*
X119734000Y-40110653D01*
X119855710Y-40006703D01*
X120019674Y-39814725D01*
X120051489Y-39762808D01*
X120104136Y-39715176D01*
X120158966Y-39702642D01*
X121181168Y-39703021D01*
X121249275Y-39723047D01*
X121290993Y-39767353D01*
X121363869Y-39897205D01*
X121528690Y-40110653D01*
X121530139Y-40112529D01*
X121725988Y-40301352D01*
X121725991Y-40301354D01*
X121725994Y-40301357D01*
X121947241Y-40459646D01*
X122189187Y-40584038D01*
X122322510Y-40629521D01*
X122446666Y-40671878D01*
X122714190Y-40721292D01*
X122986058Y-40731228D01*
X123256475Y-40701473D01*
X123519678Y-40632663D01*
X123770058Y-40526263D01*
X124002277Y-40384542D01*
X124211387Y-40210519D01*
X124392931Y-40007904D01*
X124543039Y-39781016D01*
X124544996Y-39776840D01*
X124592014Y-39723647D01*
X124659128Y-39704312D01*
X125382041Y-39704580D01*
X125450151Y-39724607D01*
X125491869Y-39768913D01*
X125563869Y-39897205D01*
X125728690Y-40110653D01*
X125730139Y-40112529D01*
X125925988Y-40301352D01*
X125925991Y-40301354D01*
X125925994Y-40301357D01*
X126147241Y-40459646D01*
X126389187Y-40584038D01*
X126522510Y-40629521D01*
X126646666Y-40671878D01*
X126914190Y-40721292D01*
X127186058Y-40731228D01*
X127456475Y-40701473D01*
X127719678Y-40632663D01*
X127841202Y-40581020D01*
X127911717Y-40572788D01*
X127975492Y-40603986D01*
X128012275Y-40664711D01*
X128016479Y-40696993D01*
X128016404Y-41935710D01*
X127996398Y-42003829D01*
X127942739Y-42050319D01*
X127872465Y-42060418D01*
X127849721Y-42054953D01*
X127589335Y-41966122D01*
X127321811Y-41916708D01*
X127049941Y-41906771D01*
X126779524Y-41936527D01*
X126516324Y-42005336D01*
X126265939Y-42111737D01*
X126033721Y-42253458D01*
X125824612Y-42427481D01*
X125643072Y-42630092D01*
X125643070Y-42630094D01*
X125643069Y-42630096D01*
X125603856Y-42689365D01*
X125492960Y-42856984D01*
X125377488Y-43103310D01*
X125299109Y-43363829D01*
X125259500Y-43632973D01*
X125259500Y-43632975D01*
X125259500Y-44436920D01*
X125259666Y-44439190D01*
X125259667Y-44439213D01*
X125274387Y-44640327D01*
X125333538Y-44905862D01*
X125430722Y-45159963D01*
X125563869Y-45397205D01*
X125703093Y-45577504D01*
X125730139Y-45612529D01*
X125925988Y-45801352D01*
X125925991Y-45801354D01*
X125925994Y-45801357D01*
X126147241Y-45959646D01*
X126389187Y-46084038D01*
X126476145Y-46113704D01*
X126646666Y-46171878D01*
X126914190Y-46221292D01*
X127186058Y-46231228D01*
X127456475Y-46201473D01*
X127719678Y-46132663D01*
X127970058Y-46026263D01*
X128016156Y-45998129D01*
X128016144Y-46228053D01*
X128794400Y-46211490D01*
X128794404Y-46211491D01*
X129949984Y-46186898D01*
X129992278Y-46193262D01*
X130063575Y-46216887D01*
X130133906Y-46224072D01*
X130164254Y-46227173D01*
X130164256Y-46227173D01*
X130167456Y-46227500D01*
X130170661Y-46227500D01*
X132465339Y-46227500D01*
X132468544Y-46227500D01*
X132572425Y-46216887D01*
X132740738Y-46161115D01*
X132767988Y-46144306D01*
X132831451Y-46125576D01*
X133986610Y-46100993D01*
X136735040Y-46042503D01*
X136803568Y-46061050D01*
X136851192Y-46113704D01*
X136863448Y-46176714D01*
X136843709Y-46477880D01*
X136843439Y-46482000D01*
X136843709Y-46486119D01*
X136861158Y-46752345D01*
X136863660Y-46790507D01*
X136923975Y-47093735D01*
X137023354Y-47386496D01*
X137025173Y-47390185D01*
X137025177Y-47390194D01*
X137158269Y-47660077D01*
X137160096Y-47663781D01*
X137331861Y-47920845D01*
X137535710Y-48153290D01*
X137768155Y-48357139D01*
X138025219Y-48528904D01*
X138302504Y-48665646D01*
X138595265Y-48765025D01*
X138898493Y-48825340D01*
X139207000Y-48845561D01*
X139515507Y-48825340D01*
X139803420Y-48768071D01*
X139874133Y-48774399D01*
X139930200Y-48817954D01*
X139953819Y-48884906D01*
X139954000Y-48891650D01*
X139954000Y-53967921D01*
X139953208Y-53982029D01*
X139936484Y-54130456D01*
X139930205Y-54157964D01*
X139883228Y-54292215D01*
X139870987Y-54317634D01*
X139795306Y-54438081D01*
X139777713Y-54460141D01*
X139677141Y-54560713D01*
X139655081Y-54578306D01*
X139534634Y-54653987D01*
X139509215Y-54666228D01*
X139374964Y-54713205D01*
X139347456Y-54719484D01*
X139199029Y-54736208D01*
X139184921Y-54737000D01*
X136933016Y-54737000D01*
X136864895Y-54716998D01*
X136818402Y-54663342D01*
X136808298Y-54593068D01*
X136837792Y-54528488D01*
X136858955Y-54509064D01*
X137009253Y-54399866D01*
X137137040Y-54257944D01*
X137232527Y-54092556D01*
X137291542Y-53910928D01*
X137311504Y-53721000D01*
X137291542Y-53531072D01*
X137232527Y-53349444D01*
X137232527Y-53349443D01*
X137137041Y-53184057D01*
X137009252Y-53042133D01*
X136854753Y-52929883D01*
X136854752Y-52929882D01*
X136680288Y-52852206D01*
X136493487Y-52812500D01*
X136302513Y-52812500D01*
X136177979Y-52838970D01*
X136115711Y-52852206D01*
X135941246Y-52929883D01*
X135786747Y-53042133D01*
X135658958Y-53184057D01*
X135563472Y-53349443D01*
X135504458Y-53531070D01*
X135504457Y-53531072D01*
X135504458Y-53531072D01*
X135484496Y-53721000D01*
X135485489Y-53730444D01*
X135504458Y-53910929D01*
X135563472Y-54092556D01*
X135658958Y-54257942D01*
X135786747Y-54399866D01*
X135937045Y-54509064D01*
X135980399Y-54565286D01*
X135986474Y-54636022D01*
X135953343Y-54698814D01*
X135891523Y-54733725D01*
X135862984Y-54737000D01*
X132715000Y-54737000D01*
X132715000Y-55498999D01*
X132715000Y-55499000D01*
X132715000Y-55502516D01*
X132714999Y-55502534D01*
X132715000Y-64254921D01*
X132714208Y-64269029D01*
X132697484Y-64417456D01*
X132691205Y-64444964D01*
X132644228Y-64579215D01*
X132631987Y-64604634D01*
X132556306Y-64725081D01*
X132538713Y-64747141D01*
X132438141Y-64847713D01*
X132416081Y-64865306D01*
X132295634Y-64940987D01*
X132270215Y-64953228D01*
X132135964Y-65000205D01*
X132108456Y-65006484D01*
X131960029Y-65023208D01*
X131945921Y-65024000D01*
X124968000Y-65024000D01*
X124968000Y-65531998D01*
X124968000Y-65531999D01*
X124952855Y-65647034D01*
X124944342Y-65678805D01*
X124906288Y-65770676D01*
X124889841Y-65799162D01*
X124829308Y-65878050D01*
X124806050Y-65901308D01*
X124727162Y-65961841D01*
X124698676Y-65978288D01*
X124606805Y-66016342D01*
X124575034Y-66024855D01*
X124468188Y-66038922D01*
X124451741Y-66040000D01*
X116593079Y-66040000D01*
X116578971Y-66039208D01*
X116430543Y-66022484D01*
X116403037Y-66016205D01*
X116268783Y-65969227D01*
X116243365Y-65956987D01*
X116122918Y-65881306D01*
X116100858Y-65863713D01*
X116000286Y-65763141D01*
X115982693Y-65741081D01*
X115907012Y-65620634D01*
X115894773Y-65595220D01*
X115847792Y-65460956D01*
X115841516Y-65433460D01*
X115824792Y-65285028D01*
X115824000Y-65270921D01*
X115824000Y-61221078D01*
X115824792Y-61206971D01*
X115825214Y-61203218D01*
X115841516Y-61058537D01*
X115847791Y-61031045D01*
X115894774Y-60896775D01*
X115907012Y-60871365D01*
X115982693Y-60750918D01*
X116000282Y-60728862D01*
X116100862Y-60628282D01*
X116122918Y-60610693D01*
X116243365Y-60535012D01*
X116268775Y-60522774D01*
X116403045Y-60475791D01*
X116430543Y-60469515D01*
X116445628Y-60467816D01*
X116461014Y-60466083D01*
X116475118Y-60465291D01*
X116596968Y-60465291D01*
X116596969Y-60465291D01*
X116666322Y-60453718D01*
X116687061Y-60452000D01*
X118024289Y-60452000D01*
X118056952Y-60457893D01*
X118065197Y-60458779D01*
X118065199Y-60458780D01*
X118125762Y-60465291D01*
X118129131Y-60465291D01*
X119919669Y-60465291D01*
X119923038Y-60465291D01*
X119983601Y-60458780D01*
X119983603Y-60458779D01*
X119991847Y-60457893D01*
X120024511Y-60452000D01*
X121361739Y-60452000D01*
X121382477Y-60453718D01*
X121451831Y-60465291D01*
X121451832Y-60465291D01*
X121676968Y-60465291D01*
X121676969Y-60465291D01*
X121746322Y-60453718D01*
X121767061Y-60452000D01*
X123901739Y-60452000D01*
X123922477Y-60453718D01*
X123991831Y-60465291D01*
X123991832Y-60465291D01*
X124216968Y-60465291D01*
X124216969Y-60465291D01*
X124286322Y-60453718D01*
X124307061Y-60452000D01*
X125730915Y-60452000D01*
X125734427Y-60452000D01*
X126492000Y-60452000D01*
X126504809Y-58253631D01*
X126511672Y-57075808D01*
X126532071Y-57007806D01*
X126585996Y-56961626D01*
X126656328Y-56951932D01*
X126720736Y-56981801D01*
X126746789Y-57013542D01*
X126768960Y-57051944D01*
X126896747Y-57193866D01*
X127051248Y-57306118D01*
X127225712Y-57383794D01*
X127412513Y-57423500D01*
X127412515Y-57423500D01*
X127603485Y-57423500D01*
X127603487Y-57423500D01*
X127790288Y-57383794D01*
X127964752Y-57306118D01*
X128119253Y-57193866D01*
X128247040Y-57051944D01*
X128342527Y-56886556D01*
X128401542Y-56704928D01*
X128421504Y-56515000D01*
X128401542Y-56325072D01*
X128342527Y-56143444D01*
X128342527Y-56143443D01*
X128247041Y-55978057D01*
X128119252Y-55836133D01*
X127964753Y-55723883D01*
X127964752Y-55723882D01*
X127790288Y-55646206D01*
X127603487Y-55606500D01*
X127412513Y-55606500D01*
X127287978Y-55632970D01*
X127225711Y-55646206D01*
X127051246Y-55723883D01*
X126896747Y-55836133D01*
X126768958Y-55978057D01*
X126753398Y-56005008D01*
X126702015Y-56054000D01*
X126632301Y-56067435D01*
X126566390Y-56041048D01*
X126525209Y-55983215D01*
X126518283Y-55941279D01*
X126523474Y-55050463D01*
X126543872Y-54982464D01*
X126597794Y-54936285D01*
X126694752Y-54893118D01*
X126849253Y-54780866D01*
X126977040Y-54638944D01*
X127072527Y-54473556D01*
X127131542Y-54291928D01*
X127151504Y-54102000D01*
X127131542Y-53912072D01*
X127072527Y-53730444D01*
X127072527Y-53730443D01*
X126977041Y-53565057D01*
X126849252Y-53423133D01*
X126694753Y-53310883D01*
X126694752Y-53310882D01*
X126520288Y-53233206D01*
X126333487Y-53193500D01*
X126142513Y-53193500D01*
X126017979Y-53219970D01*
X125955711Y-53233206D01*
X125781246Y-53310883D01*
X125626745Y-53423135D01*
X125498960Y-53565054D01*
X125475197Y-53606213D01*
X125423813Y-53655206D01*
X125367301Y-53669205D01*
X93232515Y-53980987D01*
X93218314Y-53980323D01*
X93068830Y-53964843D01*
X93041102Y-53958756D01*
X92905666Y-53912521D01*
X92880003Y-53900381D01*
X92758353Y-53824997D01*
X92736061Y-53807421D01*
X92634373Y-53706715D01*
X92616584Y-53684598D01*
X92540019Y-53563677D01*
X92527638Y-53538149D01*
X92480085Y-53403150D01*
X92473731Y-53375487D01*
X92470778Y-53349443D01*
X92456802Y-53226165D01*
X92456000Y-53211971D01*
X92456000Y-51979638D01*
X102246500Y-51979638D01*
X102246860Y-51982986D01*
X102253011Y-52040200D01*
X102304111Y-52177205D01*
X102391738Y-52294261D01*
X102508794Y-52381888D01*
X102508795Y-52381888D01*
X102508796Y-52381889D01*
X102645799Y-52432989D01*
X102706362Y-52439500D01*
X102709731Y-52439500D01*
X104300269Y-52439500D01*
X104303638Y-52439500D01*
X104364201Y-52432989D01*
X104501204Y-52381889D01*
X104618261Y-52294261D01*
X104705889Y-52177204D01*
X104756989Y-52040201D01*
X104763500Y-51979638D01*
X104763500Y-51931000D01*
X106438001Y-51931000D01*
X106438001Y-51956018D01*
X106452736Y-52030105D01*
X106508876Y-52114124D01*
X106592893Y-52170263D01*
X106666981Y-52184999D01*
X106691999Y-52184998D01*
X106692000Y-52184998D01*
X106692000Y-51931000D01*
X108192000Y-51931000D01*
X108192000Y-52184999D01*
X108217018Y-52184999D01*
X108291105Y-52170263D01*
X108375124Y-52114123D01*
X108431263Y-52030106D01*
X108441302Y-51979638D01*
X110120500Y-51979638D01*
X110120860Y-51982986D01*
X110127011Y-52040200D01*
X110178111Y-52177205D01*
X110265738Y-52294261D01*
X110382794Y-52381888D01*
X110382795Y-52381888D01*
X110382796Y-52381889D01*
X110519799Y-52432989D01*
X110580362Y-52439500D01*
X110583731Y-52439500D01*
X112174269Y-52439500D01*
X112177638Y-52439500D01*
X112238201Y-52432989D01*
X112375204Y-52381889D01*
X112492261Y-52294261D01*
X112579889Y-52177204D01*
X112630989Y-52040201D01*
X112637500Y-51979638D01*
X114311500Y-51979638D01*
X114311860Y-51982986D01*
X114318011Y-52040200D01*
X114369111Y-52177205D01*
X114456738Y-52294261D01*
X114573794Y-52381888D01*
X114573795Y-52381888D01*
X114573796Y-52381889D01*
X114710799Y-52432989D01*
X114771362Y-52439500D01*
X114774731Y-52439500D01*
X116365269Y-52439500D01*
X116368638Y-52439500D01*
X116429201Y-52432989D01*
X116566204Y-52381889D01*
X116683261Y-52294261D01*
X116770889Y-52177204D01*
X116821989Y-52040201D01*
X116828500Y-51979638D01*
X117867500Y-51979638D01*
X117867860Y-51982986D01*
X117874011Y-52040200D01*
X117925111Y-52177205D01*
X118012738Y-52294261D01*
X118129794Y-52381888D01*
X118129795Y-52381888D01*
X118129796Y-52381889D01*
X118266799Y-52432989D01*
X118327362Y-52439500D01*
X118330731Y-52439500D01*
X119921269Y-52439500D01*
X119924638Y-52439500D01*
X119985201Y-52432989D01*
X120122204Y-52381889D01*
X120239261Y-52294261D01*
X120326889Y-52177204D01*
X120377989Y-52040201D01*
X120384500Y-51979638D01*
X120384500Y-50382362D01*
X120377989Y-50321799D01*
X120326889Y-50184796D01*
X120321053Y-50177000D01*
X120239261Y-50067738D01*
X120122205Y-49980111D01*
X120053702Y-49954560D01*
X119985201Y-49929011D01*
X119924638Y-49922500D01*
X118327362Y-49922500D01*
X118324013Y-49922859D01*
X118324013Y-49922860D01*
X118266799Y-49929011D01*
X118129794Y-49980111D01*
X118012738Y-50067738D01*
X117925111Y-50184794D01*
X117901583Y-50247876D01*
X117874011Y-50321799D01*
X117867500Y-50382362D01*
X117867500Y-51979638D01*
X116828500Y-51979638D01*
X116828500Y-50382362D01*
X116821989Y-50321799D01*
X116770889Y-50184796D01*
X116765053Y-50177000D01*
X116683261Y-50067738D01*
X116566205Y-49980111D01*
X116497702Y-49954560D01*
X116429201Y-49929011D01*
X116368638Y-49922500D01*
X114771362Y-49922500D01*
X114768013Y-49922859D01*
X114768013Y-49922860D01*
X114710799Y-49929011D01*
X114573794Y-49980111D01*
X114456738Y-50067738D01*
X114369111Y-50184794D01*
X114345583Y-50247876D01*
X114318011Y-50321799D01*
X114311500Y-50382362D01*
X114311500Y-51979638D01*
X112637500Y-51979638D01*
X112637500Y-50382362D01*
X112630989Y-50321799D01*
X112579889Y-50184796D01*
X112574053Y-50177000D01*
X112492261Y-50067738D01*
X112375205Y-49980111D01*
X112306702Y-49954560D01*
X112238201Y-49929011D01*
X112177638Y-49922500D01*
X110580362Y-49922500D01*
X110577013Y-49922859D01*
X110577013Y-49922860D01*
X110519799Y-49929011D01*
X110382794Y-49980111D01*
X110265738Y-50067738D01*
X110178111Y-50184794D01*
X110154583Y-50247876D01*
X110127011Y-50321799D01*
X110120500Y-50382362D01*
X110120500Y-51979638D01*
X108441302Y-51979638D01*
X108446000Y-51956018D01*
X108446000Y-51931000D01*
X108192000Y-51931000D01*
X106692000Y-51931000D01*
X106438001Y-51931000D01*
X104763500Y-51931000D01*
X104763500Y-51210302D01*
X107088372Y-51210302D01*
X107117047Y-51323538D01*
X107180936Y-51421327D01*
X107273115Y-51493072D01*
X107383595Y-51531000D01*
X107471005Y-51531000D01*
X107557216Y-51516614D01*
X107659947Y-51461019D01*
X107739060Y-51375079D01*
X107785982Y-51268108D01*
X107795628Y-51151698D01*
X107766953Y-51038462D01*
X107703064Y-50940673D01*
X107610885Y-50868928D01*
X107500405Y-50831000D01*
X107412995Y-50831000D01*
X107326784Y-50845386D01*
X107224053Y-50900981D01*
X107144940Y-50986921D01*
X107098018Y-51093892D01*
X107088372Y-51210302D01*
X104763500Y-51210302D01*
X104763500Y-50431000D01*
X106438000Y-50431000D01*
X106692000Y-50431000D01*
X106692000Y-50177000D01*
X108192000Y-50177000D01*
X108192000Y-50431000D01*
X108445999Y-50431000D01*
X108445999Y-50405981D01*
X108431263Y-50331894D01*
X108375123Y-50247875D01*
X108291106Y-50191736D01*
X108217019Y-50177000D01*
X108192000Y-50177000D01*
X106692000Y-50177000D01*
X106691999Y-50176999D01*
X106666982Y-50177000D01*
X106592894Y-50191736D01*
X106508875Y-50247876D01*
X106452736Y-50331893D01*
X106438000Y-50405981D01*
X106438000Y-50431000D01*
X104763500Y-50431000D01*
X104763500Y-50382362D01*
X104756989Y-50321799D01*
X104705889Y-50184796D01*
X104700053Y-50177000D01*
X104618261Y-50067738D01*
X104501205Y-49980111D01*
X104432702Y-49954560D01*
X104364201Y-49929011D01*
X104303638Y-49922500D01*
X102706362Y-49922500D01*
X102703013Y-49922859D01*
X102703013Y-49922860D01*
X102645799Y-49929011D01*
X102508794Y-49980111D01*
X102391738Y-50067738D01*
X102304111Y-50184794D01*
X102280583Y-50247876D01*
X102253011Y-50321799D01*
X102246500Y-50382362D01*
X102246500Y-51979638D01*
X92456000Y-51979638D01*
X92456000Y-44808967D01*
X92459772Y-44783332D01*
X92459546Y-44783299D01*
X92480588Y-44640327D01*
X92500500Y-44505025D01*
X92500500Y-44436920D01*
X92983500Y-44436920D01*
X92983666Y-44439190D01*
X92983667Y-44439213D01*
X92998387Y-44640327D01*
X93057538Y-44905862D01*
X93154722Y-45159963D01*
X93287869Y-45397205D01*
X93427093Y-45577504D01*
X93454139Y-45612529D01*
X93649988Y-45801352D01*
X93649991Y-45801354D01*
X93649994Y-45801357D01*
X93871241Y-45959646D01*
X94113187Y-46084038D01*
X94200145Y-46113704D01*
X94370666Y-46171878D01*
X94638190Y-46221292D01*
X94910058Y-46231228D01*
X95180475Y-46201473D01*
X95443678Y-46132663D01*
X95694058Y-46026263D01*
X95926277Y-45884542D01*
X96135387Y-45710519D01*
X96316931Y-45507904D01*
X96467039Y-45281016D01*
X96582512Y-45034689D01*
X96660889Y-44774175D01*
X96700500Y-44505025D01*
X96700500Y-43701080D01*
X96685613Y-43497676D01*
X96626461Y-43232136D01*
X96529277Y-42978037D01*
X96529277Y-42978036D01*
X96396130Y-42740794D01*
X96229864Y-42525475D01*
X96229861Y-42525471D01*
X96034012Y-42336648D01*
X96034008Y-42336645D01*
X96034005Y-42336642D01*
X95812758Y-42178353D01*
X95570812Y-42053961D01*
X95313335Y-41966122D01*
X95045811Y-41916708D01*
X94773941Y-41906771D01*
X94503524Y-41936527D01*
X94240324Y-42005336D01*
X93989939Y-42111737D01*
X93757721Y-42253458D01*
X93548612Y-42427481D01*
X93367072Y-42630092D01*
X93367070Y-42630094D01*
X93367069Y-42630096D01*
X93327856Y-42689365D01*
X93216960Y-42856984D01*
X93101488Y-43103310D01*
X93023109Y-43363829D01*
X92983500Y-43632973D01*
X92983500Y-43632975D01*
X92983500Y-44436920D01*
X92500500Y-44436920D01*
X92500500Y-43701080D01*
X92485613Y-43497676D01*
X92459014Y-43378269D01*
X92456000Y-43350873D01*
X92456000Y-39585000D01*
X93402419Y-39585000D01*
X93408404Y-39599449D01*
X93540327Y-39814727D01*
X93704289Y-40006703D01*
X93826000Y-40110653D01*
X93826000Y-39585000D01*
X95858000Y-39585000D01*
X95858000Y-40110653D01*
X95979710Y-40006703D01*
X96143672Y-39814727D01*
X96275595Y-39599449D01*
X96281581Y-39585000D01*
X97602419Y-39585000D01*
X97608404Y-39599449D01*
X97740327Y-39814727D01*
X97904289Y-40006703D01*
X98026000Y-40110653D01*
X98026000Y-39585000D01*
X97602419Y-39585000D01*
X96281581Y-39585000D01*
X95858000Y-39585000D01*
X93826000Y-39585000D01*
X93402419Y-39585000D01*
X92456000Y-39585000D01*
X92456000Y-39308967D01*
X92459772Y-39283332D01*
X92459546Y-39283299D01*
X92461651Y-39269000D01*
X92500500Y-39005025D01*
X92500500Y-38653995D01*
X94142000Y-38653995D01*
X94182682Y-38819046D01*
X94261680Y-38969566D01*
X94374405Y-39096806D01*
X94514305Y-39193371D01*
X94673249Y-39253651D01*
X94799660Y-39269000D01*
X94884340Y-39269000D01*
X95010751Y-39253651D01*
X95169695Y-39193371D01*
X95309595Y-39096806D01*
X95422320Y-38969566D01*
X95501318Y-38819046D01*
X95542000Y-38653995D01*
X98342000Y-38653995D01*
X98382682Y-38819046D01*
X98461680Y-38969566D01*
X98574405Y-39096806D01*
X98714305Y-39193371D01*
X98873249Y-39253651D01*
X98999660Y-39269000D01*
X99084340Y-39269000D01*
X99210751Y-39253651D01*
X99369695Y-39193371D01*
X99509595Y-39096806D01*
X99622320Y-38969566D01*
X99701318Y-38819046D01*
X99742000Y-38653995D01*
X99742000Y-38484005D01*
X99701318Y-38318954D01*
X99622320Y-38168434D01*
X99509595Y-38041194D01*
X99369695Y-37944629D01*
X99210751Y-37884349D01*
X99084340Y-37869000D01*
X98999660Y-37869000D01*
X98873249Y-37884349D01*
X98714305Y-37944629D01*
X98574405Y-38041194D01*
X98461680Y-38168434D01*
X98382682Y-38318954D01*
X98342000Y-38484005D01*
X98342000Y-38653995D01*
X95542000Y-38653995D01*
X95542000Y-38484005D01*
X95501318Y-38318954D01*
X95422320Y-38168434D01*
X95309595Y-38041194D01*
X95169695Y-37944629D01*
X95010751Y-37884349D01*
X94884340Y-37869000D01*
X94799660Y-37869000D01*
X94673249Y-37884349D01*
X94514305Y-37944629D01*
X94374405Y-38041194D01*
X94261680Y-38168434D01*
X94182682Y-38318954D01*
X94142000Y-38484005D01*
X94142000Y-38653995D01*
X92500500Y-38653995D01*
X92500500Y-38201080D01*
X92485613Y-37997676D01*
X92459014Y-37878269D01*
X92456000Y-37850873D01*
X92456000Y-37552999D01*
X93402418Y-37552999D01*
X93402419Y-37553000D01*
X93826000Y-37553000D01*
X93826000Y-37027345D01*
X95858000Y-37027345D01*
X95858000Y-37553000D01*
X96281581Y-37553000D01*
X96281581Y-37552999D01*
X97602418Y-37552999D01*
X97602419Y-37553000D01*
X98026000Y-37553000D01*
X98026000Y-37027345D01*
X97904290Y-37131295D01*
X97740327Y-37323272D01*
X97608404Y-37538550D01*
X97602418Y-37552999D01*
X96281581Y-37552999D01*
X96275595Y-37538550D01*
X96143672Y-37323272D01*
X95979709Y-37131295D01*
X95858000Y-37027345D01*
X93826000Y-37027345D01*
X93704290Y-37131295D01*
X93540327Y-37323272D01*
X93408404Y-37538550D01*
X93402418Y-37552999D01*
X92456000Y-37552999D01*
X92456000Y-35948078D01*
X92456792Y-35933971D01*
X92457214Y-35930218D01*
X92473516Y-35785537D01*
X92479791Y-35758045D01*
X92526774Y-35623775D01*
X92539012Y-35598365D01*
X92614693Y-35477918D01*
X92632282Y-35455862D01*
X92732862Y-35355282D01*
X92754918Y-35337693D01*
X92875365Y-35262012D01*
X92900775Y-35249774D01*
X93035045Y-35202791D01*
X93062537Y-35196516D01*
X93188586Y-35182314D01*
X93210972Y-35179792D01*
X93225079Y-35179000D01*
X99530352Y-35179000D01*
X99544422Y-35179788D01*
G37*
%TD.AperFunction*%
%TD*%
%TA.AperFunction,Conductor*%
%TO.N,+5V*%
G36*
X150375028Y-35179792D02*
G01*
X150400722Y-35182687D01*
X150523460Y-35196516D01*
X150550956Y-35202792D01*
X150685220Y-35249773D01*
X150710634Y-35262012D01*
X150831081Y-35337693D01*
X150853141Y-35355286D01*
X150953713Y-35455858D01*
X150971306Y-35477918D01*
X151046987Y-35598365D01*
X151059228Y-35623784D01*
X151106205Y-35758035D01*
X151112484Y-35785543D01*
X151129208Y-35933970D01*
X151130000Y-35948078D01*
X151130000Y-47533482D01*
X151109998Y-47601603D01*
X151080252Y-47633790D01*
X151040800Y-47663781D01*
X150840980Y-47815680D01*
X150838505Y-47818023D01*
X150838496Y-47818032D01*
X150582999Y-48060052D01*
X150582991Y-48060059D01*
X150580519Y-48062402D01*
X150578322Y-48064988D01*
X150578313Y-48064998D01*
X150350461Y-48333247D01*
X150350454Y-48333256D01*
X150348261Y-48335838D01*
X150346355Y-48338648D01*
X150346352Y-48338653D01*
X150148839Y-48629962D01*
X150148831Y-48629975D01*
X150146928Y-48632782D01*
X150145341Y-48635775D01*
X150145331Y-48635792D01*
X149980480Y-48946734D01*
X149980472Y-48946750D01*
X149978880Y-48949754D01*
X149977623Y-48952906D01*
X149977614Y-48952928D01*
X149852654Y-49266556D01*
X149846088Y-49283036D01*
X149845177Y-49286317D01*
X149845174Y-49286326D01*
X149751020Y-49625434D01*
X149751015Y-49625454D01*
X149750108Y-49628723D01*
X149749558Y-49632075D01*
X149749555Y-49632091D01*
X149699004Y-49940444D01*
X149692067Y-49982760D01*
X149691882Y-49986153D01*
X149691882Y-49986163D01*
X149681113Y-50184796D01*
X149672644Y-50340997D01*
X149692067Y-50699234D01*
X149692617Y-50702590D01*
X149692618Y-50702597D01*
X149749555Y-51049902D01*
X149749557Y-51049914D01*
X149750108Y-51053271D01*
X149751016Y-51056543D01*
X149751020Y-51056559D01*
X149839458Y-51375079D01*
X149846088Y-51398958D01*
X149847350Y-51402127D01*
X149847351Y-51402128D01*
X149977614Y-51729065D01*
X149977620Y-51729079D01*
X149978880Y-51732240D01*
X149980476Y-51735250D01*
X149980480Y-51735259D01*
X150145331Y-52046201D01*
X150145336Y-52046210D01*
X150146928Y-52049212D01*
X150348261Y-52346156D01*
X150580519Y-52619592D01*
X150840980Y-52866314D01*
X151080252Y-53048204D01*
X151122378Y-53105351D01*
X151130000Y-53148511D01*
X151130000Y-73398921D01*
X151129208Y-73413029D01*
X151112484Y-73561456D01*
X151106205Y-73588964D01*
X151059228Y-73723215D01*
X151046987Y-73748634D01*
X150971306Y-73869081D01*
X150953713Y-73891141D01*
X150853141Y-73991713D01*
X150831081Y-74009306D01*
X150710634Y-74084987D01*
X150685215Y-74097228D01*
X150550964Y-74144205D01*
X150523456Y-74150484D01*
X150375029Y-74167208D01*
X150360921Y-74168000D01*
X105925079Y-74168000D01*
X105910971Y-74167208D01*
X105762543Y-74150484D01*
X105735037Y-74144205D01*
X105600783Y-74097227D01*
X105575365Y-74084987D01*
X105454918Y-74009306D01*
X105432858Y-73991713D01*
X105332286Y-73891141D01*
X105314693Y-73869081D01*
X105239012Y-73748634D01*
X105226773Y-73723220D01*
X105179792Y-73588956D01*
X105173516Y-73561460D01*
X105156792Y-73413028D01*
X105156000Y-73398921D01*
X105156000Y-72643999D01*
X113843696Y-72643999D01*
X113863658Y-72833929D01*
X113922672Y-73015556D01*
X114018158Y-73180942D01*
X114018160Y-73180944D01*
X114145947Y-73322866D01*
X114300448Y-73435118D01*
X114474912Y-73512794D01*
X114661713Y-73552500D01*
X114661715Y-73552500D01*
X114852685Y-73552500D01*
X114852687Y-73552500D01*
X115039488Y-73512794D01*
X115213952Y-73435118D01*
X115368453Y-73322866D01*
X115496240Y-73180944D01*
X115591727Y-73015556D01*
X115650742Y-72833928D01*
X115670704Y-72644000D01*
X115650742Y-72454072D01*
X115591727Y-72272444D01*
X115591727Y-72272443D01*
X115496241Y-72107057D01*
X115368452Y-71965133D01*
X115213953Y-71852883D01*
X115213952Y-71852882D01*
X115039488Y-71775206D01*
X114852687Y-71735500D01*
X114661713Y-71735500D01*
X114537179Y-71761970D01*
X114474911Y-71775206D01*
X114300446Y-71852883D01*
X114145947Y-71965133D01*
X114018158Y-72107057D01*
X113922672Y-72272443D01*
X113863658Y-72454070D01*
X113843696Y-72643999D01*
X105156000Y-72643999D01*
X105156000Y-69599534D01*
X105156000Y-69599533D01*
X105156000Y-69596000D01*
X105156000Y-69595999D01*
X105156000Y-68834000D01*
X104394000Y-68834000D01*
X104390465Y-68834000D01*
X76715079Y-68834000D01*
X76700971Y-68833208D01*
X76552543Y-68816484D01*
X76525037Y-68810205D01*
X76390783Y-68763227D01*
X76365365Y-68750987D01*
X76244918Y-68675306D01*
X76222858Y-68657713D01*
X76122286Y-68557141D01*
X76104693Y-68535081D01*
X76029012Y-68414634D01*
X76016773Y-68389220D01*
X75969792Y-68254956D01*
X75963516Y-68227460D01*
X75946792Y-68079028D01*
X75946000Y-68064921D01*
X75946000Y-67564000D01*
X91669496Y-67564000D01*
X91689458Y-67753929D01*
X91748472Y-67935556D01*
X91843958Y-68100942D01*
X91843960Y-68100944D01*
X91971747Y-68242866D01*
X92126248Y-68355118D01*
X92300712Y-68432794D01*
X92487513Y-68472500D01*
X92487515Y-68472500D01*
X92678485Y-68472500D01*
X92678487Y-68472500D01*
X92865288Y-68432794D01*
X93039752Y-68355118D01*
X93194253Y-68242866D01*
X93322040Y-68100944D01*
X93417527Y-67935556D01*
X93476542Y-67753928D01*
X93496504Y-67564000D01*
X108179496Y-67564000D01*
X108199458Y-67753929D01*
X108258472Y-67935556D01*
X108353958Y-68100942D01*
X108353960Y-68100944D01*
X108481747Y-68242866D01*
X108636248Y-68355118D01*
X108810712Y-68432794D01*
X108997513Y-68472500D01*
X108997515Y-68472500D01*
X109188485Y-68472500D01*
X109188487Y-68472500D01*
X109375288Y-68432794D01*
X109549752Y-68355118D01*
X109704253Y-68242866D01*
X109832040Y-68100944D01*
X109869536Y-68035999D01*
X129923677Y-68035999D01*
X129942930Y-68256068D01*
X130000105Y-68469449D01*
X130093466Y-68669663D01*
X130220176Y-68850623D01*
X130376376Y-69006823D01*
X130557336Y-69133533D01*
X130557337Y-69133533D01*
X130557338Y-69133534D01*
X130757550Y-69226894D01*
X130970932Y-69284070D01*
X131191000Y-69303323D01*
X131411068Y-69284070D01*
X131624450Y-69226894D01*
X131824662Y-69133534D01*
X132005620Y-69006826D01*
X132161826Y-68850620D01*
X132288534Y-68669662D01*
X132346805Y-68544696D01*
X132393722Y-68491413D01*
X132461999Y-68471952D01*
X132529959Y-68492494D01*
X132575195Y-68544698D01*
X132633466Y-68669663D01*
X132760176Y-68850623D01*
X132916376Y-69006823D01*
X133097336Y-69133533D01*
X133097337Y-69133533D01*
X133097338Y-69133534D01*
X133297550Y-69226894D01*
X133510932Y-69284070D01*
X133731000Y-69303323D01*
X133951068Y-69284070D01*
X134164450Y-69226894D01*
X134364662Y-69133534D01*
X134545620Y-69006826D01*
X134701826Y-68850620D01*
X134779287Y-68739993D01*
X134834744Y-68695666D01*
X134905363Y-68688357D01*
X134968724Y-68720388D01*
X135004709Y-68781589D01*
X135008500Y-68812264D01*
X135008500Y-68838638D01*
X135015011Y-68899201D01*
X135040561Y-68967702D01*
X135066111Y-69036205D01*
X135153738Y-69153261D01*
X135270794Y-69240888D01*
X135270795Y-69240888D01*
X135270796Y-69240889D01*
X135407799Y-69291989D01*
X135468362Y-69298500D01*
X135471731Y-69298500D01*
X137070269Y-69298500D01*
X137073638Y-69298500D01*
X137134201Y-69291989D01*
X137271204Y-69240889D01*
X137388261Y-69153261D01*
X137475889Y-69036204D01*
X137526989Y-68899201D01*
X137533500Y-68838638D01*
X137533500Y-68047124D01*
X142991967Y-68047124D01*
X143011266Y-68280031D01*
X143011266Y-68280034D01*
X143011267Y-68280035D01*
X143068636Y-68506583D01*
X143162516Y-68720605D01*
X143290340Y-68916256D01*
X143373713Y-69006823D01*
X143448624Y-69088198D01*
X143596164Y-69203033D01*
X143633051Y-69231743D01*
X143765319Y-69303322D01*
X143838588Y-69342973D01*
X144059630Y-69418857D01*
X144174888Y-69438090D01*
X144290145Y-69457324D01*
X144290148Y-69457324D01*
X144523855Y-69457324D01*
X144622645Y-69440838D01*
X144754370Y-69418857D01*
X144975412Y-69342973D01*
X145180950Y-69231742D01*
X145365376Y-69088198D01*
X145523660Y-68916255D01*
X145651484Y-68720605D01*
X145745363Y-68506584D01*
X145802734Y-68280031D01*
X145822033Y-68047124D01*
X145802734Y-67814217D01*
X145745363Y-67587664D01*
X145651484Y-67373643D01*
X145552006Y-67221380D01*
X145523659Y-67177991D01*
X145365379Y-67006053D01*
X145365378Y-67006052D01*
X145365376Y-67006050D01*
X145210023Y-66885134D01*
X145180948Y-66862504D01*
X144975411Y-66751274D01*
X144812089Y-66695206D01*
X144754370Y-66675391D01*
X144754367Y-66675390D01*
X144754366Y-66675390D01*
X144523855Y-66636924D01*
X144523852Y-66636924D01*
X144290148Y-66636924D01*
X144290145Y-66636924D01*
X144059633Y-66675390D01*
X143838588Y-66751274D01*
X143633051Y-66862504D01*
X143448620Y-67006053D01*
X143290340Y-67177991D01*
X143162516Y-67373642D01*
X143068636Y-67587664D01*
X143026533Y-67753928D01*
X143011266Y-67814217D01*
X142991967Y-68047124D01*
X137533500Y-68047124D01*
X137533500Y-67233362D01*
X137526989Y-67172799D01*
X137475889Y-67035796D01*
X137475888Y-67035794D01*
X137388261Y-66918738D01*
X137271205Y-66831111D01*
X137155432Y-66787930D01*
X137134201Y-66780011D01*
X137073638Y-66773500D01*
X135468362Y-66773500D01*
X135465013Y-66773859D01*
X135465013Y-66773860D01*
X135407799Y-66780011D01*
X135270794Y-66831111D01*
X135153738Y-66918738D01*
X135066111Y-67035794D01*
X135055153Y-67065174D01*
X135015011Y-67172799D01*
X135008500Y-67233362D01*
X135008500Y-67236730D01*
X135008500Y-67259736D01*
X134988498Y-67327857D01*
X134934842Y-67374350D01*
X134864568Y-67384454D01*
X134799988Y-67354960D01*
X134779287Y-67332007D01*
X134776381Y-67327857D01*
X134701826Y-67221380D01*
X134545620Y-67065174D01*
X134503661Y-67035794D01*
X134364663Y-66938466D01*
X134164449Y-66845105D01*
X133951068Y-66787930D01*
X133786128Y-66773500D01*
X133731000Y-66768677D01*
X133730999Y-66768677D01*
X133510927Y-66787930D01*
X133297553Y-66845105D01*
X133297552Y-66845105D01*
X133297550Y-66845106D01*
X133211710Y-66885134D01*
X133097335Y-66938468D01*
X132916379Y-67065174D01*
X132760174Y-67221379D01*
X132633466Y-67402338D01*
X132575193Y-67527304D01*
X132528276Y-67580588D01*
X132459999Y-67600049D01*
X132392039Y-67579507D01*
X132346806Y-67527304D01*
X132288534Y-67402339D01*
X132288531Y-67402335D01*
X132172574Y-67236730D01*
X132161826Y-67221380D01*
X132005620Y-67065174D01*
X131963661Y-67035794D01*
X131824663Y-66938466D01*
X131624449Y-66845105D01*
X131411068Y-66787930D01*
X131246128Y-66773500D01*
X131191000Y-66768677D01*
X131190999Y-66768677D01*
X130970927Y-66787930D01*
X130757553Y-66845105D01*
X130757552Y-66845105D01*
X130757550Y-66845106D01*
X130671710Y-66885134D01*
X130557335Y-66938468D01*
X130376379Y-67065174D01*
X130220174Y-67221379D01*
X130093468Y-67402335D01*
X130093467Y-67402337D01*
X130093466Y-67402339D01*
X130001273Y-67600049D01*
X130000105Y-67602553D01*
X129942930Y-67815927D01*
X129923677Y-68035999D01*
X109869536Y-68035999D01*
X109927527Y-67935556D01*
X109986542Y-67753928D01*
X110006504Y-67564000D01*
X109986542Y-67374072D01*
X109927527Y-67192444D01*
X109927527Y-67192443D01*
X109832041Y-67027057D01*
X109704252Y-66885133D01*
X109627002Y-66829008D01*
X109549752Y-66772882D01*
X109375288Y-66695206D01*
X109188487Y-66655500D01*
X108997513Y-66655500D01*
X108903934Y-66675391D01*
X108810711Y-66695206D01*
X108636246Y-66772883D01*
X108481747Y-66885133D01*
X108353958Y-67027057D01*
X108258472Y-67192443D01*
X108199458Y-67374070D01*
X108179496Y-67564000D01*
X93496504Y-67564000D01*
X93476542Y-67374072D01*
X93417527Y-67192444D01*
X93417527Y-67192443D01*
X93322041Y-67027057D01*
X93194252Y-66885133D01*
X93117002Y-66829008D01*
X93039752Y-66772882D01*
X92865288Y-66695206D01*
X92678487Y-66655500D01*
X92487513Y-66655500D01*
X92393934Y-66675391D01*
X92300711Y-66695206D01*
X92126246Y-66772883D01*
X91971747Y-66885133D01*
X91843958Y-67027057D01*
X91748472Y-67192443D01*
X91689458Y-67374070D01*
X91669496Y-67564000D01*
X75946000Y-67564000D01*
X75946000Y-64515999D01*
X81001496Y-64515999D01*
X81021458Y-64705929D01*
X81080472Y-64887556D01*
X81175958Y-65052942D01*
X81207589Y-65088072D01*
X81303747Y-65194866D01*
X81458248Y-65307118D01*
X81632712Y-65384794D01*
X81819513Y-65424500D01*
X81819515Y-65424500D01*
X82010485Y-65424500D01*
X82010487Y-65424500D01*
X82197288Y-65384794D01*
X82371752Y-65307118D01*
X82526253Y-65194866D01*
X82654040Y-65052944D01*
X82749527Y-64887556D01*
X82808542Y-64705928D01*
X82828504Y-64516000D01*
X82808542Y-64326072D01*
X82749527Y-64144444D01*
X82749527Y-64144443D01*
X82654041Y-63979057D01*
X82526252Y-63837133D01*
X82384017Y-63733793D01*
X82371752Y-63724882D01*
X82197288Y-63647206D01*
X82010487Y-63607500D01*
X81819513Y-63607500D01*
X81694979Y-63633970D01*
X81632711Y-63647206D01*
X81492696Y-63709544D01*
X81467855Y-63720605D01*
X81458246Y-63724883D01*
X81303747Y-63837133D01*
X81175958Y-63979057D01*
X81080472Y-64144443D01*
X81021458Y-64326070D01*
X81001496Y-64515999D01*
X75946000Y-64515999D01*
X75946000Y-62230000D01*
X82271496Y-62230000D01*
X82291458Y-62419929D01*
X82350472Y-62601556D01*
X82445958Y-62766942D01*
X82445960Y-62766944D01*
X82573747Y-62908866D01*
X82728248Y-63021118D01*
X82902712Y-63098794D01*
X83089513Y-63138500D01*
X83089515Y-63138500D01*
X83280485Y-63138500D01*
X83280487Y-63138500D01*
X83467288Y-63098794D01*
X83641752Y-63021118D01*
X83796253Y-62908866D01*
X83835750Y-62865000D01*
X93320496Y-62865000D01*
X93340458Y-63054929D01*
X93399472Y-63236556D01*
X93494958Y-63401942D01*
X93494960Y-63401944D01*
X93622747Y-63543866D01*
X93777248Y-63656118D01*
X93951712Y-63733794D01*
X94138513Y-63773500D01*
X94138515Y-63773500D01*
X94329485Y-63773500D01*
X94329487Y-63773500D01*
X94516288Y-63733794D01*
X94690752Y-63656118D01*
X94845253Y-63543866D01*
X94973040Y-63401944D01*
X95068527Y-63236556D01*
X95127542Y-63054928D01*
X95147504Y-62865000D01*
X95127542Y-62675072D01*
X95068527Y-62493444D01*
X95068527Y-62493443D01*
X94973041Y-62328057D01*
X94845252Y-62186133D01*
X94690753Y-62073883D01*
X94690752Y-62073882D01*
X94516288Y-61996206D01*
X94329487Y-61956500D01*
X94138513Y-61956500D01*
X94013979Y-61982970D01*
X93951711Y-61996206D01*
X93777246Y-62073883D01*
X93622747Y-62186133D01*
X93494958Y-62328057D01*
X93399472Y-62493443D01*
X93340458Y-62675070D01*
X93320496Y-62865000D01*
X83835750Y-62865000D01*
X83924040Y-62766944D01*
X84019527Y-62601556D01*
X84078542Y-62419928D01*
X84098504Y-62230000D01*
X84078542Y-62040072D01*
X84042905Y-61930393D01*
X84019527Y-61858443D01*
X83924041Y-61693057D01*
X83796252Y-61551133D01*
X83641753Y-61438883D01*
X83641752Y-61438882D01*
X83467288Y-61361206D01*
X83280487Y-61321500D01*
X83089513Y-61321500D01*
X82964978Y-61347970D01*
X82902711Y-61361206D01*
X82728246Y-61438883D01*
X82573747Y-61551133D01*
X82445958Y-61693057D01*
X82350472Y-61858443D01*
X82291458Y-62040070D01*
X82271496Y-62230000D01*
X75946000Y-62230000D01*
X75946000Y-61729078D01*
X75946792Y-61714971D01*
X75951252Y-61675390D01*
X75963516Y-61566537D01*
X75969791Y-61539045D01*
X76016774Y-61404775D01*
X76029012Y-61379365D01*
X76104693Y-61258918D01*
X76122282Y-61236862D01*
X76222862Y-61136282D01*
X76244918Y-61118693D01*
X76317910Y-61072830D01*
X76365365Y-61043011D01*
X76390775Y-61030774D01*
X76525045Y-60983791D01*
X76552537Y-60977516D01*
X76678586Y-60963314D01*
X76700972Y-60960792D01*
X76715079Y-60960000D01*
X112957567Y-60960000D01*
X113025688Y-60980002D01*
X113072181Y-61033658D01*
X113082875Y-61072825D01*
X113090980Y-61149928D01*
X113101658Y-61251529D01*
X113160672Y-61433156D01*
X113256158Y-61598542D01*
X113256160Y-61598544D01*
X113383947Y-61740466D01*
X113538448Y-61852718D01*
X113712912Y-61930394D01*
X113899713Y-61970100D01*
X113899715Y-61970100D01*
X114090685Y-61970100D01*
X114090687Y-61970100D01*
X114277488Y-61930394D01*
X114451952Y-61852718D01*
X114606453Y-61740466D01*
X114606453Y-61740464D01*
X114607939Y-61739386D01*
X114674806Y-61715528D01*
X114743958Y-61731608D01*
X114793438Y-61782522D01*
X114808000Y-61841321D01*
X114808000Y-66548000D01*
X124963878Y-66548000D01*
X124968000Y-66548000D01*
X125476000Y-66548000D01*
X125476000Y-66040000D01*
X125491145Y-65924960D01*
X125499654Y-65893202D01*
X125537714Y-65801316D01*
X125554153Y-65772844D01*
X125614698Y-65693941D01*
X125637941Y-65670698D01*
X125716844Y-65610153D01*
X125745316Y-65593714D01*
X125837202Y-65555654D01*
X125868960Y-65547145D01*
X125959883Y-65535175D01*
X125975813Y-65533078D01*
X125992259Y-65532000D01*
X132584465Y-65532000D01*
X132588000Y-65532000D01*
X133350000Y-65532000D01*
X133350000Y-65277999D01*
X135611496Y-65277999D01*
X135631458Y-65467929D01*
X135690472Y-65649556D01*
X135785958Y-65814942D01*
X135885019Y-65924960D01*
X135913747Y-65956866D01*
X136068248Y-66069118D01*
X136242712Y-66146794D01*
X136429513Y-66186500D01*
X136429515Y-66186500D01*
X136620485Y-66186500D01*
X136620487Y-66186500D01*
X136807288Y-66146794D01*
X136981752Y-66069118D01*
X137136253Y-65956866D01*
X137264040Y-65814944D01*
X137359527Y-65649556D01*
X137418542Y-65467928D01*
X137438504Y-65278000D01*
X137418542Y-65088072D01*
X137364696Y-64922352D01*
X137362669Y-64851384D01*
X137384701Y-64810576D01*
X137384418Y-64810413D01*
X137390160Y-64800466D01*
X137390896Y-64799102D01*
X137391040Y-64798944D01*
X137486527Y-64633556D01*
X137545542Y-64451928D01*
X137565504Y-64262000D01*
X137545542Y-64072072D01*
X137486527Y-63890444D01*
X137486527Y-63890443D01*
X137391041Y-63725057D01*
X137263252Y-63583133D01*
X137108753Y-63470883D01*
X137108752Y-63470882D01*
X136934288Y-63393206D01*
X136747487Y-63353500D01*
X136556513Y-63353500D01*
X136431979Y-63379970D01*
X136369711Y-63393206D01*
X136195246Y-63470883D01*
X136040747Y-63583133D01*
X135912958Y-63725057D01*
X135817472Y-63890443D01*
X135758458Y-64072070D01*
X135738496Y-64261999D01*
X135758458Y-64451929D01*
X135812303Y-64617646D01*
X135814330Y-64688614D01*
X135792299Y-64729425D01*
X135792581Y-64729588D01*
X135786894Y-64739436D01*
X135786113Y-64740885D01*
X135785961Y-64741053D01*
X135690472Y-64906444D01*
X135631458Y-65088070D01*
X135611496Y-65277999D01*
X133350000Y-65277999D01*
X133350000Y-63047124D01*
X142991967Y-63047124D01*
X143011266Y-63280031D01*
X143011266Y-63280034D01*
X143011267Y-63280035D01*
X143068636Y-63506583D01*
X143162516Y-63720605D01*
X143290340Y-63916256D01*
X143433777Y-64072070D01*
X143448624Y-64088198D01*
X143589606Y-64197928D01*
X143633051Y-64231743D01*
X143838588Y-64342973D01*
X144059630Y-64418857D01*
X144174888Y-64438090D01*
X144290145Y-64457324D01*
X144290148Y-64457324D01*
X144523855Y-64457324D01*
X144622645Y-64440838D01*
X144754370Y-64418857D01*
X144975412Y-64342973D01*
X145180950Y-64231742D01*
X145365376Y-64088198D01*
X145523660Y-63916255D01*
X145651484Y-63720605D01*
X145745363Y-63506584D01*
X145802734Y-63280031D01*
X145822033Y-63047124D01*
X145802734Y-62814217D01*
X145745363Y-62587664D01*
X145651484Y-62373643D01*
X145523660Y-62177993D01*
X145523659Y-62177991D01*
X145365379Y-62006053D01*
X145365378Y-62006052D01*
X145365376Y-62006050D01*
X145254720Y-61919923D01*
X145180948Y-61862504D01*
X144975411Y-61751274D01*
X144805826Y-61693056D01*
X144754370Y-61675391D01*
X144754367Y-61675390D01*
X144754366Y-61675390D01*
X144523855Y-61636924D01*
X144523852Y-61636924D01*
X144290148Y-61636924D01*
X144290145Y-61636924D01*
X144059633Y-61675390D01*
X143838588Y-61751274D01*
X143633051Y-61862504D01*
X143448620Y-62006053D01*
X143290340Y-62177991D01*
X143162516Y-62373642D01*
X143068636Y-62587664D01*
X143023237Y-62766944D01*
X143011266Y-62814217D01*
X142991967Y-63047124D01*
X133350000Y-63047124D01*
X133350000Y-60960000D01*
X133350000Y-56642000D01*
X144945844Y-56642000D01*
X144964436Y-56866368D01*
X144964436Y-56866371D01*
X144964437Y-56866372D01*
X145019702Y-57084611D01*
X145110139Y-57290790D01*
X145170902Y-57383794D01*
X145233278Y-57479268D01*
X145345525Y-57601200D01*
X145385762Y-57644908D01*
X145563421Y-57783187D01*
X145563424Y-57783189D01*
X145761426Y-57890342D01*
X145974365Y-57963444D01*
X146196431Y-58000500D01*
X146196434Y-58000500D01*
X146421566Y-58000500D01*
X146421569Y-58000500D01*
X146643635Y-57963444D01*
X146856574Y-57890342D01*
X147054576Y-57783189D01*
X147232240Y-57644906D01*
X147293246Y-57578635D01*
X147354096Y-57542067D01*
X147425061Y-57544200D01*
X147483606Y-57584362D01*
X147504000Y-57619942D01*
X147548109Y-57738203D01*
X147635738Y-57855261D01*
X147752794Y-57942888D01*
X147752795Y-57942888D01*
X147752796Y-57942889D01*
X147889799Y-57993989D01*
X147950362Y-58000500D01*
X147953731Y-58000500D01*
X149744269Y-58000500D01*
X149747638Y-58000500D01*
X149808201Y-57993989D01*
X149945204Y-57942889D01*
X150062261Y-57855261D01*
X150149889Y-57738204D01*
X150200989Y-57601201D01*
X150207500Y-57540638D01*
X150207500Y-55743362D01*
X150200989Y-55682799D01*
X150149889Y-55545796D01*
X150149888Y-55545794D01*
X150062261Y-55428738D01*
X149945205Y-55341111D01*
X149876702Y-55315561D01*
X149808201Y-55290011D01*
X149747638Y-55283500D01*
X147950362Y-55283500D01*
X147947013Y-55283859D01*
X147947013Y-55283860D01*
X147889799Y-55290011D01*
X147752794Y-55341111D01*
X147635738Y-55428738D01*
X147548109Y-55545796D01*
X147504000Y-55664057D01*
X147461453Y-55720893D01*
X147394933Y-55745703D01*
X147325559Y-55730611D01*
X147293246Y-55705363D01*
X147232240Y-55639094D01*
X147232239Y-55639093D01*
X147232237Y-55639091D01*
X147054578Y-55500812D01*
X146856573Y-55393657D01*
X146703510Y-55341111D01*
X146643635Y-55320556D01*
X146421569Y-55283500D01*
X146196431Y-55283500D01*
X145974365Y-55320556D01*
X145974362Y-55320556D01*
X145974362Y-55320557D01*
X145761426Y-55393657D01*
X145563421Y-55500812D01*
X145385762Y-55639091D01*
X145233278Y-55804731D01*
X145110139Y-55993209D01*
X145019702Y-56199388D01*
X144987875Y-56325072D01*
X144964436Y-56417632D01*
X144945844Y-56642000D01*
X133350000Y-56642000D01*
X133350000Y-56141078D01*
X133350792Y-56126971D01*
X133365863Y-55993209D01*
X133367516Y-55978538D01*
X133373791Y-55951045D01*
X133420774Y-55816775D01*
X133433012Y-55791365D01*
X133508693Y-55670918D01*
X133526282Y-55648862D01*
X133626862Y-55548282D01*
X133648918Y-55530693D01*
X133769365Y-55455012D01*
X133794775Y-55442774D01*
X133929045Y-55395791D01*
X133956537Y-55389516D01*
X134082586Y-55375314D01*
X134104972Y-55372792D01*
X134119079Y-55372000D01*
X139950032Y-55372000D01*
X139953577Y-55372000D01*
X140716000Y-55372000D01*
X140712103Y-48356186D01*
X140732067Y-48288058D01*
X140755019Y-48261395D01*
X140878290Y-48153290D01*
X140896484Y-48132544D01*
X142548500Y-48132544D01*
X142548824Y-48135724D01*
X142548826Y-48135745D01*
X142559112Y-48236424D01*
X142614884Y-48404734D01*
X142614886Y-48404737D01*
X142707970Y-48555651D01*
X142833349Y-48681030D01*
X142984263Y-48774114D01*
X142984265Y-48774115D01*
X143152575Y-48829887D01*
X143253254Y-48840173D01*
X143253256Y-48840173D01*
X143256456Y-48840500D01*
X143259661Y-48840500D01*
X146554339Y-48840500D01*
X146557544Y-48840500D01*
X146661425Y-48829887D01*
X146829737Y-48774114D01*
X146980651Y-48681030D01*
X147106030Y-48555651D01*
X147199114Y-48404737D01*
X147254887Y-48236425D01*
X147265500Y-48132544D01*
X147265500Y-44831456D01*
X147263737Y-44814204D01*
X147254887Y-44727575D01*
X147199115Y-44559265D01*
X147199114Y-44559263D01*
X147106030Y-44408349D01*
X146980651Y-44282970D01*
X146854381Y-44205086D01*
X146829734Y-44189884D01*
X146661424Y-44134112D01*
X146560745Y-44123826D01*
X146560724Y-44123824D01*
X146557544Y-44123500D01*
X143256456Y-44123500D01*
X143253276Y-44123824D01*
X143253254Y-44123826D01*
X143152575Y-44134112D01*
X142984265Y-44189884D01*
X142833346Y-44282972D01*
X142707972Y-44408346D01*
X142614884Y-44559265D01*
X142559112Y-44727575D01*
X142548826Y-44828254D01*
X142548824Y-44828276D01*
X142548500Y-44831456D01*
X142548500Y-48132544D01*
X140896484Y-48132544D01*
X141082139Y-47920845D01*
X141253904Y-47663781D01*
X141390646Y-47386496D01*
X141490025Y-47093735D01*
X141550340Y-46790507D01*
X141570561Y-46482000D01*
X141550340Y-46173493D01*
X141490025Y-45870265D01*
X141390646Y-45577504D01*
X141253904Y-45300220D01*
X141082139Y-45043155D01*
X140878290Y-44810710D01*
X140645845Y-44606861D01*
X140388781Y-44435096D01*
X140385081Y-44433271D01*
X140385077Y-44433269D01*
X140115194Y-44300177D01*
X140115185Y-44300173D01*
X140111496Y-44298354D01*
X139818735Y-44198975D01*
X139814695Y-44198171D01*
X139814690Y-44198170D01*
X139519550Y-44139464D01*
X139519547Y-44139463D01*
X139515507Y-44138660D01*
X139511396Y-44138390D01*
X139511392Y-44138390D01*
X139211119Y-44118709D01*
X139207000Y-44118439D01*
X139202881Y-44118709D01*
X138902607Y-44138390D01*
X138902601Y-44138390D01*
X138898493Y-44138660D01*
X138894454Y-44139463D01*
X138894449Y-44139464D01*
X138599309Y-44198170D01*
X138599300Y-44198172D01*
X138595265Y-44198975D01*
X138591361Y-44200300D01*
X138591358Y-44200301D01*
X138306418Y-44297025D01*
X138306412Y-44297027D01*
X138302504Y-44298354D01*
X138298807Y-44300176D01*
X138298800Y-44300180D01*
X138028922Y-44433270D01*
X138028917Y-44433272D01*
X138025220Y-44435096D01*
X138021793Y-44437385D01*
X138021784Y-44437391D01*
X137771585Y-44604568D01*
X137771573Y-44604576D01*
X137768155Y-44606861D01*
X137765060Y-44609574D01*
X137765055Y-44609579D01*
X137538798Y-44808001D01*
X137538790Y-44808008D01*
X137535710Y-44810710D01*
X137533008Y-44813790D01*
X137533001Y-44813798D01*
X137334579Y-45040055D01*
X137334574Y-45040060D01*
X137331861Y-45043155D01*
X137329571Y-45046581D01*
X137329568Y-45046586D01*
X137204611Y-45233596D01*
X137150134Y-45279124D01*
X137102550Y-45289565D01*
X136012222Y-45312968D01*
X133305202Y-45371072D01*
X133236670Y-45352537D01*
X133189036Y-45299892D01*
X133176500Y-45245102D01*
X133176500Y-42621661D01*
X133176500Y-42621660D01*
X133176500Y-42618456D01*
X133165887Y-42514575D01*
X133110115Y-42346262D01*
X133017030Y-42195349D01*
X133017028Y-42195347D01*
X133017027Y-42195345D01*
X132891654Y-42069972D01*
X132865698Y-42053962D01*
X132740738Y-41976885D01*
X132572425Y-41921113D01*
X132572422Y-41921112D01*
X132471745Y-41910826D01*
X132471724Y-41910824D01*
X132468544Y-41910500D01*
X130167456Y-41910500D01*
X130164276Y-41910824D01*
X130164254Y-41910826D01*
X130063577Y-41921112D01*
X129895262Y-41976885D01*
X129744345Y-42069972D01*
X129618972Y-42195345D01*
X129525885Y-42346262D01*
X129470112Y-42514577D01*
X129459826Y-42615254D01*
X129459824Y-42615276D01*
X129459500Y-42618456D01*
X129459500Y-42621660D01*
X129459500Y-42621661D01*
X129459500Y-45225910D01*
X129439498Y-45294031D01*
X129385842Y-45340524D01*
X129315568Y-45350628D01*
X129267909Y-45333492D01*
X129206341Y-45295955D01*
X129183759Y-45278381D01*
X129080719Y-45177442D01*
X129062684Y-45155228D01*
X128993337Y-45046586D01*
X128985068Y-45033631D01*
X128972514Y-45007924D01*
X128928992Y-44885093D01*
X128925095Y-44814204D01*
X128927094Y-44806730D01*
X128936889Y-44774175D01*
X128976500Y-44505025D01*
X128976500Y-43701080D01*
X128961613Y-43497676D01*
X128904307Y-43240424D01*
X128901294Y-43212936D01*
X128904269Y-39751200D01*
X128904268Y-39751196D01*
X128904410Y-39585000D01*
X129740271Y-39585000D01*
X129762170Y-39639336D01*
X129898000Y-39867810D01*
X130067105Y-40072863D01*
X130265534Y-40249701D01*
X130301999Y-40273315D01*
X130301999Y-40271092D01*
X132333999Y-40271092D01*
X132473063Y-40165090D01*
X132657381Y-39973572D01*
X132810294Y-39756176D01*
X132895048Y-39585000D01*
X132334000Y-39585000D01*
X132333999Y-40271092D01*
X130301999Y-40271092D01*
X130302000Y-39585000D01*
X129740271Y-39585000D01*
X128904410Y-39585000D01*
X128904584Y-39381548D01*
X128936889Y-39274175D01*
X128976500Y-39005025D01*
X128976500Y-38653995D01*
X130618000Y-38653995D01*
X130658682Y-38819046D01*
X130737680Y-38969566D01*
X130850405Y-39096806D01*
X130990305Y-39193371D01*
X131149249Y-39253651D01*
X131275660Y-39269000D01*
X131360340Y-39269000D01*
X131486751Y-39253651D01*
X131645695Y-39193371D01*
X131785595Y-39096806D01*
X131898320Y-38969566D01*
X131977318Y-38819046D01*
X132018000Y-38653995D01*
X132018000Y-38484005D01*
X131977318Y-38318954D01*
X131898320Y-38168434D01*
X131785595Y-38041194D01*
X131743300Y-38012000D01*
X135440605Y-38012000D01*
X135460148Y-38235380D01*
X135518183Y-38451972D01*
X135612949Y-38655198D01*
X135741566Y-38838882D01*
X135900117Y-38997433D01*
X136083801Y-39126050D01*
X136083802Y-39126050D01*
X136083803Y-39126051D01*
X136287027Y-39220816D01*
X136503620Y-39278852D01*
X136671049Y-39293500D01*
X136673789Y-39293500D01*
X136780211Y-39293500D01*
X136782951Y-39293500D01*
X136950380Y-39278852D01*
X137144024Y-39226965D01*
X137215000Y-39228655D01*
X137273796Y-39268449D01*
X137301744Y-39333713D01*
X137289971Y-39403727D01*
X137281400Y-39418673D01*
X137162395Y-39596777D01*
X137162385Y-39596793D01*
X137160096Y-39600220D01*
X137158272Y-39603917D01*
X137158270Y-39603922D01*
X137025180Y-39873800D01*
X137025176Y-39873807D01*
X137023354Y-39877504D01*
X137022027Y-39881412D01*
X137022025Y-39881418D01*
X136925301Y-40166358D01*
X136923975Y-40170265D01*
X136923172Y-40174300D01*
X136923170Y-40174309D01*
X136881353Y-40384542D01*
X136863660Y-40473493D01*
X136843439Y-40782000D01*
X136863660Y-41090507D01*
X136923975Y-41393735D01*
X137023354Y-41686496D01*
X137025173Y-41690185D01*
X137025177Y-41690194D01*
X137158269Y-41960077D01*
X137160096Y-41963781D01*
X137331861Y-42220845D01*
X137535710Y-42453290D01*
X137768155Y-42657139D01*
X138025219Y-42828904D01*
X138302504Y-42965646D01*
X138595265Y-43065025D01*
X138898493Y-43125340D01*
X139207000Y-43145561D01*
X139515507Y-43125340D01*
X139818735Y-43065025D01*
X140111496Y-42965646D01*
X140388781Y-42828904D01*
X140645845Y-42657139D01*
X140878290Y-42453290D01*
X141082139Y-42220845D01*
X141253904Y-41963781D01*
X141390646Y-41686496D01*
X141490025Y-41393735D01*
X141550340Y-41090507D01*
X141570561Y-40782000D01*
X142543439Y-40782000D01*
X142563660Y-41090507D01*
X142623975Y-41393735D01*
X142723354Y-41686496D01*
X142725173Y-41690185D01*
X142725177Y-41690194D01*
X142858269Y-41960077D01*
X142860096Y-41963781D01*
X143031861Y-42220845D01*
X143235710Y-42453290D01*
X143468155Y-42657139D01*
X143725219Y-42828904D01*
X144002504Y-42965646D01*
X144295265Y-43065025D01*
X144598493Y-43125340D01*
X144907000Y-43145561D01*
X145215507Y-43125340D01*
X145518735Y-43065025D01*
X145811496Y-42965646D01*
X146088781Y-42828904D01*
X146345845Y-42657139D01*
X146578290Y-42453290D01*
X146782139Y-42220845D01*
X146953904Y-41963781D01*
X147090646Y-41686496D01*
X147190025Y-41393735D01*
X147250340Y-41090507D01*
X147270561Y-40782000D01*
X147250340Y-40473493D01*
X147190025Y-40170265D01*
X147090646Y-39877504D01*
X146953904Y-39600220D01*
X146782139Y-39343155D01*
X146578290Y-39110710D01*
X146345845Y-38906861D01*
X146088781Y-38735096D01*
X146085081Y-38733271D01*
X146085077Y-38733269D01*
X145815194Y-38600177D01*
X145815185Y-38600173D01*
X145811496Y-38598354D01*
X145518735Y-38498975D01*
X145514695Y-38498171D01*
X145514690Y-38498170D01*
X145219550Y-38439464D01*
X145219547Y-38439463D01*
X145215507Y-38438660D01*
X145211396Y-38438390D01*
X145211392Y-38438390D01*
X144911119Y-38418709D01*
X144907000Y-38418439D01*
X144902881Y-38418709D01*
X144602607Y-38438390D01*
X144602601Y-38438390D01*
X144598493Y-38438660D01*
X144594454Y-38439463D01*
X144594449Y-38439464D01*
X144299309Y-38498170D01*
X144299300Y-38498172D01*
X144295265Y-38498975D01*
X144291361Y-38500300D01*
X144291358Y-38500301D01*
X144006418Y-38597025D01*
X144006412Y-38597027D01*
X144002504Y-38598354D01*
X143998807Y-38600176D01*
X143998800Y-38600180D01*
X143728922Y-38733270D01*
X143728917Y-38733272D01*
X143725220Y-38735096D01*
X143721793Y-38737385D01*
X143721784Y-38737391D01*
X143471585Y-38904568D01*
X143471573Y-38904576D01*
X143468155Y-38906861D01*
X143465060Y-38909574D01*
X143465055Y-38909579D01*
X143238798Y-39108001D01*
X143238790Y-39108008D01*
X143235710Y-39110710D01*
X143233008Y-39113790D01*
X143233001Y-39113798D01*
X143034579Y-39340055D01*
X143034574Y-39340060D01*
X143031861Y-39343155D01*
X143029576Y-39346573D01*
X143029568Y-39346585D01*
X142862391Y-39596784D01*
X142862385Y-39596793D01*
X142860096Y-39600220D01*
X142858272Y-39603917D01*
X142858270Y-39603922D01*
X142725180Y-39873800D01*
X142725176Y-39873807D01*
X142723354Y-39877504D01*
X142722027Y-39881412D01*
X142722025Y-39881418D01*
X142625301Y-40166358D01*
X142623975Y-40170265D01*
X142623172Y-40174300D01*
X142623170Y-40174309D01*
X142581353Y-40384542D01*
X142563660Y-40473493D01*
X142543439Y-40782000D01*
X141570561Y-40782000D01*
X141550340Y-40473493D01*
X141490025Y-40170265D01*
X141390646Y-39877504D01*
X141253904Y-39600220D01*
X141082139Y-39343155D01*
X140878290Y-39110710D01*
X140645845Y-38906861D01*
X140388781Y-38735096D01*
X140385081Y-38733271D01*
X140385077Y-38733269D01*
X140115194Y-38600177D01*
X140115185Y-38600173D01*
X140111496Y-38598354D01*
X139818735Y-38498975D01*
X139814695Y-38498171D01*
X139814690Y-38498170D01*
X139519550Y-38439464D01*
X139519547Y-38439463D01*
X139515507Y-38438660D01*
X139511396Y-38438390D01*
X139511392Y-38438390D01*
X139211119Y-38418709D01*
X139207000Y-38418439D01*
X139202881Y-38418709D01*
X138902607Y-38438390D01*
X138902601Y-38438390D01*
X138898493Y-38438660D01*
X138894454Y-38439463D01*
X138894449Y-38439464D01*
X138599309Y-38498170D01*
X138599300Y-38498172D01*
X138595265Y-38498975D01*
X138591361Y-38500300D01*
X138591358Y-38500301D01*
X138306418Y-38597025D01*
X138306412Y-38597027D01*
X138302504Y-38598354D01*
X138298806Y-38600177D01*
X138298793Y-38600183D01*
X138059014Y-38718429D01*
X137989072Y-38730619D01*
X137923642Y-38703060D01*
X137883499Y-38644502D01*
X137881388Y-38573536D01*
X137889089Y-38552177D01*
X137935816Y-38451973D01*
X137993852Y-38235380D01*
X138013395Y-38012000D01*
X137993852Y-37788620D01*
X137935816Y-37572027D01*
X137841051Y-37368803D01*
X137832775Y-37356984D01*
X137712433Y-37185117D01*
X137553882Y-37026566D01*
X137370198Y-36897949D01*
X137166972Y-36803183D01*
X136950380Y-36745148D01*
X136785674Y-36730738D01*
X136785668Y-36730737D01*
X136782951Y-36730500D01*
X136671049Y-36730500D01*
X136668332Y-36730737D01*
X136668325Y-36730738D01*
X136503619Y-36745148D01*
X136287027Y-36803183D01*
X136083801Y-36897949D01*
X135900117Y-37026566D01*
X135741566Y-37185117D01*
X135612949Y-37368801D01*
X135518183Y-37572026D01*
X135460148Y-37788619D01*
X135440605Y-38012000D01*
X131743300Y-38012000D01*
X131645695Y-37944629D01*
X131486751Y-37884349D01*
X131360340Y-37869000D01*
X131275660Y-37869000D01*
X131149249Y-37884349D01*
X130990305Y-37944629D01*
X130850405Y-38041194D01*
X130737680Y-38168434D01*
X130658682Y-38318954D01*
X130618000Y-38484005D01*
X130618000Y-38653995D01*
X128976500Y-38653995D01*
X128976500Y-38201080D01*
X128961613Y-37997676D01*
X128902461Y-37732136D01*
X128833948Y-37553000D01*
X129740951Y-37553000D01*
X130302000Y-37553000D01*
X130302000Y-36866906D01*
X130301999Y-36866906D01*
X130162931Y-36972912D01*
X129978621Y-37164423D01*
X129825705Y-37381823D01*
X129740951Y-37553000D01*
X128833948Y-37553000D01*
X128805277Y-37478036D01*
X128672130Y-37240794D01*
X128516360Y-37039067D01*
X128505861Y-37025471D01*
X128339090Y-36864683D01*
X132333999Y-36864683D01*
X132334000Y-37553000D01*
X132895729Y-37553000D01*
X132895728Y-37552999D01*
X132873829Y-37498663D01*
X132737999Y-37270189D01*
X132568894Y-37065136D01*
X132370463Y-36888296D01*
X132333999Y-36864683D01*
X128339090Y-36864683D01*
X128310012Y-36836648D01*
X128310008Y-36836645D01*
X128310005Y-36836642D01*
X128088758Y-36678353D01*
X127846812Y-36553961D01*
X127589335Y-36466122D01*
X127321811Y-36416708D01*
X127049941Y-36406771D01*
X126779524Y-36436527D01*
X126516324Y-36505336D01*
X126265939Y-36611737D01*
X126033721Y-36753458D01*
X125824612Y-36927481D01*
X125643072Y-37130092D01*
X125643070Y-37130094D01*
X125643069Y-37130096D01*
X125606667Y-37185117D01*
X125492960Y-37356984D01*
X125377488Y-37603310D01*
X125299109Y-37863829D01*
X125259500Y-38132973D01*
X125259500Y-38862657D01*
X125239498Y-38930778D01*
X125185842Y-38977271D01*
X125133505Y-38988657D01*
X124902505Y-38988666D01*
X124834383Y-38968667D01*
X124787888Y-38915013D01*
X124776500Y-38862666D01*
X124776500Y-38203380D01*
X124776500Y-38201080D01*
X124761613Y-37997676D01*
X124702461Y-37732136D01*
X124633948Y-37553000D01*
X124605277Y-37478036D01*
X124472130Y-37240794D01*
X124316360Y-37039067D01*
X124305861Y-37025471D01*
X124110012Y-36836648D01*
X124110008Y-36836645D01*
X124110005Y-36836642D01*
X123888758Y-36678353D01*
X123646812Y-36553961D01*
X123389335Y-36466122D01*
X123121811Y-36416708D01*
X122849941Y-36406771D01*
X122579524Y-36436527D01*
X122316324Y-36505336D01*
X122065939Y-36611737D01*
X121833721Y-36753458D01*
X121624612Y-36927481D01*
X121443072Y-37130092D01*
X121443070Y-37130094D01*
X121443069Y-37130096D01*
X121406667Y-37185117D01*
X121292960Y-37356984D01*
X121177488Y-37603310D01*
X121099109Y-37863829D01*
X121059500Y-38132973D01*
X121059500Y-38862816D01*
X121039498Y-38930937D01*
X120985842Y-38977430D01*
X120933505Y-38988816D01*
X120880668Y-38988818D01*
X120702504Y-38988824D01*
X120634383Y-38968826D01*
X120587888Y-38915172D01*
X120576500Y-38862825D01*
X120576500Y-38203380D01*
X120576500Y-38201080D01*
X120561613Y-37997676D01*
X120502461Y-37732136D01*
X120433948Y-37553000D01*
X120405277Y-37478036D01*
X120272130Y-37240794D01*
X120116360Y-37039067D01*
X120105861Y-37025471D01*
X119910012Y-36836648D01*
X119910008Y-36836645D01*
X119910005Y-36836642D01*
X119688758Y-36678353D01*
X119446812Y-36553961D01*
X119189335Y-36466122D01*
X118921811Y-36416708D01*
X118649941Y-36406771D01*
X118379524Y-36436527D01*
X118116324Y-36505336D01*
X117865939Y-36611737D01*
X117633721Y-36753458D01*
X117424612Y-36927481D01*
X117243072Y-37130092D01*
X117243070Y-37130094D01*
X117243069Y-37130096D01*
X117206667Y-37185117D01*
X117092960Y-37356984D01*
X116977488Y-37603310D01*
X116899109Y-37863829D01*
X116859500Y-38132973D01*
X116859500Y-38874166D01*
X116839498Y-38942287D01*
X116785842Y-38988780D01*
X116785145Y-38988973D01*
X116077924Y-38989000D01*
X116077930Y-39585000D01*
X115534000Y-39585000D01*
X115533999Y-40271092D01*
X115673067Y-40165087D01*
X115861149Y-39969658D01*
X115922798Y-39934445D01*
X115993698Y-39938153D01*
X116051338Y-39979603D01*
X116077419Y-40045635D01*
X116077935Y-40057029D01*
X116077960Y-42394891D01*
X116057959Y-42463012D01*
X116004304Y-42509505D01*
X115934030Y-42519610D01*
X115869449Y-42490117D01*
X115864507Y-42485600D01*
X115710009Y-42336645D01*
X115488758Y-42178353D01*
X115246812Y-42053961D01*
X114989335Y-41966122D01*
X114721811Y-41916708D01*
X114449941Y-41906771D01*
X114179524Y-41936527D01*
X113916324Y-42005336D01*
X113665939Y-42111737D01*
X113433721Y-42253458D01*
X113224612Y-42427481D01*
X113043072Y-42630092D01*
X113043070Y-42630094D01*
X113043069Y-42630096D01*
X113023661Y-42659431D01*
X112892960Y-42856984D01*
X112777488Y-43103310D01*
X112699109Y-43363829D01*
X112659500Y-43632973D01*
X112659500Y-43632975D01*
X112659500Y-44436920D01*
X112659666Y-44439190D01*
X112659667Y-44439213D01*
X112674387Y-44640327D01*
X112733538Y-44905862D01*
X112830722Y-45159963D01*
X112963869Y-45397205D01*
X113130135Y-45612524D01*
X113130139Y-45612529D01*
X113325988Y-45801352D01*
X113355875Y-45822734D01*
X113425470Y-45872525D01*
X113469234Y-45928430D01*
X113475826Y-45999119D01*
X113443154Y-46062152D01*
X113381591Y-46097514D01*
X113352156Y-46101000D01*
X110490000Y-46101000D01*
X109359248Y-46100824D01*
X109342107Y-46100821D01*
X109269214Y-46100810D01*
X109201097Y-46080797D01*
X109154612Y-46027134D01*
X109144519Y-45956859D01*
X109161992Y-45908665D01*
X109234115Y-45791738D01*
X109289887Y-45623425D01*
X109300500Y-45519544D01*
X109300500Y-42618456D01*
X109289887Y-42514575D01*
X109234115Y-42346262D01*
X109141030Y-42195349D01*
X109141028Y-42195347D01*
X109141027Y-42195345D01*
X109015654Y-42069972D01*
X108989698Y-42053962D01*
X108864738Y-41976885D01*
X108696425Y-41921113D01*
X108696422Y-41921112D01*
X108595745Y-41910826D01*
X108595724Y-41910824D01*
X108592544Y-41910500D01*
X106291456Y-41910500D01*
X106288276Y-41910824D01*
X106288254Y-41910826D01*
X106187577Y-41921112D01*
X106019262Y-41976885D01*
X105868345Y-42069972D01*
X105742972Y-42195345D01*
X105649885Y-42346262D01*
X105594112Y-42514577D01*
X105583826Y-42615254D01*
X105583824Y-42615276D01*
X105583500Y-42618456D01*
X105583500Y-45519544D01*
X105583824Y-45522724D01*
X105583826Y-45522745D01*
X105594112Y-45623422D01*
X105594113Y-45623425D01*
X105649885Y-45791738D01*
X105700816Y-45874309D01*
X105721656Y-45908096D01*
X105740393Y-45976576D01*
X105719134Y-46044314D01*
X105664627Y-46089806D01*
X105614395Y-46100243D01*
X104415668Y-46100057D01*
X104347551Y-46080044D01*
X104301066Y-46026382D01*
X104290973Y-45956106D01*
X104320476Y-45891530D01*
X104335078Y-45877217D01*
X104535387Y-45710519D01*
X104716931Y-45507904D01*
X104867039Y-45281016D01*
X104982512Y-45034689D01*
X105060889Y-44774175D01*
X105092518Y-44559265D01*
X105100500Y-44505026D01*
X105100500Y-43703380D01*
X105100500Y-43701080D01*
X105085613Y-43497676D01*
X105026461Y-43232136D01*
X104929277Y-42978037D01*
X104929277Y-42978036D01*
X104796130Y-42740794D01*
X104629864Y-42525475D01*
X104629861Y-42525471D01*
X104434012Y-42336648D01*
X104434008Y-42336645D01*
X104434005Y-42336642D01*
X104212758Y-42178353D01*
X103970812Y-42053961D01*
X103713335Y-41966122D01*
X103445811Y-41916708D01*
X103173941Y-41906771D01*
X102903524Y-41936527D01*
X102640324Y-42005336D01*
X102389939Y-42111737D01*
X102157721Y-42253458D01*
X101948612Y-42427481D01*
X101767072Y-42630092D01*
X101767070Y-42630094D01*
X101767069Y-42630096D01*
X101747661Y-42659431D01*
X101616960Y-42856984D01*
X101501488Y-43103310D01*
X101423109Y-43363829D01*
X101383500Y-43632973D01*
X101383500Y-43632975D01*
X101383500Y-44436920D01*
X101383666Y-44439190D01*
X101383667Y-44439213D01*
X101398387Y-44640327D01*
X101457538Y-44905862D01*
X101554722Y-45159963D01*
X101687869Y-45397205D01*
X101854135Y-45612524D01*
X101854139Y-45612529D01*
X102049988Y-45801352D01*
X102079875Y-45822734D01*
X102147646Y-45871220D01*
X102191410Y-45927125D01*
X102198002Y-45997814D01*
X102165330Y-46060847D01*
X102103767Y-46096209D01*
X102074313Y-46099695D01*
X101733959Y-46099643D01*
X101719853Y-46098849D01*
X101571444Y-46082106D01*
X101543939Y-46075824D01*
X101409703Y-46028834D01*
X101384287Y-46016591D01*
X101263862Y-45940906D01*
X101241814Y-45923321D01*
X101141244Y-45822734D01*
X101123664Y-45800687D01*
X101047999Y-45680251D01*
X101035760Y-45654833D01*
X100988789Y-45520586D01*
X100982512Y-45493084D01*
X100965792Y-45344670D01*
X100965000Y-45330565D01*
X100965000Y-39585000D01*
X101664271Y-39585000D01*
X101686170Y-39639336D01*
X101822000Y-39867810D01*
X101991105Y-40072863D01*
X102189537Y-40249704D01*
X102226000Y-40273316D01*
X102226000Y-39585000D01*
X104258000Y-39585000D01*
X104258000Y-40271092D01*
X104397068Y-40165087D01*
X104581378Y-39973576D01*
X104734294Y-39756176D01*
X104819048Y-39585000D01*
X105864271Y-39585000D01*
X105886170Y-39639336D01*
X106022000Y-39867810D01*
X106191105Y-40072863D01*
X106389537Y-40249704D01*
X106426000Y-40273316D01*
X106426000Y-39585000D01*
X108458000Y-39585000D01*
X108458000Y-40271092D01*
X108597068Y-40165087D01*
X108781378Y-39973576D01*
X108934294Y-39756176D01*
X109019048Y-39585000D01*
X112940271Y-39585000D01*
X112962170Y-39639336D01*
X113098000Y-39867810D01*
X113267105Y-40072863D01*
X113465537Y-40249704D01*
X113502000Y-40273316D01*
X113502000Y-39585000D01*
X112940271Y-39585000D01*
X109019048Y-39585000D01*
X108458000Y-39585000D01*
X106426000Y-39585000D01*
X105864271Y-39585000D01*
X104819048Y-39585000D01*
X104258000Y-39585000D01*
X102226000Y-39585000D01*
X101664271Y-39585000D01*
X100965000Y-39585000D01*
X100965000Y-38653995D01*
X102542000Y-38653995D01*
X102582682Y-38819046D01*
X102661680Y-38969566D01*
X102774405Y-39096806D01*
X102914305Y-39193371D01*
X103073249Y-39253651D01*
X103199660Y-39269000D01*
X103284340Y-39269000D01*
X103410751Y-39253651D01*
X103569695Y-39193371D01*
X103709595Y-39096806D01*
X103822320Y-38969566D01*
X103901318Y-38819046D01*
X103942000Y-38653995D01*
X106742000Y-38653995D01*
X106782682Y-38819046D01*
X106861680Y-38969566D01*
X106974405Y-39096806D01*
X107114305Y-39193371D01*
X107273249Y-39253651D01*
X107399660Y-39269000D01*
X107484340Y-39269000D01*
X107610751Y-39253651D01*
X107769695Y-39193371D01*
X107909595Y-39096806D01*
X108022320Y-38969566D01*
X108101318Y-38819046D01*
X108142000Y-38653995D01*
X113818000Y-38653995D01*
X113858682Y-38819046D01*
X113937680Y-38969566D01*
X114050405Y-39096806D01*
X114190305Y-39193371D01*
X114349249Y-39253651D01*
X114475660Y-39269000D01*
X114560340Y-39269000D01*
X114686751Y-39253651D01*
X114845695Y-39193371D01*
X114985595Y-39096806D01*
X115098320Y-38969566D01*
X115177318Y-38819046D01*
X115218000Y-38653995D01*
X115218000Y-38484005D01*
X115177318Y-38318954D01*
X115098320Y-38168434D01*
X114985595Y-38041194D01*
X114845695Y-37944629D01*
X114686751Y-37884349D01*
X114560340Y-37869000D01*
X114475660Y-37869000D01*
X114349249Y-37884349D01*
X114190305Y-37944629D01*
X114050405Y-38041194D01*
X113937680Y-38168434D01*
X113858682Y-38318954D01*
X113818000Y-38484005D01*
X113818000Y-38653995D01*
X108142000Y-38653995D01*
X108142000Y-38484005D01*
X108101318Y-38318954D01*
X108022320Y-38168434D01*
X107909595Y-38041194D01*
X107769695Y-37944629D01*
X107610751Y-37884349D01*
X107484340Y-37869000D01*
X107399660Y-37869000D01*
X107273249Y-37884349D01*
X107114305Y-37944629D01*
X106974405Y-38041194D01*
X106861680Y-38168434D01*
X106782682Y-38318954D01*
X106742000Y-38484005D01*
X106742000Y-38653995D01*
X103942000Y-38653995D01*
X103942000Y-38484005D01*
X103901318Y-38318954D01*
X103822320Y-38168434D01*
X103709595Y-38041194D01*
X103569695Y-37944629D01*
X103410751Y-37884349D01*
X103284340Y-37869000D01*
X103199660Y-37869000D01*
X103073249Y-37884349D01*
X102914305Y-37944629D01*
X102774405Y-38041194D01*
X102661680Y-38168434D01*
X102582682Y-38318954D01*
X102542000Y-38484005D01*
X102542000Y-38653995D01*
X100965000Y-38653995D01*
X100965000Y-37553000D01*
X101664951Y-37553000D01*
X102226000Y-37553000D01*
X102226000Y-36866906D01*
X102225999Y-36866906D01*
X102086931Y-36972912D01*
X101902621Y-37164423D01*
X101749705Y-37381823D01*
X101664951Y-37553000D01*
X100965000Y-37553000D01*
X100965000Y-36864683D01*
X104258000Y-36864683D01*
X104258000Y-37553000D01*
X104819729Y-37553000D01*
X105864951Y-37553000D01*
X106426000Y-37553000D01*
X106426000Y-36866906D01*
X106425999Y-36866906D01*
X106286931Y-36972912D01*
X106102621Y-37164423D01*
X105949705Y-37381823D01*
X105864951Y-37553000D01*
X104819729Y-37553000D01*
X104819728Y-37552999D01*
X104797829Y-37498663D01*
X104661999Y-37270189D01*
X104492894Y-37065136D01*
X104294461Y-36888294D01*
X104258000Y-36864683D01*
X108457999Y-36864683D01*
X108458000Y-37553000D01*
X109019729Y-37553000D01*
X112940951Y-37553000D01*
X113502000Y-37553000D01*
X113502000Y-36866906D01*
X113501999Y-36866906D01*
X113362931Y-36972912D01*
X113178621Y-37164423D01*
X113025705Y-37381823D01*
X112940951Y-37553000D01*
X109019729Y-37553000D01*
X109019728Y-37552999D01*
X108997829Y-37498663D01*
X108861999Y-37270189D01*
X108692894Y-37065136D01*
X108494463Y-36888296D01*
X108457999Y-36864683D01*
X115534000Y-36864683D01*
X115534000Y-37553000D01*
X116095729Y-37553000D01*
X116095728Y-37552999D01*
X116073829Y-37498663D01*
X115937999Y-37270189D01*
X115768894Y-37065136D01*
X115570461Y-36888294D01*
X115534000Y-36864683D01*
X108457999Y-36864683D01*
X104258000Y-36864683D01*
X100965000Y-36864683D01*
X100965000Y-35948078D01*
X100965792Y-35933971D01*
X100966214Y-35930218D01*
X100982516Y-35785537D01*
X100988791Y-35758045D01*
X101035774Y-35623775D01*
X101048012Y-35598365D01*
X101123693Y-35477918D01*
X101141282Y-35455862D01*
X101241862Y-35355282D01*
X101263918Y-35337693D01*
X101384365Y-35262012D01*
X101409775Y-35249774D01*
X101544045Y-35202791D01*
X101571537Y-35196516D01*
X101697586Y-35182314D01*
X101719972Y-35179792D01*
X101734079Y-35179000D01*
X150360921Y-35179000D01*
X150375028Y-35179792D01*
G37*
%TD.AperFunction*%
%TD*%
M02*
