%TF.GenerationSoftware,KiCad,Pcbnew,7.0.2*%
%TF.CreationDate,2023-09-23T19:56:34-04:00*%
%TF.ProjectId,Power Distribution Board,506f7765-7220-4446-9973-747269627574,rev?*%
%TF.SameCoordinates,PX3c7dd70PY9e91430*%
%TF.FileFunction,Soldermask,Top*%
%TF.FilePolarity,Negative*%
%FSLAX46Y46*%
G04 Gerber Fmt 4.6, Leading zero omitted, Abs format (unit mm)*
G04 Created by KiCad (PCBNEW 7.0.2) date 2023-09-23 19:56:34*
%MOMM*%
%LPD*%
G01*
G04 APERTURE LIST*
G04 Aperture macros list*
%AMRoundRect*
0 Rectangle with rounded corners*
0 $1 Rounding radius*
0 $2 $3 $4 $5 $6 $7 $8 $9 X,Y pos of 4 corners*
0 Add a 4 corners polygon primitive as box body*
4,1,4,$2,$3,$4,$5,$6,$7,$8,$9,$2,$3,0*
0 Add four circle primitives for the rounded corners*
1,1,$1+$1,$2,$3*
1,1,$1+$1,$4,$5*
1,1,$1+$1,$6,$7*
1,1,$1+$1,$8,$9*
0 Add four rect primitives between the rounded corners*
20,1,$1+$1,$2,$3,$4,$5,0*
20,1,$1+$1,$4,$5,$6,$7,0*
20,1,$1+$1,$6,$7,$8,$9,0*
20,1,$1+$1,$8,$9,$2,$3,0*%
G04 Aperture macros list end*
%ADD10C,2.754000*%
%ADD11RoundRect,0.127000X-0.750000X-0.750000X0.750000X-0.750000X0.750000X0.750000X-0.750000X0.750000X0*%
%ADD12C,1.754000*%
%ADD13C,1.654000*%
%ADD14RoundRect,0.127000X1.000000X-1.000000X1.000000X1.000000X-1.000000X1.000000X-1.000000X-1.000000X0*%
%ADD15C,2.254000*%
%ADD16C,3.254000*%
%ADD17RoundRect,0.127000X1.350000X-0.550000X1.350000X0.550000X-1.350000X0.550000X-1.350000X-0.550000X0*%
%ADD18RoundRect,0.127000X4.600000X-5.350000X4.600000X5.350000X-4.600000X5.350000X-4.600000X-5.350000X0*%
%ADD19C,0.001000*%
%ADD20C,4.064000*%
%ADD21RoundRect,0.127000X0.750000X-0.750000X0.750000X0.750000X-0.750000X0.750000X-0.750000X-0.750000X0*%
%ADD22C,2.032000*%
%ADD23C,2.794000*%
%ADD24RoundRect,0.127000X-0.750000X0.750000X-0.750000X-0.750000X0.750000X-0.750000X0.750000X0.750000X0*%
%ADD25RoundRect,0.127000X-1.000000X-1.000000X1.000000X-1.000000X1.000000X1.000000X-1.000000X1.000000X0*%
%ADD26RoundRect,0.127000X-1.350000X0.550000X-1.350000X-0.550000X1.350000X-0.550000X1.350000X0.550000X0*%
%ADD27RoundRect,0.127000X-4.600000X5.350000X-4.600000X-5.350000X4.600000X-5.350000X4.600000X5.350000X0*%
%ADD28C,2.286000*%
%ADD29RoundRect,0.127000X1.000000X1.000000X-1.000000X1.000000X-1.000000X-1.000000X1.000000X-1.000000X0*%
%ADD30C,6.254000*%
%ADD31C,1.524000*%
G04 APERTURE END LIST*
D10*
%TO.C,U1*%
X55276899Y92419501D03*
X60356899Y92419501D03*
X70516899Y92419501D03*
X52736899Y46699501D03*
X62896899Y46699501D03*
X73056899Y46699501D03*
%TD*%
D11*
%TO.C,P17*%
X126396899Y110834501D03*
D12*
X126396899Y113374501D03*
X128936899Y110834501D03*
X128936899Y113374501D03*
X131476899Y110834501D03*
X131476899Y113374501D03*
%TD*%
D13*
%TO.C,R2*%
X44812099Y17895901D03*
X44812099Y10275901D03*
%TD*%
D14*
%TO.C,C15*%
X140798699Y53175101D03*
X140798699Y56175100D03*
%TD*%
%TO.C,C11*%
X111817299Y62369901D03*
X111817299Y65369900D03*
%TD*%
%TO.C,C6*%
X112071299Y72910901D03*
X112071299Y75910900D03*
%TD*%
D12*
%TO.C,L2*%
X85286900Y112893701D03*
X77666900Y112893701D03*
X85286900Y105393701D03*
X77666900Y105393701D03*
%TD*%
D14*
%TO.C,C1*%
X58807499Y107480301D03*
X58807499Y110480300D03*
%TD*%
%TO.C,C4*%
X48926899Y72783901D03*
X48926899Y75783900D03*
%TD*%
%TO.C,C5*%
X80270499Y72910901D03*
X80270499Y75910900D03*
%TD*%
%TO.C,C14*%
X109074100Y62369900D03*
X109074100Y65369899D03*
%TD*%
D10*
%TO.C,U2*%
X87026899Y92317901D03*
X92106899Y92317901D03*
X102266899Y92317901D03*
X84486899Y46597901D03*
X94646899Y46597901D03*
X104806899Y46597901D03*
%TD*%
D15*
%TO.C,RT1*%
X158324699Y104433701D03*
X150524699Y106583701D03*
%TD*%
D16*
%TO.C,F4*%
X24212699Y39025101D03*
X24212699Y35625101D03*
X34122700Y39025101D03*
X34122700Y35625101D03*
%TD*%
D17*
%TO.C,D2*%
X39917900Y112028301D03*
D18*
X50367900Y109488301D03*
D17*
X39917900Y106948301D03*
%TD*%
D19*
%TO.C,P2*%
X32188300Y117601100D03*
D16*
X32188300Y110301100D03*
X32188300Y104801100D03*
%TD*%
D20*
%TO.C,P5*%
X10141099Y85078901D03*
X10141099Y91078901D03*
%TD*%
D16*
%TO.C,F2*%
X24212699Y60615101D03*
X24212699Y57215101D03*
X34122700Y60615101D03*
X34122700Y57215101D03*
%TD*%
D14*
%TO.C,C10*%
X80041899Y62319101D03*
X80041899Y65319100D03*
%TD*%
D19*
%TO.C,P8*%
X164126099Y98388501D03*
D16*
X156826099Y98388501D03*
X151326099Y98388501D03*
%TD*%
%TO.C,F3*%
X24212699Y49693101D03*
X24212699Y46293101D03*
X34122700Y49693101D03*
X34122700Y46293101D03*
%TD*%
D21*
%TO.C,P12*%
X145396099Y34913901D03*
D12*
X142856099Y34913901D03*
X145396099Y37453901D03*
X142856099Y37453901D03*
X145396099Y39993901D03*
X142856099Y39993901D03*
%TD*%
D19*
%TO.C,P15*%
X163491099Y16067101D03*
D16*
X156191099Y16067101D03*
X150691099Y16067101D03*
%TD*%
D22*
%TO.C,P21*%
X116150699Y111873109D03*
X118690699Y111873109D03*
%TD*%
D23*
%TO.C,U5*%
X130460899Y6643701D03*
X125380899Y6643701D03*
X138120899Y27003701D03*
X127920899Y26963701D03*
X117800899Y27003701D03*
X117760899Y6643701D03*
%TD*%
D24*
%TO.C,P9*%
X165081099Y52633311D03*
D12*
X167621099Y52633311D03*
X165081099Y50093311D03*
X167621099Y50093311D03*
X165081099Y47553311D03*
X167621099Y47553311D03*
%TD*%
D25*
%TO.C,C9*%
X119893099Y42406901D03*
X122893099Y42406901D03*
%TD*%
D22*
%TO.C,P26*%
X97837299Y111873109D03*
X100377299Y111873109D03*
%TD*%
D19*
%TO.C,P4*%
X4974699Y48113432D03*
D16*
X12274699Y48113432D03*
X17774699Y48113432D03*
%TD*%
D24*
%TO.C,P19*%
X42272099Y35167901D03*
D12*
X44812099Y35167901D03*
X42272099Y32627901D03*
X44812099Y32627901D03*
X42272099Y30087901D03*
X44812099Y30087901D03*
X42272099Y27547901D03*
X44812099Y27547901D03*
%TD*%
D26*
%TO.C,D3*%
X30326098Y91428901D03*
D27*
X19876098Y93968901D03*
D26*
X30326098Y96508901D03*
%TD*%
D25*
%TO.C,C7*%
X88270099Y42279901D03*
X91270099Y42279901D03*
%TD*%
D14*
%TO.C,C17*%
X144126100Y23253900D03*
X144126100Y26253900D03*
%TD*%
D23*
%TO.C,U4*%
X104349700Y6694500D03*
X99269700Y6694500D03*
X112009700Y27054500D03*
X101809700Y27014500D03*
X91689700Y27054500D03*
X91649700Y6694500D03*
%TD*%
D12*
%TO.C,L1*%
X69792900Y112893701D03*
X62172900Y112893701D03*
X69792900Y105393701D03*
X62172900Y105393701D03*
%TD*%
D14*
%TO.C,C12*%
X143516499Y53175101D03*
X143516499Y56175100D03*
%TD*%
D19*
%TO.C,P6*%
X4974699Y37453901D03*
D16*
X12274699Y37453901D03*
X17774699Y37453901D03*
%TD*%
D14*
%TO.C,C2*%
X73818890Y107759701D03*
X73818890Y110759700D03*
%TD*%
D13*
%TO.C,R1*%
X41637099Y17895901D03*
X41637099Y10275901D03*
%TD*%
D15*
%TO.C,K2*%
X69440099Y10783901D03*
X72940099Y18383901D03*
X76440099Y10783901D03*
X52940099Y18383901D03*
X52940099Y10783901D03*
%TD*%
D22*
%TO.C,P25*%
X97786499Y104786509D03*
X100326499Y104786509D03*
%TD*%
D19*
%TO.C,P11*%
X4974699Y22899701D03*
D16*
X12274699Y22899701D03*
X17774699Y22899701D03*
%TD*%
D22*
%TO.C,P22*%
X107006699Y111873109D03*
X109546699Y111873109D03*
%TD*%
%TO.C,P20*%
X116099899Y104786509D03*
X118639899Y104786509D03*
%TD*%
D19*
%TO.C,P3*%
X4974699Y58772964D03*
D16*
X12274699Y58772964D03*
X17774699Y58772964D03*
%TD*%
D19*
%TO.C,P7*%
X20448301Y117601100D03*
D16*
X23298300Y110301100D03*
X23298300Y104801100D03*
X17598301Y110301100D03*
X17598301Y104801100D03*
%TD*%
D19*
%TO.C,P10*%
X164126099Y84520101D03*
D16*
X156826099Y84520101D03*
X151326099Y84520101D03*
%TD*%
D19*
%TO.C,P18*%
X164336099Y39358901D03*
D16*
X157036099Y41458899D03*
X157036099Y37258900D03*
X151536099Y41458899D03*
X151536099Y37258900D03*
%TD*%
%TO.C,F1*%
X24212699Y71157724D03*
X24212699Y67757724D03*
X34122700Y71157724D03*
X34122700Y67757724D03*
%TD*%
D19*
%TO.C,P28*%
X4974699Y11850701D03*
D16*
X12274699Y11850701D03*
X17774699Y11850701D03*
%TD*%
D15*
%TO.C,K1*%
X69440099Y27166901D03*
X72940099Y34766901D03*
X76440099Y27166901D03*
X52940099Y34766901D03*
X52940099Y27166901D03*
%TD*%
D21*
%TO.C,P13*%
X149841099Y65393901D03*
D12*
X147301099Y65393901D03*
X149841099Y67933901D03*
X147301099Y67933901D03*
X149841099Y70473901D03*
X147301099Y70473901D03*
%TD*%
D10*
%TO.C,U3*%
X118776899Y92317901D03*
X123856899Y92317901D03*
X134016899Y92317901D03*
X116236899Y46597901D03*
X126396899Y46597901D03*
X136556899Y46597901D03*
%TD*%
D19*
%TO.C,P23*%
X166784898Y61365613D03*
X166784898Y72045612D03*
D28*
X162464899Y59205612D03*
X159464900Y59205612D03*
X162464899Y62205611D03*
X159464900Y62205611D03*
X162464899Y65205610D03*
X159464900Y65205610D03*
X162464899Y68205610D03*
X159464900Y68205610D03*
X162464899Y71205609D03*
X159464900Y71205609D03*
X162464899Y74205608D03*
X159464900Y74205608D03*
%TD*%
D24*
%TO.C,P14*%
X158096099Y52633311D03*
D12*
X160636099Y52633311D03*
X158096099Y50093311D03*
X160636099Y50093311D03*
X158096099Y47553311D03*
X160636099Y47553311D03*
%TD*%
D14*
%TO.C,C13*%
X77273299Y62319101D03*
X77273299Y65319100D03*
%TD*%
D19*
%TO.C,P29*%
X163491099Y6973901D03*
D16*
X156191099Y6973901D03*
X150691099Y6973901D03*
%TD*%
D22*
%TO.C,P27*%
X106955899Y104786509D03*
X109495899Y104786509D03*
%TD*%
D14*
%TO.C,C3*%
X88804899Y107759701D03*
X88804899Y110759700D03*
%TD*%
D25*
%TO.C,C8*%
X56520099Y42406901D03*
X59520099Y42406901D03*
%TD*%
D26*
%TO.C,D1*%
X30326098Y79363901D03*
D27*
X19876098Y81903901D03*
D26*
X30326098Y84443901D03*
%TD*%
D16*
%TO.C,F6*%
X24212699Y13675901D03*
X24212699Y10275901D03*
X34122700Y13675901D03*
X34122700Y10275901D03*
%TD*%
D19*
%TO.C,P1*%
X4974699Y69432496D03*
D16*
X12274699Y69432496D03*
X17774699Y69432496D03*
%TD*%
D29*
%TO.C,C16*%
X111971099Y31103901D03*
X108971099Y31103901D03*
%TD*%
D16*
%TO.C,F5*%
X24212699Y24750301D03*
X24212699Y21350301D03*
X34122700Y24750301D03*
X34122700Y21350301D03*
%TD*%
D15*
%TO.C,RT2*%
X158146899Y90108101D03*
X150346899Y92258101D03*
%TD*%
D19*
%TO.C,P16*%
X164336099Y28563901D03*
D16*
X157036099Y30663899D03*
X157036099Y26463900D03*
X151536099Y30663899D03*
X151536099Y26463900D03*
%TD*%
D30*
X142801099Y3191122D03*
X8871114Y3191122D03*
X8871114Y98381076D03*
X142871099Y98381076D03*
D31*
X49629572Y108749973D03*
X153651099Y48248901D03*
X109201099Y31103901D03*
X144126099Y26023901D03*
X136506099Y60948901D03*
X83166099Y20816901D03*
X85071099Y18911901D03*
X81261099Y22721901D03*
X136506099Y59043901D03*
X136506099Y57138901D03*
X8871099Y76188903D03*
X43161099Y95873901D03*
M02*
