M48
; DRILL file {KiCad 7.0.2} date Sat Sep 23 20:03:06 2023
; FORMAT={-:-/ absolute / inch / decimal}
; #@! TF.CreationDate,2023-09-23T20:03:06-04:00
; #@! TF.GenerationSoftware,Kicad,Pcbnew,7.0.2
; #@! TF.FileFunction,Plated,1,2,PTH
FMAT,2
INCH
; #@! TA.AperFunction,Plated,PTH,ViaDrill
T1C0.0280
; #@! TA.AperFunction,Plated,PTH,ComponentDrill
T2C0.0295
; #@! TA.AperFunction,Plated,PTH,ComponentDrill
T3C0.0335
; #@! TA.AperFunction,Plated,PTH,ComponentDrill
T4C0.0350
; #@! TA.AperFunction,Plated,PTH,ComponentDrill
T5C0.0354
; #@! TA.AperFunction,Plated,PTH,ComponentDrill
T6C0.0394
; #@! TA.AperFunction,Plated,PTH,ComponentDrill
T7C0.0400
; #@! TA.AperFunction,Plated,PTH,ComponentDrill
T8C0.0433
; #@! TA.AperFunction,Plated,PTH,ComponentDrill
T9C0.0500
; #@! TA.AperFunction,Plated,PTH,ComponentDrill
T10C0.0591
; #@! TA.AperFunction,Plated,PTH,ComponentDrill
T11C0.0650
; #@! TA.AperFunction,Plated,PTH,ComponentDrill
T12C0.0709
; #@! TA.AperFunction,Plated,PTH,ComponentDrill
T13C0.0728
; #@! TA.AperFunction,Plated,PTH,ComponentDrill
T14C0.0900
; #@! TA.AperFunction,Plated,PTH,ViaDrill
T15C0.1181
%
G90
G05
T1
X0.3493Y2.9996
X1.6993Y3.7746
X1.9539Y4.2815
X3.1993Y0.8946
X3.2743Y0.8196
X3.3493Y0.7446
X4.2993Y1.2246
X5.3743Y2.3996
X5.3743Y2.3246
X5.3743Y2.2496
X5.6743Y1.0246
X6.0493Y1.8996
T2
X2.4478Y4.4446
X2.4478Y4.1494
X2.7478Y4.4446
X2.7478Y4.1494
X3.0578Y4.4446
X3.0578Y4.1494
X3.3578Y4.4446
X3.3578Y4.1494
T3
X1.6393Y0.7046
X1.6393Y0.4046
X1.7643Y0.7046
X1.7643Y0.4046
T4
X3.8499Y4.1255
X3.8519Y4.4045
X3.9499Y4.1255
X3.9519Y4.4045
X4.2109Y4.1255
X4.2129Y4.4045
X4.3109Y4.1255
X4.3129Y4.4045
X4.5709Y4.1255
X4.5729Y4.4045
X4.6709Y4.1255
X4.6729Y4.4045
T5
X1.6643Y1.3846
X1.6643Y1.2846
X1.6643Y1.1846
X1.6643Y1.0846
X1.7643Y1.3846
X1.7643Y1.2846
X1.7643Y1.1846
X1.7643Y1.0846
X4.9763Y4.4636
X4.9763Y4.3636
X5.0763Y4.4636
X5.0763Y4.3636
X5.1763Y4.4636
X5.1763Y4.3636
X5.6243Y1.5746
X5.6243Y1.4746
X5.6243Y1.3746
X5.7243Y1.5746
X5.7243Y1.4746
X5.7243Y1.3746
X5.7993Y2.7746
X5.7993Y2.6746
X5.7993Y2.5746
X5.8993Y2.7746
X5.8993Y2.6746
X5.8993Y2.5746
X6.2243Y2.0722
X6.2243Y1.9722
X6.2243Y1.8722
X6.3243Y2.0722
X6.3243Y1.9722
X6.3243Y1.8722
X6.4993Y2.0722
X6.4993Y1.9722
X6.4993Y1.8722
X6.5993Y2.0722
X6.5993Y1.9722
X6.5993Y1.8722
T6
X5.9192Y3.6322
X5.9262Y4.1962
X6.2263Y3.5476
X6.2333Y4.1116
T7
X6.2781Y2.9215
X6.2781Y2.8034
X6.2781Y2.6853
X6.2781Y2.5671
X6.2781Y2.449
X6.2781Y2.3309
X6.3963Y2.9215
X6.3963Y2.8034
X6.3963Y2.6853
X6.3963Y2.5671
X6.3963Y2.449
X6.3963Y2.3309
T8
X2.0763Y1.8386
X2.1763Y3.6386
X2.3763Y3.6386
X2.4763Y1.8386
X2.7763Y3.6386
X2.8763Y1.8386
X3.3263Y1.8346
X3.4263Y3.6346
X3.6263Y3.6346
X3.7263Y1.8346
X4.0263Y3.6346
X4.1263Y1.8346
X4.5763Y1.8346
X4.6763Y3.6346
X4.8763Y3.6346
X4.9763Y1.8346
X5.2763Y3.6346
X5.3763Y1.8346
T9
X3.6083Y0.2636
X3.6098Y1.0651
X3.9083Y0.2636
X4.0083Y1.0636
X4.1083Y0.2636
X4.4098Y1.0651
X4.6363Y0.2616
X4.6378Y1.0631
X4.9363Y0.2616
X5.0363Y1.0616
X5.1363Y0.2616
X5.4378Y1.0631
T10
X2.0843Y1.3688
X2.0843Y1.0696
X2.0843Y0.7238
X2.0843Y0.4246
X2.7339Y1.0696
X2.7339Y0.4246
X2.8717Y1.3688
X2.8717Y0.7238
X3.0095Y1.0696
X3.0095Y0.4246
T11
X0.9533Y2.8015
X0.9533Y2.6676
X0.9533Y2.3864
X0.9533Y2.2526
X0.9533Y1.9564
X0.9533Y1.8226
X0.9533Y1.5364
X0.9533Y1.4026
X0.9533Y0.9744
X0.9533Y0.8406
X0.9533Y0.5384
X0.9533Y0.4046
X1.3434Y2.8015
X1.3434Y2.6676
X1.3434Y2.3864
X1.3434Y2.2526
X1.3434Y1.9564
X1.3434Y1.8226
X1.3434Y1.5364
X1.3434Y1.4026
X1.3434Y0.9744
X1.3434Y0.8406
X1.3434Y0.5384
X1.3434Y0.4046
T12
X0.4833Y2.7336
X0.4833Y2.3139
X0.4833Y1.8942
X0.4833Y1.4746
X0.4833Y0.9016
X0.4833Y0.4666
X0.6928Y4.3426
X0.6928Y4.126
X0.6998Y2.7336
X0.6998Y2.3139
X0.6998Y1.8942
X0.6998Y1.4746
X0.6998Y0.9016
X0.6998Y0.4666
X0.9173Y4.3426
X0.9173Y4.126
X1.2673Y4.3426
X1.2673Y4.126
X5.9327Y0.6326
X5.9327Y0.2746
X5.9577Y3.8736
X5.9577Y3.3276
X6.1493Y0.6326
X6.1493Y0.2746
X6.1743Y3.8736
X6.1743Y3.3276
T13
X5.966Y1.6322
X5.966Y1.4669
X5.966Y1.2072
X5.966Y1.0419
X6.1825Y1.6322
X6.1825Y1.4669
X6.1825Y1.2072
X6.1825Y1.0419
T14
X0.3993Y3.5858
X0.3993Y3.3496
T15
X0.3493Y3.8733
X0.3493Y0.1256
X5.6221Y0.1256
X5.6248Y3.8733
T0
M30
